%TF.GenerationSoftware,KiCad,Pcbnew,9.0.3*%
%TF.CreationDate,2025-08-18T17:13:01-04:00*%
%TF.ProjectId,bioimpedance,62696f69-6d70-4656-9461-6e63652e6b69,rev?*%
%TF.SameCoordinates,Original*%
%TF.FileFunction,Copper,L2,Bot*%
%TF.FilePolarity,Positive*%
%FSLAX46Y46*%
G04 Gerber Fmt 4.6, Leading zero omitted, Abs format (unit mm)*
G04 Created by KiCad (PCBNEW 9.0.3) date 2025-08-18 17:13:01*
%MOMM*%
%LPD*%
G01*
G04 APERTURE LIST*
%TA.AperFunction,ComponentPad*%
%ADD10R,1.700000X1.700000*%
%TD*%
%TA.AperFunction,ComponentPad*%
%ADD11C,1.700000*%
%TD*%
%TA.AperFunction,HeatsinkPad*%
%ADD12C,0.600000*%
%TD*%
%TA.AperFunction,ComponentPad*%
%ADD13C,0.700000*%
%TD*%
%TA.AperFunction,ComponentPad*%
%ADD14O,0.900000X2.400000*%
%TD*%
%TA.AperFunction,ComponentPad*%
%ADD15O,0.900000X1.700000*%
%TD*%
%TA.AperFunction,ViaPad*%
%ADD16C,0.250000*%
%TD*%
%TA.AperFunction,Conductor*%
%ADD17C,0.100000*%
%TD*%
%TA.AperFunction,Conductor*%
%ADD18C,0.200000*%
%TD*%
G04 APERTURE END LIST*
D10*
%TO.P,J8,1,Pin_1*%
%TO.N,GND*%
X96000000Y-88120000D03*
D11*
%TO.P,J8,2,Pin_2*%
%TO.N,14*%
X96000000Y-85580000D03*
%TO.P,J8,3,Pin_3*%
%TO.N,MISO*%
X96000000Y-83040000D03*
%TO.P,J8,4,Pin_4*%
%TO.N,MOSI*%
X96000000Y-80500000D03*
%TO.P,J8,5,Pin_5*%
%TO.N,11*%
X96000000Y-77960000D03*
%TO.P,J8,6,Pin_6*%
%TO.N,10*%
X96000000Y-75420000D03*
%TO.P,J8,7,Pin_7*%
%TO.N,09*%
X96000000Y-72880000D03*
%TO.P,J8,8,Pin_8*%
%TO.N,46*%
X96000000Y-70340000D03*
%TO.P,J8,9,Pin_9*%
%TO.N,03*%
X96000000Y-67800000D03*
%TO.P,J8,10,Pin_10*%
%TO.N,08*%
X96000000Y-65260000D03*
%TO.P,J8,11,Pin_11*%
%TO.N,SCLK*%
X96000000Y-62720000D03*
%TO.P,J8,12,Pin_12*%
%TO.N,15*%
X96000000Y-60180000D03*
%TO.P,J8,13,Pin_13*%
%TO.N,07*%
X96000000Y-57640000D03*
%TO.P,J8,14,Pin_14*%
%TO.N,06*%
X96000000Y-55100000D03*
%TO.P,J8,15,Pin_15*%
%TO.N,04*%
X96000000Y-52560000D03*
%TO.P,J8,16,Pin_16*%
%TO.N,+3V3*%
X96000000Y-50020000D03*
%TD*%
D12*
%TO.P,U1,41,GND*%
%TO.N,GND*%
X110775000Y-42760000D03*
X110775000Y-44160000D03*
X111475000Y-42060000D03*
X111475000Y-43460000D03*
X111475000Y-44860000D03*
X112175000Y-42760000D03*
X112175000Y-44160000D03*
X112875000Y-42060000D03*
X112875000Y-43460000D03*
X112875000Y-44860000D03*
X113575000Y-42760000D03*
X113575000Y-44160000D03*
%TD*%
D10*
%TO.P,J6,1,Pin_1*%
%TO.N,+3V3*%
X131500000Y-50420000D03*
D11*
%TO.P,J6,2,Pin_2*%
%TO.N,AOUT*%
X131500000Y-52960000D03*
%TO.P,J6,3,Pin_3*%
%TO.N,01*%
X131500000Y-55500000D03*
%TO.P,J6,4,Pin_4*%
%TO.N,02*%
X131500000Y-58040000D03*
%TO.P,J6,5,Pin_5*%
%TO.N,42*%
X131500000Y-60580000D03*
%TO.P,J6,6,Pin_6*%
%TO.N,41*%
X131500000Y-63120000D03*
%TO.P,J6,7,Pin_7*%
%TO.N,40*%
X131500000Y-65660000D03*
%TO.P,J6,8,Pin_8*%
%TO.N,39*%
X131500000Y-68200000D03*
%TO.P,J6,9,Pin_9*%
%TO.N,38*%
X131500000Y-70740000D03*
%TO.P,J6,10,Pin_10*%
%TO.N,37*%
X131500000Y-73280000D03*
%TO.P,J6,11,Pin_11*%
%TO.N,36*%
X131500000Y-75820000D03*
%TO.P,J6,12,Pin_12*%
%TO.N,35*%
X131500000Y-78360000D03*
%TO.P,J6,13,Pin_13*%
%TO.N,45*%
X131500000Y-80900000D03*
%TO.P,J6,14,Pin_14*%
%TO.N,48*%
X131500000Y-83440000D03*
%TO.P,J6,15,Pin_15*%
%TO.N,47*%
X131500000Y-85980000D03*
%TO.P,J6,16,Pin_16*%
%TO.N,GND*%
X131500000Y-88520000D03*
%TD*%
D13*
%TO.P,J3,A1,GND*%
%TO.N,GND*%
X110700000Y-93975000D03*
%TO.P,J3,A4,VBUS*%
%TO.N,VBUS*%
X111550000Y-93975000D03*
%TO.P,J3,A5,CC1*%
%TO.N,Net-(J3-CC1)*%
X112400000Y-93975000D03*
%TO.P,J3,A6,D+*%
%TO.N,D+*%
X113250000Y-93975000D03*
%TO.P,J3,A7,D-*%
%TO.N,D-*%
X114100000Y-93975000D03*
%TO.P,J3,A8,SBU1*%
%TO.N,unconnected-(J3-SBU1-PadA8)*%
X114950000Y-93975000D03*
%TO.P,J3,A9,VBUS*%
%TO.N,VBUS*%
X115800000Y-93975000D03*
%TO.P,J3,A12,GND*%
%TO.N,GND*%
X116650000Y-93975000D03*
%TO.P,J3,B1,GND*%
X116650000Y-95325000D03*
%TO.P,J3,B4,VBUS*%
%TO.N,VBUS*%
X115800000Y-95325000D03*
%TO.P,J3,B5,CC2*%
%TO.N,Net-(J3-CC2)*%
X114950000Y-95325000D03*
%TO.P,J3,B6,D+*%
%TO.N,D+*%
X114100000Y-95325000D03*
%TO.P,J3,B7,D-*%
%TO.N,D-*%
X113250000Y-95325000D03*
%TO.P,J3,B8,SBU2*%
%TO.N,unconnected-(J3-SBU2-PadB8)*%
X112400000Y-95325000D03*
%TO.P,J3,B9,VBUS*%
%TO.N,VBUS*%
X111550000Y-95325000D03*
%TO.P,J3,B12,GND*%
%TO.N,GND*%
X110700000Y-95325000D03*
D14*
%TO.P,J3,S1,SHIELD*%
%TO.N,unconnected-(J3-SHIELD-PadS1)_2*%
X109350000Y-94955000D03*
D15*
%TO.N,unconnected-(J3-SHIELD-PadS1)_3*%
X109350000Y-98335000D03*
D14*
%TO.N,unconnected-(J3-SHIELD-PadS1)*%
X118000000Y-94955000D03*
D15*
%TO.N,unconnected-(J3-SHIELD-PadS1)_1*%
X118000000Y-98335000D03*
%TD*%
D10*
%TO.P,J1,1,Pin_1*%
%TO.N,DVRP*%
X101490000Y-78660000D03*
D11*
%TO.P,J1,2,Pin_2*%
%TO.N,ECGP*%
X101490000Y-76120000D03*
%TO.P,J1,3,Pin_3*%
%TO.N,ECGN*%
X101490000Y-73580000D03*
%TO.P,J1,4,Pin_4*%
%TO.N,DVRN*%
X101490000Y-71040000D03*
%TO.P,J1,5,Pin_5*%
%TO.N,BIAS*%
X101490000Y-68500000D03*
%TD*%
D16*
%TO.N,BIAS*%
X115500000Y-62000000D03*
X106000000Y-68500000D03*
%TO.N,D-*%
X111000000Y-51500000D03*
%TO.N,D+*%
X111000000Y-52000000D03*
%TO.N,INTB*%
X111500000Y-46000000D03*
%TO.N,CSB*%
X107000000Y-43000000D03*
X110500000Y-57000000D03*
%TO.N,+1V8*%
X122000000Y-66000000D03*
X120000000Y-86500000D03*
X116500000Y-86500000D03*
X108500000Y-68000000D03*
%TO.N,BOOT*%
X132000000Y-97000000D03*
X123500000Y-53000000D03*
%TO.N,+3V3*%
X102000000Y-36500000D03*
X101000000Y-41500000D03*
X116500000Y-87500000D03*
X118500000Y-66500000D03*
X110500000Y-64500000D03*
%TO.N,MISO*%
X114000000Y-54500000D03*
%TO.N,MOSI*%
X113500000Y-54500000D03*
%TO.N,Net-(U2-BIN)*%
X118500000Y-77500000D03*
X110500000Y-75000000D03*
%TO.N,GND*%
X116850000Y-71025000D03*
%TO.N,Net-(U2-RBIAS)*%
X123900000Y-73125000D03*
%TO.N,Net-(U2-CAPN)*%
X112375000Y-68700000D03*
%TO.N,Net-(U2-FCLK)*%
X109975000Y-66100000D03*
X114325000Y-68275000D03*
%TO.N,Net-(U2-CAPN)*%
X114800000Y-69725000D03*
%TO.N,GND*%
X115800000Y-69225000D03*
%TO.N,+3V3*%
X115800000Y-68725000D03*
%TO.N,INTB*%
X116300000Y-68725000D03*
%TO.N,AOUT*%
X116300000Y-69225000D03*
%TO.N,Net-(U2-RBIAS)*%
X116275000Y-69750000D03*
%TD*%
D17*
%TO.N,BIAS*%
X106000000Y-68500000D02*
X112500000Y-62000000D01*
X112500000Y-62000000D02*
X115500000Y-62000000D01*
D18*
%TO.N,D+*%
X113250000Y-93975000D02*
X105000000Y-85725000D01*
X105000000Y-85725000D02*
X105000000Y-65500000D01*
X112500000Y-53500000D02*
X111000000Y-52000000D01*
X114500000Y-56000000D02*
X114500000Y-53500000D01*
X114500000Y-53500000D02*
X112500000Y-53500000D01*
X105000000Y-65500000D02*
X114500000Y-56000000D01*
%TO.N,D-*%
X112500000Y-53000000D02*
X111000000Y-51500000D01*
X105500000Y-85500000D02*
X105500000Y-66000000D01*
X115000000Y-53000000D02*
X112500000Y-53000000D01*
X106000000Y-65500000D02*
X115000000Y-56500000D01*
X113975000Y-93975000D02*
X105500000Y-85500000D01*
X105500000Y-66000000D02*
X106000000Y-65500000D01*
X114100000Y-93975000D02*
X113975000Y-93975000D01*
X115000000Y-56500000D02*
X115000000Y-53000000D01*
D17*
%TO.N,INTB*%
X116300000Y-50800000D02*
X111500000Y-46000000D01*
X116300000Y-68725000D02*
X116300000Y-50800000D01*
%TO.N,CSB*%
X110500000Y-46500000D02*
X107000000Y-43000000D01*
X110500000Y-57000000D02*
X110500000Y-46500000D01*
%TO.N,VBUS*%
X111550000Y-95325000D02*
X112225000Y-96000000D01*
X112225000Y-96000000D02*
X115125000Y-96000000D01*
X115125000Y-96000000D02*
X115800000Y-95325000D01*
%TO.N,+1V8*%
X126000000Y-70000000D02*
X122000000Y-66000000D01*
X126000000Y-79500000D02*
X126000000Y-70000000D01*
X120000000Y-86500000D02*
X126000000Y-80500000D01*
X126000000Y-80500000D02*
X126000000Y-79500000D01*
X122000000Y-66000000D02*
X122250000Y-66250000D01*
X108500000Y-78500000D02*
X116500000Y-86500000D01*
X108500000Y-68000000D02*
X108500000Y-78500000D01*
%TO.N,BOOT*%
X134000000Y-95000000D02*
X132000000Y-97000000D01*
X134000000Y-51500000D02*
X134000000Y-95000000D01*
X123500000Y-53000000D02*
X128500000Y-48000000D01*
X132000000Y-48000000D02*
X134000000Y-50000000D01*
X131000000Y-48000000D02*
X132000000Y-48000000D01*
X128500000Y-48000000D02*
X131000000Y-48000000D01*
X134000000Y-50000000D02*
X134000000Y-51500000D01*
%TO.N,MOSI*%
X113500000Y-54500000D02*
X99000000Y-69000000D01*
X99000000Y-77500000D02*
X96000000Y-80500000D01*
X99000000Y-69000000D02*
X99000000Y-77500000D01*
%TO.N,MISO*%
X96000000Y-83040000D02*
X99500000Y-79540000D01*
X99500000Y-79540000D02*
X99500000Y-68800000D01*
X99500000Y-68800000D02*
X113800000Y-54500000D01*
X113800000Y-54500000D02*
X114000000Y-54500000D01*
D18*
%TO.N,D-*%
X113250000Y-95325000D02*
X113250000Y-94825000D01*
X113250000Y-94825000D02*
X114100000Y-93975000D01*
D17*
%TO.N,Net-(U2-BIN)*%
X113000000Y-77500000D02*
X118500000Y-77500000D01*
X110500000Y-75000000D02*
X113000000Y-77500000D01*
%TO.N,GND*%
X115800000Y-69975000D02*
X116850000Y-71025000D01*
X115800000Y-69225000D02*
X115800000Y-69975000D01*
%TO.N,AOUT*%
X116300000Y-69225000D02*
X128375000Y-57150000D01*
X128375000Y-57150000D02*
X128375000Y-56085000D01*
X128375000Y-56085000D02*
X131500000Y-52960000D01*
%TO.N,Net-(U2-RBIAS)*%
X119650000Y-73125000D02*
X123900000Y-73125000D01*
X116275000Y-69750000D02*
X119650000Y-73125000D01*
%TO.N,Net-(U2-CAPN)*%
X113400000Y-69725000D02*
X112375000Y-68700000D01*
X114800000Y-69725000D02*
X113400000Y-69725000D01*
%TO.N,Net-(U2-FCLK)*%
X110650000Y-66775000D02*
X109975000Y-66100000D01*
X114325000Y-68275000D02*
X112825000Y-66775000D01*
X112825000Y-66775000D02*
X110650000Y-66775000D01*
%TD*%
%TA.AperFunction,Conductor*%
%TO.N,+3V3*%
G36*
X134485148Y-34264352D02*
G01*
X134499500Y-34299000D01*
X134499500Y-99450500D01*
X134485148Y-99485148D01*
X134450500Y-99499500D01*
X93049500Y-99499500D01*
X93014852Y-99485148D01*
X93000500Y-99450500D01*
X93000500Y-97862522D01*
X108799500Y-97862522D01*
X108799500Y-98807477D01*
X108837015Y-98947483D01*
X108837016Y-98947487D01*
X108909491Y-99073015D01*
X109011985Y-99175509D01*
X109057930Y-99202035D01*
X109137512Y-99247983D01*
X109137514Y-99247983D01*
X109137515Y-99247984D01*
X109172517Y-99257363D01*
X109277522Y-99285500D01*
X109277525Y-99285500D01*
X109422477Y-99285500D01*
X109492480Y-99266742D01*
X109562485Y-99247984D01*
X109688015Y-99175509D01*
X109790509Y-99073015D01*
X109862984Y-98947485D01*
X109881742Y-98877480D01*
X109900500Y-98807477D01*
X109900500Y-97862522D01*
X117449500Y-97862522D01*
X117449500Y-98807477D01*
X117487015Y-98947483D01*
X117487016Y-98947487D01*
X117559491Y-99073015D01*
X117661985Y-99175509D01*
X117707930Y-99202035D01*
X117787512Y-99247983D01*
X117787514Y-99247983D01*
X117787515Y-99247984D01*
X117822517Y-99257363D01*
X117927522Y-99285500D01*
X117927525Y-99285500D01*
X118072477Y-99285500D01*
X118142480Y-99266742D01*
X118212485Y-99247984D01*
X118338015Y-99175509D01*
X118440509Y-99073015D01*
X118512984Y-98947485D01*
X118531742Y-98877480D01*
X118550500Y-98807477D01*
X118550500Y-97862522D01*
X118512984Y-97722516D01*
X118512983Y-97722512D01*
X118440508Y-97596984D01*
X118338015Y-97494491D01*
X118212487Y-97422016D01*
X118212483Y-97422015D01*
X118072478Y-97384500D01*
X118072475Y-97384500D01*
X117927525Y-97384500D01*
X117927522Y-97384500D01*
X117787516Y-97422015D01*
X117787512Y-97422016D01*
X117661984Y-97494491D01*
X117661984Y-97494492D01*
X117559492Y-97596984D01*
X117559491Y-97596984D01*
X117487016Y-97722512D01*
X117487015Y-97722516D01*
X117449500Y-97862522D01*
X109900500Y-97862522D01*
X109862984Y-97722516D01*
X109862983Y-97722512D01*
X109790508Y-97596984D01*
X109688015Y-97494491D01*
X109562487Y-97422016D01*
X109562483Y-97422015D01*
X109422478Y-97384500D01*
X109422475Y-97384500D01*
X109277525Y-97384500D01*
X109277522Y-97384500D01*
X109137516Y-97422015D01*
X109137512Y-97422016D01*
X109011984Y-97494491D01*
X109011984Y-97494492D01*
X108909492Y-97596984D01*
X108909491Y-97596984D01*
X108837016Y-97722512D01*
X108837015Y-97722516D01*
X108799500Y-97862522D01*
X93000500Y-97862522D01*
X93000500Y-94132522D01*
X108799500Y-94132522D01*
X108799500Y-95777477D01*
X108837015Y-95917483D01*
X108837016Y-95917487D01*
X108909491Y-96043015D01*
X109011985Y-96145509D01*
X109020630Y-96150500D01*
X109137512Y-96217983D01*
X109137514Y-96217983D01*
X109137515Y-96217984D01*
X109172517Y-96227363D01*
X109277522Y-96255500D01*
X109277525Y-96255500D01*
X109422477Y-96255500D01*
X109492480Y-96236742D01*
X109562485Y-96217984D01*
X109688015Y-96145509D01*
X109790509Y-96043015D01*
X109862984Y-95917485D01*
X109890932Y-95813183D01*
X109900500Y-95777477D01*
X109900500Y-94132522D01*
X109862984Y-93992516D01*
X109862983Y-93992512D01*
X109790508Y-93866984D01*
X109688015Y-93764491D01*
X109562487Y-93692016D01*
X109562483Y-93692015D01*
X109422478Y-93654500D01*
X109422475Y-93654500D01*
X109277525Y-93654500D01*
X109277522Y-93654500D01*
X109137516Y-93692015D01*
X109137512Y-93692016D01*
X109011984Y-93764491D01*
X109011984Y-93764492D01*
X108909492Y-93866984D01*
X108909491Y-93866984D01*
X108837016Y-93992512D01*
X108837015Y-93992516D01*
X108799500Y-94132522D01*
X93000500Y-94132522D01*
X93000500Y-87260095D01*
X95049500Y-87260095D01*
X95049500Y-88979894D01*
X95049501Y-88979898D01*
X95055331Y-89009213D01*
X95055331Y-89009214D01*
X95055332Y-89009215D01*
X95055332Y-89009216D01*
X95077542Y-89042456D01*
X95077543Y-89042457D01*
X95110787Y-89064669D01*
X95140101Y-89070500D01*
X96859898Y-89070499D01*
X96889213Y-89064669D01*
X96922457Y-89042457D01*
X96944669Y-89009213D01*
X96950500Y-88979899D01*
X96950499Y-87260102D01*
X96944669Y-87230787D01*
X96944667Y-87230784D01*
X96944667Y-87230783D01*
X96922457Y-87197543D01*
X96889212Y-87175330D01*
X96859901Y-87169500D01*
X95140105Y-87169500D01*
X95140104Y-87169500D01*
X95140102Y-87169501D01*
X95110787Y-87175331D01*
X95110786Y-87175331D01*
X95110784Y-87175332D01*
X95110783Y-87175332D01*
X95077543Y-87197542D01*
X95055330Y-87230786D01*
X95055330Y-87230787D01*
X95049500Y-87260095D01*
X93000500Y-87260095D01*
X93000500Y-85486384D01*
X95049500Y-85486384D01*
X95049500Y-85673616D01*
X95067654Y-85764882D01*
X95086026Y-85857248D01*
X95086029Y-85857258D01*
X95157675Y-86030225D01*
X95157676Y-86030227D01*
X95157678Y-86030231D01*
X95261698Y-86185908D01*
X95394092Y-86318302D01*
X95549769Y-86422322D01*
X95568863Y-86430231D01*
X95722741Y-86493970D01*
X95722743Y-86493970D01*
X95722749Y-86493973D01*
X95906384Y-86530500D01*
X95906387Y-86530500D01*
X96093613Y-86530500D01*
X96093616Y-86530500D01*
X96277251Y-86493973D01*
X96450231Y-86422322D01*
X96605908Y-86318302D01*
X96738302Y-86185908D01*
X96842322Y-86030231D01*
X96913973Y-85857251D01*
X96950500Y-85673616D01*
X96950500Y-85486384D01*
X96913973Y-85302749D01*
X96842322Y-85129769D01*
X96738302Y-84974092D01*
X96605908Y-84841698D01*
X96450231Y-84737678D01*
X96450227Y-84737676D01*
X96450225Y-84737675D01*
X96277258Y-84666029D01*
X96277248Y-84666026D01*
X96203194Y-84651296D01*
X96093616Y-84629500D01*
X95906384Y-84629500D01*
X95814986Y-84647680D01*
X95722751Y-84666026D01*
X95722741Y-84666029D01*
X95549774Y-84737675D01*
X95549770Y-84737677D01*
X95549769Y-84737678D01*
X95510195Y-84764120D01*
X95394092Y-84841697D01*
X95261697Y-84974092D01*
X95157675Y-85129774D01*
X95086029Y-85302741D01*
X95086026Y-85302751D01*
X95071836Y-85374092D01*
X95049500Y-85486384D01*
X93000500Y-85486384D01*
X93000500Y-80406384D01*
X95049500Y-80406384D01*
X95049500Y-80593616D01*
X95073740Y-80715479D01*
X95086026Y-80777248D01*
X95086029Y-80777258D01*
X95157675Y-80950225D01*
X95157676Y-80950227D01*
X95157678Y-80950231D01*
X95261698Y-81105908D01*
X95394092Y-81238302D01*
X95549769Y-81342322D01*
X95568863Y-81350231D01*
X95722741Y-81413970D01*
X95722743Y-81413970D01*
X95722749Y-81413973D01*
X95906384Y-81450500D01*
X95906387Y-81450500D01*
X96093613Y-81450500D01*
X96093616Y-81450500D01*
X96277251Y-81413973D01*
X96450231Y-81342322D01*
X96605908Y-81238302D01*
X96738302Y-81105908D01*
X96842322Y-80950231D01*
X96913973Y-80777251D01*
X96950500Y-80593616D01*
X96950500Y-80406384D01*
X96913973Y-80222749D01*
X96842322Y-80049769D01*
X96792863Y-79975748D01*
X96785548Y-79938969D01*
X96798956Y-79913882D01*
X99127588Y-77585251D01*
X99144320Y-77544855D01*
X99150500Y-77529936D01*
X99150500Y-69082635D01*
X99164852Y-69047987D01*
X99265852Y-68946987D01*
X99300500Y-68932635D01*
X99335148Y-68946987D01*
X99349500Y-68981635D01*
X99349500Y-79457363D01*
X99335148Y-79492011D01*
X96586118Y-82241040D01*
X96551470Y-82255392D01*
X96524248Y-82247134D01*
X96450231Y-82197678D01*
X96277256Y-82126029D01*
X96277254Y-82126028D01*
X96277248Y-82126026D01*
X96203194Y-82111296D01*
X96093616Y-82089500D01*
X95906384Y-82089500D01*
X95814986Y-82107680D01*
X95722751Y-82126026D01*
X95722741Y-82126029D01*
X95549774Y-82197675D01*
X95549770Y-82197677D01*
X95549769Y-82197678D01*
X95510195Y-82224120D01*
X95394092Y-82301697D01*
X95261697Y-82434092D01*
X95157675Y-82589774D01*
X95086029Y-82762741D01*
X95086026Y-82762751D01*
X95071836Y-82834092D01*
X95049500Y-82946384D01*
X95049500Y-83133616D01*
X95073740Y-83255479D01*
X95086026Y-83317248D01*
X95086029Y-83317258D01*
X95157675Y-83490225D01*
X95157676Y-83490227D01*
X95157678Y-83490231D01*
X95261698Y-83645908D01*
X95394092Y-83778302D01*
X95549769Y-83882322D01*
X95568863Y-83890231D01*
X95722741Y-83953970D01*
X95722743Y-83953970D01*
X95722749Y-83953973D01*
X95906384Y-83990500D01*
X95906387Y-83990500D01*
X96093613Y-83990500D01*
X96093616Y-83990500D01*
X96277251Y-83953973D01*
X96450231Y-83882322D01*
X96605908Y-83778302D01*
X96738302Y-83645908D01*
X96842322Y-83490231D01*
X96913973Y-83317251D01*
X96950500Y-83133616D01*
X96950500Y-82946384D01*
X96913973Y-82762749D01*
X96842322Y-82589769D01*
X96792863Y-82515748D01*
X96785548Y-82478969D01*
X96798956Y-82453882D01*
X99627587Y-79625252D01*
X99636113Y-79604669D01*
X99650500Y-79569936D01*
X99650500Y-77800095D01*
X100539500Y-77800095D01*
X100539500Y-79519894D01*
X100539501Y-79519898D01*
X100545331Y-79549213D01*
X100545331Y-79549214D01*
X100545332Y-79549215D01*
X100545332Y-79549216D01*
X100567542Y-79582456D01*
X100600786Y-79604669D01*
X100600787Y-79604669D01*
X100630101Y-79610500D01*
X102349898Y-79610499D01*
X102379213Y-79604669D01*
X102412457Y-79582457D01*
X102434669Y-79549213D01*
X102440500Y-79519899D01*
X102440499Y-77800102D01*
X102434669Y-77770787D01*
X102434667Y-77770784D01*
X102434667Y-77770783D01*
X102412457Y-77737543D01*
X102379212Y-77715330D01*
X102349901Y-77709500D01*
X100630105Y-77709500D01*
X100630104Y-77709500D01*
X100630102Y-77709501D01*
X100600787Y-77715331D01*
X100600786Y-77715331D01*
X100600784Y-77715332D01*
X100600783Y-77715332D01*
X100567543Y-77737542D01*
X100545330Y-77770786D01*
X100545330Y-77770787D01*
X100539500Y-77800095D01*
X99650500Y-77800095D01*
X99650500Y-76026384D01*
X100539500Y-76026384D01*
X100539500Y-76213616D01*
X100563440Y-76333970D01*
X100576026Y-76397248D01*
X100576029Y-76397258D01*
X100647675Y-76570225D01*
X100647676Y-76570227D01*
X100647678Y-76570231D01*
X100751698Y-76725908D01*
X100884092Y-76858302D01*
X101039769Y-76962322D01*
X101039774Y-76962324D01*
X101212741Y-77033970D01*
X101212743Y-77033970D01*
X101212749Y-77033973D01*
X101396384Y-77070500D01*
X101396387Y-77070500D01*
X101583613Y-77070500D01*
X101583616Y-77070500D01*
X101767251Y-77033973D01*
X101940231Y-76962322D01*
X102095908Y-76858302D01*
X102228302Y-76725908D01*
X102332322Y-76570231D01*
X102403973Y-76397251D01*
X102440500Y-76213616D01*
X102440500Y-76026384D01*
X102403973Y-75842749D01*
X102332322Y-75669769D01*
X102228302Y-75514092D01*
X102095908Y-75381698D01*
X102078062Y-75369774D01*
X102013129Y-75326387D01*
X101940231Y-75277678D01*
X101940227Y-75277676D01*
X101940225Y-75277675D01*
X101767258Y-75206029D01*
X101767248Y-75206026D01*
X101692549Y-75191168D01*
X101583616Y-75169500D01*
X101396384Y-75169500D01*
X101304986Y-75187680D01*
X101212751Y-75206026D01*
X101212741Y-75206029D01*
X101039774Y-75277675D01*
X101039770Y-75277677D01*
X101039769Y-75277678D01*
X101000195Y-75304120D01*
X100884092Y-75381697D01*
X100751697Y-75514092D01*
X100647675Y-75669774D01*
X100576029Y-75842741D01*
X100576026Y-75842751D01*
X100561931Y-75913616D01*
X100539500Y-76026384D01*
X99650500Y-76026384D01*
X99650500Y-73486384D01*
X100539500Y-73486384D01*
X100539500Y-73673616D01*
X100563440Y-73793970D01*
X100576026Y-73857248D01*
X100576029Y-73857258D01*
X100647675Y-74030225D01*
X100647676Y-74030227D01*
X100647678Y-74030231D01*
X100751698Y-74185908D01*
X100884092Y-74318302D01*
X101039769Y-74422322D01*
X101039774Y-74422324D01*
X101212741Y-74493970D01*
X101212743Y-74493970D01*
X101212749Y-74493973D01*
X101396384Y-74530500D01*
X101396387Y-74530500D01*
X101583613Y-74530500D01*
X101583616Y-74530500D01*
X101767251Y-74493973D01*
X101940231Y-74422322D01*
X102095908Y-74318302D01*
X102228302Y-74185908D01*
X102332322Y-74030231D01*
X102403973Y-73857251D01*
X102440500Y-73673616D01*
X102440500Y-73486384D01*
X102403973Y-73302749D01*
X102387940Y-73264043D01*
X102332324Y-73129774D01*
X102332322Y-73129769D01*
X102228302Y-72974092D01*
X102095908Y-72841698D01*
X102078062Y-72829774D01*
X102013129Y-72786387D01*
X101940231Y-72737678D01*
X101940227Y-72737676D01*
X101940225Y-72737675D01*
X101767258Y-72666029D01*
X101767248Y-72666026D01*
X101693194Y-72651296D01*
X101583616Y-72629500D01*
X101396384Y-72629500D01*
X101304986Y-72647680D01*
X101212751Y-72666026D01*
X101212741Y-72666029D01*
X101039774Y-72737675D01*
X101039770Y-72737677D01*
X101039769Y-72737678D01*
X101000195Y-72764120D01*
X100884092Y-72841697D01*
X100751697Y-72974092D01*
X100647675Y-73129774D01*
X100576029Y-73302741D01*
X100576026Y-73302751D01*
X100561931Y-73373616D01*
X100539500Y-73486384D01*
X99650500Y-73486384D01*
X99650500Y-70946384D01*
X100539500Y-70946384D01*
X100539500Y-71133616D01*
X100563440Y-71253970D01*
X100576026Y-71317248D01*
X100576029Y-71317258D01*
X100647675Y-71490225D01*
X100647676Y-71490227D01*
X100647678Y-71490231D01*
X100751698Y-71645908D01*
X100884092Y-71778302D01*
X101039769Y-71882322D01*
X101039774Y-71882324D01*
X101212741Y-71953970D01*
X101212743Y-71953970D01*
X101212749Y-71953973D01*
X101396384Y-71990500D01*
X101396387Y-71990500D01*
X101583613Y-71990500D01*
X101583616Y-71990500D01*
X101767251Y-71953973D01*
X101940231Y-71882322D01*
X102095908Y-71778302D01*
X102228302Y-71645908D01*
X102332322Y-71490231D01*
X102403973Y-71317251D01*
X102440500Y-71133616D01*
X102440500Y-70946384D01*
X102403973Y-70762749D01*
X102332322Y-70589769D01*
X102228302Y-70434092D01*
X102095908Y-70301698D01*
X102078062Y-70289774D01*
X102013129Y-70246387D01*
X101940231Y-70197678D01*
X101940227Y-70197676D01*
X101940225Y-70197675D01*
X101767258Y-70126029D01*
X101767248Y-70126026D01*
X101693194Y-70111296D01*
X101583616Y-70089500D01*
X101396384Y-70089500D01*
X101304986Y-70107680D01*
X101212751Y-70126026D01*
X101212741Y-70126029D01*
X101039774Y-70197675D01*
X101039770Y-70197677D01*
X101039769Y-70197678D01*
X101000195Y-70224120D01*
X100884092Y-70301697D01*
X100751697Y-70434092D01*
X100647675Y-70589774D01*
X100576029Y-70762741D01*
X100576026Y-70762751D01*
X100561931Y-70833616D01*
X100539500Y-70946384D01*
X99650500Y-70946384D01*
X99650500Y-68882636D01*
X99664852Y-68847988D01*
X100140578Y-68372262D01*
X100667628Y-67845211D01*
X100702275Y-67830860D01*
X100736923Y-67845212D01*
X100751275Y-67879860D01*
X100743017Y-67907083D01*
X100647675Y-68049773D01*
X100647675Y-68049774D01*
X100576029Y-68222741D01*
X100576026Y-68222751D01*
X100561931Y-68293616D01*
X100539500Y-68406384D01*
X100539500Y-68593616D01*
X100558905Y-68691170D01*
X100576026Y-68777248D01*
X100576029Y-68777258D01*
X100647675Y-68950225D01*
X100647676Y-68950227D01*
X100647678Y-68950231D01*
X100722586Y-69062339D01*
X100745921Y-69097263D01*
X100751698Y-69105908D01*
X100884092Y-69238302D01*
X101039769Y-69342322D01*
X101039774Y-69342324D01*
X101212741Y-69413970D01*
X101212743Y-69413970D01*
X101212749Y-69413973D01*
X101396384Y-69450500D01*
X101396387Y-69450500D01*
X101583613Y-69450500D01*
X101583616Y-69450500D01*
X101767251Y-69413973D01*
X101940231Y-69342322D01*
X102095908Y-69238302D01*
X102228302Y-69105908D01*
X102332322Y-68950231D01*
X102403973Y-68777251D01*
X102440500Y-68593616D01*
X102440500Y-68406384D01*
X102403973Y-68222749D01*
X102375518Y-68154054D01*
X102332324Y-68049774D01*
X102332322Y-68049769D01*
X102228302Y-67894092D01*
X102095908Y-67761698D01*
X102093865Y-67760333D01*
X102013129Y-67706387D01*
X101940231Y-67657678D01*
X101940227Y-67657676D01*
X101940225Y-67657675D01*
X101767258Y-67586029D01*
X101767248Y-67586026D01*
X101693194Y-67571296D01*
X101583616Y-67549500D01*
X101396384Y-67549500D01*
X101304986Y-67567680D01*
X101212751Y-67586026D01*
X101212741Y-67586029D01*
X101039774Y-67657675D01*
X101039773Y-67657675D01*
X100897083Y-67753017D01*
X100860300Y-67760333D01*
X100829118Y-67739498D01*
X100821802Y-67702715D01*
X100835210Y-67677629D01*
X113813501Y-54699338D01*
X113848148Y-54684987D01*
X113867204Y-54690772D01*
X113867805Y-54689323D01*
X113872263Y-54691169D01*
X113872264Y-54691170D01*
X113955145Y-54725500D01*
X113955147Y-54725500D01*
X114044853Y-54725500D01*
X114044855Y-54725500D01*
X114127736Y-54691170D01*
X114127737Y-54691168D01*
X114127739Y-54691168D01*
X114191168Y-54627739D01*
X114191168Y-54627737D01*
X114191170Y-54627736D01*
X114205230Y-54593792D01*
X114231748Y-54567273D01*
X114269251Y-54567273D01*
X114295770Y-54593791D01*
X114299500Y-54612543D01*
X114299500Y-55896654D01*
X114285148Y-55931302D01*
X104886426Y-65330024D01*
X104862838Y-65353612D01*
X104830024Y-65386425D01*
X104799500Y-65460116D01*
X104799500Y-65460118D01*
X104799500Y-85685118D01*
X104799500Y-85764882D01*
X104830024Y-85838574D01*
X104830025Y-85838575D01*
X104830025Y-85838576D01*
X112432302Y-93440852D01*
X112446654Y-93475500D01*
X112432302Y-93510148D01*
X112397654Y-93524500D01*
X112340688Y-93524500D01*
X112226115Y-93555200D01*
X112226112Y-93555201D01*
X112123386Y-93614511D01*
X112123386Y-93614512D01*
X112039513Y-93698384D01*
X112017435Y-93736624D01*
X111987681Y-93759454D01*
X111950499Y-93754558D01*
X111932565Y-93736624D01*
X111910489Y-93698387D01*
X111826613Y-93614511D01*
X111723887Y-93555201D01*
X111723884Y-93555200D01*
X111609312Y-93524500D01*
X111609309Y-93524500D01*
X111490691Y-93524500D01*
X111490688Y-93524500D01*
X111376115Y-93555200D01*
X111376112Y-93555201D01*
X111273386Y-93614511D01*
X111273386Y-93614512D01*
X111189513Y-93698384D01*
X111167435Y-93736624D01*
X111137681Y-93759454D01*
X111100499Y-93754558D01*
X111082565Y-93736624D01*
X111060489Y-93698387D01*
X110976613Y-93614511D01*
X110873887Y-93555201D01*
X110873884Y-93555200D01*
X110759312Y-93524500D01*
X110759309Y-93524500D01*
X110640691Y-93524500D01*
X110640688Y-93524500D01*
X110526115Y-93555200D01*
X110526112Y-93555201D01*
X110423386Y-93614511D01*
X110423386Y-93614512D01*
X110339512Y-93698386D01*
X110339511Y-93698386D01*
X110280201Y-93801112D01*
X110280200Y-93801115D01*
X110249500Y-93915688D01*
X110249500Y-94034311D01*
X110280200Y-94148884D01*
X110280201Y-94148887D01*
X110339511Y-94251613D01*
X110423387Y-94335489D01*
X110526114Y-94394799D01*
X110554758Y-94402474D01*
X110640688Y-94425500D01*
X110640691Y-94425500D01*
X110759311Y-94425500D01*
X110823112Y-94408404D01*
X110873886Y-94394799D01*
X110976613Y-94335489D01*
X111060489Y-94251613D01*
X111082565Y-94213375D01*
X111112318Y-94190546D01*
X111149500Y-94195441D01*
X111167434Y-94213375D01*
X111189511Y-94251613D01*
X111273387Y-94335489D01*
X111376114Y-94394799D01*
X111404758Y-94402474D01*
X111490688Y-94425500D01*
X111490691Y-94425500D01*
X111609311Y-94425500D01*
X111673112Y-94408404D01*
X111723886Y-94394799D01*
X111826613Y-94335489D01*
X111910489Y-94251613D01*
X111932565Y-94213375D01*
X111962318Y-94190546D01*
X111999500Y-94195441D01*
X112017434Y-94213375D01*
X112039511Y-94251613D01*
X112123387Y-94335489D01*
X112226114Y-94394799D01*
X112254758Y-94402474D01*
X112340688Y-94425500D01*
X112340691Y-94425500D01*
X112459311Y-94425500D01*
X112523112Y-94408404D01*
X112573886Y-94394799D01*
X112676613Y-94335489D01*
X112760489Y-94251613D01*
X112782565Y-94213375D01*
X112812318Y-94190546D01*
X112849500Y-94195441D01*
X112867434Y-94213375D01*
X112889511Y-94251613D01*
X112973387Y-94335489D01*
X113076114Y-94394799D01*
X113104758Y-94402474D01*
X113190688Y-94425500D01*
X113247653Y-94425500D01*
X113282301Y-94439852D01*
X113296653Y-94474500D01*
X113282300Y-94509148D01*
X113136426Y-94655024D01*
X113108225Y-94683225D01*
X113080024Y-94711425D01*
X113049500Y-94785116D01*
X113049500Y-94892276D01*
X113035148Y-94926924D01*
X113025001Y-94934711D01*
X112973390Y-94964509D01*
X112973383Y-94964514D01*
X112889513Y-95048384D01*
X112889511Y-95048386D01*
X112889511Y-95048387D01*
X112868227Y-95085253D01*
X112867435Y-95086624D01*
X112837681Y-95109454D01*
X112800499Y-95104558D01*
X112782565Y-95086624D01*
X112781774Y-95085254D01*
X112760489Y-95048387D01*
X112676613Y-94964511D01*
X112676603Y-94964505D01*
X112573887Y-94905201D01*
X112573884Y-94905200D01*
X112459312Y-94874500D01*
X112459309Y-94874500D01*
X112340691Y-94874500D01*
X112340688Y-94874500D01*
X112226115Y-94905200D01*
X112226112Y-94905201D01*
X112123386Y-94964511D01*
X112123386Y-94964512D01*
X112039513Y-95048384D01*
X112039511Y-95048386D01*
X112039511Y-95048387D01*
X112018227Y-95085253D01*
X112017435Y-95086624D01*
X111987681Y-95109454D01*
X111950499Y-95104558D01*
X111932565Y-95086624D01*
X111931774Y-95085254D01*
X111910489Y-95048387D01*
X111826613Y-94964511D01*
X111826603Y-94964505D01*
X111723887Y-94905201D01*
X111723884Y-94905200D01*
X111609312Y-94874500D01*
X111609309Y-94874500D01*
X111490691Y-94874500D01*
X111490688Y-94874500D01*
X111376115Y-94905200D01*
X111376112Y-94905201D01*
X111273386Y-94964511D01*
X111273386Y-94964512D01*
X111189513Y-95048384D01*
X111189511Y-95048386D01*
X111189511Y-95048387D01*
X111168227Y-95085253D01*
X111167435Y-95086624D01*
X111137681Y-95109454D01*
X111100499Y-95104558D01*
X111082565Y-95086624D01*
X111081774Y-95085254D01*
X111060489Y-95048387D01*
X110976613Y-94964511D01*
X110976603Y-94964505D01*
X110873887Y-94905201D01*
X110873884Y-94905200D01*
X110759312Y-94874500D01*
X110759309Y-94874500D01*
X110640691Y-94874500D01*
X110640688Y-94874500D01*
X110526115Y-94905200D01*
X110526112Y-94905201D01*
X110423386Y-94964511D01*
X110423386Y-94964512D01*
X110339512Y-95048386D01*
X110339511Y-95048386D01*
X110280201Y-95151112D01*
X110280200Y-95151115D01*
X110249500Y-95265688D01*
X110249500Y-95384311D01*
X110280200Y-95498884D01*
X110280201Y-95498887D01*
X110339511Y-95601613D01*
X110423387Y-95685489D01*
X110498585Y-95728905D01*
X110523796Y-95743461D01*
X110526114Y-95744799D01*
X110545625Y-95750027D01*
X110640688Y-95775500D01*
X110640691Y-95775500D01*
X110759311Y-95775500D01*
X110816597Y-95760149D01*
X110873886Y-95744799D01*
X110976613Y-95685489D01*
X111060489Y-95601613D01*
X111082565Y-95563375D01*
X111112318Y-95540546D01*
X111149500Y-95545441D01*
X111167434Y-95563375D01*
X111189511Y-95601613D01*
X111273387Y-95685489D01*
X111348585Y-95728905D01*
X111373796Y-95743461D01*
X111376114Y-95744799D01*
X111395625Y-95750027D01*
X111490688Y-95775500D01*
X111490691Y-95775500D01*
X111609311Y-95775500D01*
X111722644Y-95745132D01*
X111759826Y-95750027D01*
X111769973Y-95757813D01*
X112139748Y-96127587D01*
X112155946Y-96134295D01*
X112155949Y-96134298D01*
X112155950Y-96134297D01*
X112195064Y-96150500D01*
X112195065Y-96150500D01*
X115154934Y-96150500D01*
X115154936Y-96150500D01*
X115177848Y-96141009D01*
X115210252Y-96127588D01*
X115580026Y-95757812D01*
X115614673Y-95743461D01*
X115627350Y-95745130D01*
X115695051Y-95763270D01*
X115740689Y-95775500D01*
X115740691Y-95775500D01*
X115859311Y-95775500D01*
X115916597Y-95760149D01*
X115973886Y-95744799D01*
X116076613Y-95685489D01*
X116160489Y-95601613D01*
X116182565Y-95563375D01*
X116212318Y-95540546D01*
X116249500Y-95545441D01*
X116267434Y-95563375D01*
X116289511Y-95601613D01*
X116373387Y-95685489D01*
X116448585Y-95728905D01*
X116473796Y-95743461D01*
X116476114Y-95744799D01*
X116495625Y-95750027D01*
X116590688Y-95775500D01*
X116590691Y-95775500D01*
X116709311Y-95775500D01*
X116766597Y-95760149D01*
X116823886Y-95744799D01*
X116926613Y-95685489D01*
X117010489Y-95601613D01*
X117069799Y-95498886D01*
X117085149Y-95441597D01*
X117100500Y-95384311D01*
X117100500Y-95265688D01*
X117069799Y-95151115D01*
X117069798Y-95151112D01*
X117010488Y-95048386D01*
X116926613Y-94964511D01*
X116823887Y-94905201D01*
X116823884Y-94905200D01*
X116709312Y-94874500D01*
X116709309Y-94874500D01*
X116590691Y-94874500D01*
X116590688Y-94874500D01*
X116476115Y-94905200D01*
X116476112Y-94905201D01*
X116373386Y-94964511D01*
X116373386Y-94964512D01*
X116289513Y-95048384D01*
X116289511Y-95048386D01*
X116289511Y-95048387D01*
X116268227Y-95085253D01*
X116267435Y-95086624D01*
X116237681Y-95109454D01*
X116200499Y-95104558D01*
X116182565Y-95086624D01*
X116181774Y-95085254D01*
X116160489Y-95048387D01*
X116076613Y-94964511D01*
X116076603Y-94964505D01*
X115973887Y-94905201D01*
X115973884Y-94905200D01*
X115859312Y-94874500D01*
X115859309Y-94874500D01*
X115740691Y-94874500D01*
X115740688Y-94874500D01*
X115626115Y-94905200D01*
X115626112Y-94905201D01*
X115523386Y-94964511D01*
X115523386Y-94964512D01*
X115439513Y-95048384D01*
X115439511Y-95048386D01*
X115439511Y-95048387D01*
X115418227Y-95085253D01*
X115417435Y-95086624D01*
X115387681Y-95109454D01*
X115350499Y-95104558D01*
X115332565Y-95086624D01*
X115331774Y-95085254D01*
X115310489Y-95048387D01*
X115226613Y-94964511D01*
X115226603Y-94964505D01*
X115123887Y-94905201D01*
X115123884Y-94905200D01*
X115009312Y-94874500D01*
X115009309Y-94874500D01*
X114890691Y-94874500D01*
X114890688Y-94874500D01*
X114776115Y-94905200D01*
X114776112Y-94905201D01*
X114673386Y-94964511D01*
X114673386Y-94964512D01*
X114589513Y-95048384D01*
X114589511Y-95048386D01*
X114589511Y-95048387D01*
X114568227Y-95085253D01*
X114567435Y-95086624D01*
X114537681Y-95109454D01*
X114500499Y-95104558D01*
X114482565Y-95086624D01*
X114481774Y-95085254D01*
X114460489Y-95048387D01*
X114376613Y-94964511D01*
X114376603Y-94964505D01*
X114273887Y-94905201D01*
X114273884Y-94905200D01*
X114159312Y-94874500D01*
X114159309Y-94874500D01*
X114040691Y-94874500D01*
X114040688Y-94874500D01*
X113926115Y-94905200D01*
X113926112Y-94905201D01*
X113823386Y-94964511D01*
X113823386Y-94964512D01*
X113739513Y-95048384D01*
X113739511Y-95048386D01*
X113739511Y-95048387D01*
X113718227Y-95085253D01*
X113717435Y-95086624D01*
X113687681Y-95109454D01*
X113650499Y-95104558D01*
X113632565Y-95086624D01*
X113631774Y-95085254D01*
X113610489Y-95048387D01*
X113526613Y-94964511D01*
X113526608Y-94964508D01*
X113526604Y-94964505D01*
X113497866Y-94947912D01*
X113475036Y-94918159D01*
X113479933Y-94880977D01*
X113487715Y-94870833D01*
X113935793Y-94422755D01*
X113970440Y-94408404D01*
X113983121Y-94410073D01*
X113999428Y-94414443D01*
X114040689Y-94425500D01*
X114040691Y-94425500D01*
X114159311Y-94425500D01*
X114223112Y-94408404D01*
X114273886Y-94394799D01*
X114376613Y-94335489D01*
X114460489Y-94251613D01*
X114482565Y-94213375D01*
X114512318Y-94190546D01*
X114549500Y-94195441D01*
X114567434Y-94213375D01*
X114589511Y-94251613D01*
X114673387Y-94335489D01*
X114776114Y-94394799D01*
X114804758Y-94402474D01*
X114890688Y-94425500D01*
X114890691Y-94425500D01*
X115009311Y-94425500D01*
X115073112Y-94408404D01*
X115123886Y-94394799D01*
X115226613Y-94335489D01*
X115310489Y-94251613D01*
X115332565Y-94213375D01*
X115362318Y-94190546D01*
X115399500Y-94195441D01*
X115417434Y-94213375D01*
X115439511Y-94251613D01*
X115523387Y-94335489D01*
X115626114Y-94394799D01*
X115654758Y-94402474D01*
X115740688Y-94425500D01*
X115740691Y-94425500D01*
X115859311Y-94425500D01*
X115923112Y-94408404D01*
X115973886Y-94394799D01*
X116076613Y-94335489D01*
X116160489Y-94251613D01*
X116182565Y-94213375D01*
X116212318Y-94190546D01*
X116249500Y-94195441D01*
X116267434Y-94213375D01*
X116289511Y-94251613D01*
X116373387Y-94335489D01*
X116476114Y-94394799D01*
X116504758Y-94402474D01*
X116590688Y-94425500D01*
X116590691Y-94425500D01*
X116709311Y-94425500D01*
X116773112Y-94408404D01*
X116823886Y-94394799D01*
X116926613Y-94335489D01*
X117010489Y-94251613D01*
X117069799Y-94148886D01*
X117074184Y-94132522D01*
X117449500Y-94132522D01*
X117449500Y-95777477D01*
X117487015Y-95917483D01*
X117487016Y-95917487D01*
X117559491Y-96043015D01*
X117661985Y-96145509D01*
X117670630Y-96150500D01*
X117787512Y-96217983D01*
X117787514Y-96217983D01*
X117787515Y-96217984D01*
X117822517Y-96227363D01*
X117927522Y-96255500D01*
X117927525Y-96255500D01*
X118072477Y-96255500D01*
X118142480Y-96236742D01*
X118212485Y-96217984D01*
X118338015Y-96145509D01*
X118440509Y-96043015D01*
X118512984Y-95917485D01*
X118540932Y-95813183D01*
X118550500Y-95777477D01*
X118550500Y-94132522D01*
X118512984Y-93992516D01*
X118512983Y-93992512D01*
X118440508Y-93866984D01*
X118338015Y-93764491D01*
X118212487Y-93692016D01*
X118212483Y-93692015D01*
X118072478Y-93654500D01*
X118072475Y-93654500D01*
X117927525Y-93654500D01*
X117927522Y-93654500D01*
X117787516Y-93692015D01*
X117787512Y-93692016D01*
X117661984Y-93764491D01*
X117661984Y-93764492D01*
X117559492Y-93866984D01*
X117559491Y-93866984D01*
X117487016Y-93992512D01*
X117487015Y-93992516D01*
X117449500Y-94132522D01*
X117074184Y-94132522D01*
X117078442Y-94116631D01*
X117100500Y-94034311D01*
X117100500Y-93915688D01*
X117069799Y-93801115D01*
X117069798Y-93801112D01*
X117048655Y-93764492D01*
X117010489Y-93698387D01*
X116926613Y-93614511D01*
X116823887Y-93555201D01*
X116823884Y-93555200D01*
X116709312Y-93524500D01*
X116709309Y-93524500D01*
X116590691Y-93524500D01*
X116590688Y-93524500D01*
X116476115Y-93555200D01*
X116476112Y-93555201D01*
X116373386Y-93614511D01*
X116373386Y-93614512D01*
X116289513Y-93698384D01*
X116267435Y-93736624D01*
X116237681Y-93759454D01*
X116200499Y-93754558D01*
X116182565Y-93736624D01*
X116160489Y-93698387D01*
X116076613Y-93614511D01*
X115973887Y-93555201D01*
X115973884Y-93555200D01*
X115859312Y-93524500D01*
X115859309Y-93524500D01*
X115740691Y-93524500D01*
X115740688Y-93524500D01*
X115626115Y-93555200D01*
X115626112Y-93555201D01*
X115523386Y-93614511D01*
X115523386Y-93614512D01*
X115439513Y-93698384D01*
X115417435Y-93736624D01*
X115387681Y-93759454D01*
X115350499Y-93754558D01*
X115332565Y-93736624D01*
X115310489Y-93698387D01*
X115226613Y-93614511D01*
X115123887Y-93555201D01*
X115123884Y-93555200D01*
X115009312Y-93524500D01*
X115009309Y-93524500D01*
X114890691Y-93524500D01*
X114890688Y-93524500D01*
X114776115Y-93555200D01*
X114776112Y-93555201D01*
X114673386Y-93614511D01*
X114673386Y-93614512D01*
X114589513Y-93698384D01*
X114567435Y-93736624D01*
X114537681Y-93759454D01*
X114500499Y-93754558D01*
X114482565Y-93736624D01*
X114460489Y-93698387D01*
X114376613Y-93614511D01*
X114273887Y-93555201D01*
X114273884Y-93555200D01*
X114159312Y-93524500D01*
X114159309Y-93524500D01*
X114040691Y-93524500D01*
X114040688Y-93524500D01*
X113926115Y-93555200D01*
X113926114Y-93555200D01*
X113903288Y-93568379D01*
X113866106Y-93573273D01*
X113844141Y-93560591D01*
X108709934Y-88426384D01*
X130549500Y-88426384D01*
X130549500Y-88613616D01*
X130573740Y-88735479D01*
X130586026Y-88797248D01*
X130586029Y-88797258D01*
X130657675Y-88970225D01*
X130657676Y-88970227D01*
X130657678Y-88970231D01*
X130761698Y-89125908D01*
X130894092Y-89258302D01*
X131049769Y-89362322D01*
X131049774Y-89362324D01*
X131222741Y-89433970D01*
X131222743Y-89433970D01*
X131222749Y-89433973D01*
X131406384Y-89470500D01*
X131406387Y-89470500D01*
X131593613Y-89470500D01*
X131593616Y-89470500D01*
X131777251Y-89433973D01*
X131950231Y-89362322D01*
X132105908Y-89258302D01*
X132238302Y-89125908D01*
X132342322Y-88970231D01*
X132413973Y-88797251D01*
X132450500Y-88613616D01*
X132450500Y-88426384D01*
X132413973Y-88242749D01*
X132342322Y-88069769D01*
X132238302Y-87914092D01*
X132105908Y-87781698D01*
X131950231Y-87677678D01*
X131950227Y-87677676D01*
X131950225Y-87677675D01*
X131777258Y-87606029D01*
X131777248Y-87606026D01*
X131703194Y-87591296D01*
X131593616Y-87569500D01*
X131406384Y-87569500D01*
X131314986Y-87587680D01*
X131222751Y-87606026D01*
X131222741Y-87606029D01*
X131049774Y-87677675D01*
X131049770Y-87677677D01*
X131049769Y-87677678D01*
X131010195Y-87704120D01*
X130894092Y-87781697D01*
X130761697Y-87914092D01*
X130657675Y-88069774D01*
X130586029Y-88242741D01*
X130586026Y-88242751D01*
X130567680Y-88334986D01*
X130549500Y-88426384D01*
X108709934Y-88426384D01*
X105714852Y-85431302D01*
X105700500Y-85396654D01*
X105700500Y-68612543D01*
X105714852Y-68577895D01*
X105749500Y-68563543D01*
X105784148Y-68577895D01*
X105794770Y-68593792D01*
X105808830Y-68627736D01*
X105808832Y-68627739D01*
X105872261Y-68691168D01*
X105872263Y-68691169D01*
X105872264Y-68691170D01*
X105955145Y-68725500D01*
X105955147Y-68725500D01*
X106044853Y-68725500D01*
X106044855Y-68725500D01*
X106127736Y-68691170D01*
X106127737Y-68691168D01*
X106127739Y-68691168D01*
X106191168Y-68627739D01*
X106191168Y-68627737D01*
X106191170Y-68627736D01*
X106225500Y-68544855D01*
X106225500Y-68507635D01*
X106239852Y-68472987D01*
X106757696Y-67955143D01*
X108274500Y-67955143D01*
X108274500Y-67955145D01*
X108274500Y-68044855D01*
X108274500Y-68044857D01*
X108274501Y-68044858D01*
X108308829Y-68127735D01*
X108308830Y-68127736D01*
X108335148Y-68154054D01*
X108349500Y-68188701D01*
X108349500Y-78529936D01*
X108358990Y-78552848D01*
X108372412Y-78585252D01*
X108372413Y-78585254D01*
X116260148Y-86472987D01*
X116274500Y-86507635D01*
X116274500Y-86544855D01*
X116274500Y-86544857D01*
X116274501Y-86544858D01*
X116308830Y-86627736D01*
X116308832Y-86627739D01*
X116372261Y-86691168D01*
X116372263Y-86691169D01*
X116372264Y-86691170D01*
X116455145Y-86725500D01*
X116455147Y-86725500D01*
X116544853Y-86725500D01*
X116544855Y-86725500D01*
X116627736Y-86691170D01*
X116627737Y-86691168D01*
X116627739Y-86691168D01*
X116691168Y-86627739D01*
X116691168Y-86627737D01*
X116691170Y-86627736D01*
X116725500Y-86544855D01*
X116725500Y-86455145D01*
X116725499Y-86455143D01*
X119774500Y-86455143D01*
X119774500Y-86455145D01*
X119774500Y-86544855D01*
X119774500Y-86544857D01*
X119774501Y-86544858D01*
X119808830Y-86627736D01*
X119808832Y-86627739D01*
X119872261Y-86691168D01*
X119872263Y-86691169D01*
X119872264Y-86691170D01*
X119955145Y-86725500D01*
X119955147Y-86725500D01*
X120044853Y-86725500D01*
X120044855Y-86725500D01*
X120127736Y-86691170D01*
X120127737Y-86691168D01*
X120127739Y-86691168D01*
X120191168Y-86627739D01*
X120191168Y-86627737D01*
X120191170Y-86627736D01*
X120225500Y-86544855D01*
X120225500Y-86507635D01*
X120239852Y-86472987D01*
X120826455Y-85886384D01*
X130549500Y-85886384D01*
X130549500Y-86073616D01*
X130571836Y-86185907D01*
X130586026Y-86257248D01*
X130586029Y-86257258D01*
X130657675Y-86430225D01*
X130657676Y-86430227D01*
X130657678Y-86430231D01*
X130761698Y-86585908D01*
X130894092Y-86718302D01*
X131049769Y-86822322D01*
X131049774Y-86822324D01*
X131222741Y-86893970D01*
X131222743Y-86893970D01*
X131222749Y-86893973D01*
X131406384Y-86930500D01*
X131406387Y-86930500D01*
X131593613Y-86930500D01*
X131593616Y-86930500D01*
X131777251Y-86893973D01*
X131950231Y-86822322D01*
X132105908Y-86718302D01*
X132238302Y-86585908D01*
X132342322Y-86430231D01*
X132413973Y-86257251D01*
X132450500Y-86073616D01*
X132450500Y-85886384D01*
X132413973Y-85702749D01*
X132342322Y-85529769D01*
X132238302Y-85374092D01*
X132105908Y-85241698D01*
X131950231Y-85137678D01*
X131950227Y-85137676D01*
X131950225Y-85137675D01*
X131777258Y-85066029D01*
X131777248Y-85066026D01*
X131703194Y-85051296D01*
X131593616Y-85029500D01*
X131406384Y-85029500D01*
X131314986Y-85047680D01*
X131222751Y-85066026D01*
X131222741Y-85066029D01*
X131049774Y-85137675D01*
X131049770Y-85137677D01*
X131049769Y-85137678D01*
X131010195Y-85164120D01*
X130894092Y-85241697D01*
X130761697Y-85374092D01*
X130657675Y-85529774D01*
X130586029Y-85702741D01*
X130586026Y-85702751D01*
X130573668Y-85764882D01*
X130549500Y-85886384D01*
X120826455Y-85886384D01*
X123366455Y-83346384D01*
X130549500Y-83346384D01*
X130549500Y-83533616D01*
X130571836Y-83645907D01*
X130586026Y-83717248D01*
X130586029Y-83717258D01*
X130657675Y-83890225D01*
X130657676Y-83890227D01*
X130657678Y-83890231D01*
X130761698Y-84045908D01*
X130894092Y-84178302D01*
X131049769Y-84282322D01*
X131049774Y-84282324D01*
X131222741Y-84353970D01*
X131222743Y-84353970D01*
X131222749Y-84353973D01*
X131406384Y-84390500D01*
X131406387Y-84390500D01*
X131593613Y-84390500D01*
X131593616Y-84390500D01*
X131777251Y-84353973D01*
X131950231Y-84282322D01*
X132105908Y-84178302D01*
X132238302Y-84045908D01*
X132342322Y-83890231D01*
X132413973Y-83717251D01*
X132450500Y-83533616D01*
X132450500Y-83346384D01*
X132413973Y-83162749D01*
X132342322Y-82989769D01*
X132238302Y-82834092D01*
X132105908Y-82701698D01*
X131950231Y-82597678D01*
X131950227Y-82597676D01*
X131950225Y-82597675D01*
X131777258Y-82526029D01*
X131777248Y-82526026D01*
X131703194Y-82511296D01*
X131593616Y-82489500D01*
X131406384Y-82489500D01*
X131314986Y-82507680D01*
X131222751Y-82526026D01*
X131222741Y-82526029D01*
X131049774Y-82597675D01*
X131049770Y-82597677D01*
X131049769Y-82597678D01*
X131010195Y-82624120D01*
X130894092Y-82701697D01*
X130761697Y-82834092D01*
X130657675Y-82989774D01*
X130586029Y-83162741D01*
X130586026Y-83162751D01*
X130567680Y-83254986D01*
X130549500Y-83346384D01*
X123366455Y-83346384D01*
X125906455Y-80806384D01*
X130549500Y-80806384D01*
X130549500Y-80993616D01*
X130571836Y-81105907D01*
X130586026Y-81177248D01*
X130586029Y-81177258D01*
X130657675Y-81350225D01*
X130657676Y-81350227D01*
X130657678Y-81350231D01*
X130761698Y-81505908D01*
X130894092Y-81638302D01*
X131049769Y-81742322D01*
X131049774Y-81742324D01*
X131222741Y-81813970D01*
X131222743Y-81813970D01*
X131222749Y-81813973D01*
X131406384Y-81850500D01*
X131406387Y-81850500D01*
X131593613Y-81850500D01*
X131593616Y-81850500D01*
X131777251Y-81813973D01*
X131950231Y-81742322D01*
X132105908Y-81638302D01*
X132238302Y-81505908D01*
X132342322Y-81350231D01*
X132413973Y-81177251D01*
X132450500Y-80993616D01*
X132450500Y-80806384D01*
X132413973Y-80622749D01*
X132398440Y-80585250D01*
X132342324Y-80449774D01*
X132342322Y-80449769D01*
X132238302Y-80294092D01*
X132105908Y-80161698D01*
X131950231Y-80057678D01*
X131950227Y-80057676D01*
X131950225Y-80057675D01*
X131777258Y-79986029D01*
X131777248Y-79986026D01*
X131703194Y-79971296D01*
X131593616Y-79949500D01*
X131406384Y-79949500D01*
X131314986Y-79967680D01*
X131222751Y-79986026D01*
X131222741Y-79986029D01*
X131049774Y-80057675D01*
X131049770Y-80057677D01*
X131049769Y-80057678D01*
X131010195Y-80084120D01*
X130894092Y-80161697D01*
X130761697Y-80294092D01*
X130657675Y-80449774D01*
X130586029Y-80622741D01*
X130586026Y-80622751D01*
X130567680Y-80714986D01*
X130549500Y-80806384D01*
X125906455Y-80806384D01*
X125943510Y-80769329D01*
X126127587Y-80585252D01*
X126134297Y-80569049D01*
X126150500Y-80529936D01*
X126150500Y-79470064D01*
X126150500Y-78266384D01*
X130549500Y-78266384D01*
X130549500Y-78453616D01*
X130564681Y-78529936D01*
X130586026Y-78637248D01*
X130586029Y-78637258D01*
X130657675Y-78810225D01*
X130657676Y-78810227D01*
X130657678Y-78810231D01*
X130761698Y-78965908D01*
X130894092Y-79098302D01*
X131049769Y-79202322D01*
X131049774Y-79202324D01*
X131222741Y-79273970D01*
X131222743Y-79273970D01*
X131222749Y-79273973D01*
X131406384Y-79310500D01*
X131406387Y-79310500D01*
X131593613Y-79310500D01*
X131593616Y-79310500D01*
X131777251Y-79273973D01*
X131950231Y-79202322D01*
X132105908Y-79098302D01*
X132238302Y-78965908D01*
X132342322Y-78810231D01*
X132413973Y-78637251D01*
X132450500Y-78453616D01*
X132450500Y-78266384D01*
X132413973Y-78082749D01*
X132342322Y-77909769D01*
X132238302Y-77754092D01*
X132105908Y-77621698D01*
X131950231Y-77517678D01*
X131950227Y-77517676D01*
X131950225Y-77517675D01*
X131777258Y-77446029D01*
X131777248Y-77446026D01*
X131703194Y-77431296D01*
X131593616Y-77409500D01*
X131406384Y-77409500D01*
X131314986Y-77427680D01*
X131222751Y-77446026D01*
X131222741Y-77446029D01*
X131049774Y-77517675D01*
X131049770Y-77517677D01*
X131049769Y-77517678D01*
X131031428Y-77529933D01*
X130894092Y-77621697D01*
X130761697Y-77754092D01*
X130657675Y-77909774D01*
X130586029Y-78082741D01*
X130586026Y-78082751D01*
X130567680Y-78174986D01*
X130549500Y-78266384D01*
X126150500Y-78266384D01*
X126150500Y-75726384D01*
X130549500Y-75726384D01*
X130549500Y-75913616D01*
X130571836Y-76025907D01*
X130586026Y-76097248D01*
X130586029Y-76097258D01*
X130657675Y-76270225D01*
X130657676Y-76270227D01*
X130657678Y-76270231D01*
X130761698Y-76425908D01*
X130894092Y-76558302D01*
X131049769Y-76662322D01*
X131049774Y-76662324D01*
X131222741Y-76733970D01*
X131222743Y-76733970D01*
X131222749Y-76733973D01*
X131406384Y-76770500D01*
X131406387Y-76770500D01*
X131593613Y-76770500D01*
X131593616Y-76770500D01*
X131777251Y-76733973D01*
X131950231Y-76662322D01*
X132105908Y-76558302D01*
X132238302Y-76425908D01*
X132342322Y-76270231D01*
X132413973Y-76097251D01*
X132450500Y-75913616D01*
X132450500Y-75726384D01*
X132413973Y-75542749D01*
X132342322Y-75369769D01*
X132238302Y-75214092D01*
X132105908Y-75081698D01*
X131950231Y-74977678D01*
X131950227Y-74977676D01*
X131950225Y-74977675D01*
X131777258Y-74906029D01*
X131777248Y-74906026D01*
X131703194Y-74891296D01*
X131593616Y-74869500D01*
X131406384Y-74869500D01*
X131314986Y-74887680D01*
X131222751Y-74906026D01*
X131222741Y-74906029D01*
X131049774Y-74977675D01*
X131049770Y-74977677D01*
X131049769Y-74977678D01*
X131027790Y-74992364D01*
X130894092Y-75081697D01*
X130761697Y-75214092D01*
X130657675Y-75369774D01*
X130586029Y-75542741D01*
X130586026Y-75542751D01*
X130567680Y-75634986D01*
X130549500Y-75726384D01*
X126150500Y-75726384D01*
X126150500Y-73186384D01*
X130549500Y-73186384D01*
X130549500Y-73373616D01*
X130571836Y-73485907D01*
X130586026Y-73557248D01*
X130586029Y-73557258D01*
X130657675Y-73730225D01*
X130657676Y-73730227D01*
X130657678Y-73730231D01*
X130761698Y-73885908D01*
X130894092Y-74018302D01*
X131049769Y-74122322D01*
X131049774Y-74122324D01*
X131222741Y-74193970D01*
X131222743Y-74193970D01*
X131222749Y-74193973D01*
X131406384Y-74230500D01*
X131406387Y-74230500D01*
X131593613Y-74230500D01*
X131593616Y-74230500D01*
X131777251Y-74193973D01*
X131950231Y-74122322D01*
X132105908Y-74018302D01*
X132238302Y-73885908D01*
X132342322Y-73730231D01*
X132413973Y-73557251D01*
X132450500Y-73373616D01*
X132450500Y-73186384D01*
X132413973Y-73002749D01*
X132342322Y-72829769D01*
X132238302Y-72674092D01*
X132105908Y-72541698D01*
X131950231Y-72437678D01*
X131950227Y-72437676D01*
X131950225Y-72437675D01*
X131777258Y-72366029D01*
X131777248Y-72366026D01*
X131703194Y-72351296D01*
X131593616Y-72329500D01*
X131406384Y-72329500D01*
X131314986Y-72347680D01*
X131222751Y-72366026D01*
X131222741Y-72366029D01*
X131049774Y-72437675D01*
X131049770Y-72437677D01*
X131049769Y-72437678D01*
X131010195Y-72464120D01*
X130894092Y-72541697D01*
X130761697Y-72674092D01*
X130657675Y-72829774D01*
X130586029Y-73002741D01*
X130586026Y-73002751D01*
X130570633Y-73080141D01*
X130549500Y-73186384D01*
X126150500Y-73186384D01*
X126150500Y-70646384D01*
X130549500Y-70646384D01*
X130549500Y-70833616D01*
X130571836Y-70945907D01*
X130586026Y-71017248D01*
X130586029Y-71017258D01*
X130657675Y-71190225D01*
X130657676Y-71190227D01*
X130657678Y-71190231D01*
X130761698Y-71345908D01*
X130894092Y-71478302D01*
X131049769Y-71582322D01*
X131049774Y-71582324D01*
X131222741Y-71653970D01*
X131222743Y-71653970D01*
X131222749Y-71653973D01*
X131406384Y-71690500D01*
X131406387Y-71690500D01*
X131593613Y-71690500D01*
X131593616Y-71690500D01*
X131777251Y-71653973D01*
X131950231Y-71582322D01*
X132105908Y-71478302D01*
X132238302Y-71345908D01*
X132342322Y-71190231D01*
X132413973Y-71017251D01*
X132450500Y-70833616D01*
X132450500Y-70646384D01*
X132413973Y-70462749D01*
X132342322Y-70289769D01*
X132238302Y-70134092D01*
X132105908Y-70001698D01*
X131950231Y-69897678D01*
X131950227Y-69897676D01*
X131950225Y-69897675D01*
X131777258Y-69826029D01*
X131777248Y-69826026D01*
X131703194Y-69811296D01*
X131593616Y-69789500D01*
X131406384Y-69789500D01*
X131314986Y-69807680D01*
X131222751Y-69826026D01*
X131222741Y-69826029D01*
X131049774Y-69897675D01*
X131049770Y-69897677D01*
X131049769Y-69897678D01*
X131024222Y-69914748D01*
X130894092Y-70001697D01*
X130761697Y-70134092D01*
X130657675Y-70289774D01*
X130586029Y-70462741D01*
X130586026Y-70462751D01*
X130567680Y-70554986D01*
X130549500Y-70646384D01*
X126150500Y-70646384D01*
X126150500Y-69970064D01*
X126134297Y-69930950D01*
X126127587Y-69914748D01*
X124319223Y-68106384D01*
X130549500Y-68106384D01*
X130549500Y-68293616D01*
X130554720Y-68319858D01*
X130586026Y-68477248D01*
X130586029Y-68477258D01*
X130657675Y-68650225D01*
X130657676Y-68650227D01*
X130657678Y-68650231D01*
X130761698Y-68805908D01*
X130894092Y-68938302D01*
X131049769Y-69042322D01*
X131081723Y-69055557D01*
X131222741Y-69113970D01*
X131222743Y-69113970D01*
X131222749Y-69113973D01*
X131406384Y-69150500D01*
X131406387Y-69150500D01*
X131593613Y-69150500D01*
X131593616Y-69150500D01*
X131777251Y-69113973D01*
X131950231Y-69042322D01*
X132105908Y-68938302D01*
X132238302Y-68805908D01*
X132342322Y-68650231D01*
X132413973Y-68477251D01*
X132450500Y-68293616D01*
X132450500Y-68106384D01*
X132413973Y-67922749D01*
X132393061Y-67872264D01*
X132342324Y-67749774D01*
X132342322Y-67749769D01*
X132238302Y-67594092D01*
X132105908Y-67461698D01*
X131950231Y-67357678D01*
X131950227Y-67357676D01*
X131950225Y-67357675D01*
X131777258Y-67286029D01*
X131777248Y-67286026D01*
X131703194Y-67271296D01*
X131593616Y-67249500D01*
X131406384Y-67249500D01*
X131314986Y-67267680D01*
X131222751Y-67286026D01*
X131222741Y-67286029D01*
X131049774Y-67357675D01*
X131049770Y-67357677D01*
X131049769Y-67357678D01*
X131010195Y-67384120D01*
X130894092Y-67461697D01*
X130761697Y-67594092D01*
X130657675Y-67749774D01*
X130586029Y-67922741D01*
X130586026Y-67922751D01*
X130567680Y-68014986D01*
X130549500Y-68106384D01*
X124319223Y-68106384D01*
X122239852Y-66027012D01*
X122225500Y-65992364D01*
X122225500Y-65955147D01*
X122225500Y-65955145D01*
X122191170Y-65872264D01*
X122191169Y-65872263D01*
X122191168Y-65872261D01*
X122127739Y-65808832D01*
X122127736Y-65808830D01*
X122044858Y-65774501D01*
X122044856Y-65774500D01*
X122044855Y-65774500D01*
X121955145Y-65774500D01*
X121955143Y-65774500D01*
X121955141Y-65774501D01*
X121872263Y-65808830D01*
X121808830Y-65872263D01*
X121774501Y-65955141D01*
X121774500Y-65955143D01*
X121774500Y-65955145D01*
X121774500Y-66044855D01*
X121774500Y-66044857D01*
X121774501Y-66044858D01*
X121808830Y-66127736D01*
X121808832Y-66127739D01*
X121872261Y-66191168D01*
X121872263Y-66191169D01*
X121872264Y-66191170D01*
X121955145Y-66225500D01*
X121992364Y-66225500D01*
X122027012Y-66239852D01*
X125835148Y-70047987D01*
X125849500Y-70082635D01*
X125849500Y-80417364D01*
X125835148Y-80452012D01*
X120027012Y-86260148D01*
X119992364Y-86274500D01*
X119955145Y-86274500D01*
X119955143Y-86274500D01*
X119955141Y-86274501D01*
X119872263Y-86308830D01*
X119808830Y-86372263D01*
X119774501Y-86455141D01*
X119774500Y-86455143D01*
X116725499Y-86455143D01*
X116691170Y-86372264D01*
X116691169Y-86372263D01*
X116691168Y-86372261D01*
X116627739Y-86308832D01*
X116627736Y-86308830D01*
X116544858Y-86274501D01*
X116544856Y-86274500D01*
X116544855Y-86274500D01*
X116544853Y-86274500D01*
X116507635Y-86274500D01*
X116472987Y-86260148D01*
X108664852Y-78452012D01*
X108650500Y-78417364D01*
X108650500Y-74955143D01*
X110274500Y-74955143D01*
X110274500Y-74955145D01*
X110274500Y-75044855D01*
X110274500Y-75044857D01*
X110274501Y-75044858D01*
X110308830Y-75127736D01*
X110308832Y-75127739D01*
X110372261Y-75191168D01*
X110372263Y-75191169D01*
X110372264Y-75191170D01*
X110455145Y-75225500D01*
X110492364Y-75225500D01*
X110527012Y-75239852D01*
X112914744Y-77627585D01*
X112914750Y-77627589D01*
X112920734Y-77630067D01*
X112947149Y-77641008D01*
X112947150Y-77641009D01*
X112947151Y-77641009D01*
X112970064Y-77650500D01*
X118311298Y-77650500D01*
X118345946Y-77664852D01*
X118372264Y-77691170D01*
X118455145Y-77725500D01*
X118455147Y-77725500D01*
X118544853Y-77725500D01*
X118544855Y-77725500D01*
X118627736Y-77691170D01*
X118627737Y-77691168D01*
X118627739Y-77691168D01*
X118691168Y-77627739D01*
X118691168Y-77627737D01*
X118691170Y-77627736D01*
X118725500Y-77544855D01*
X118725500Y-77455145D01*
X118691170Y-77372264D01*
X118691169Y-77372263D01*
X118691168Y-77372261D01*
X118627739Y-77308832D01*
X118627736Y-77308830D01*
X118544858Y-77274501D01*
X118544856Y-77274500D01*
X118544855Y-77274500D01*
X118455145Y-77274500D01*
X118455143Y-77274500D01*
X118455141Y-77274501D01*
X118372264Y-77308829D01*
X118359105Y-77321988D01*
X118345945Y-77335148D01*
X118311299Y-77349500D01*
X113082636Y-77349500D01*
X113047988Y-77335148D01*
X110739852Y-75027012D01*
X110725500Y-74992364D01*
X110725500Y-74955147D01*
X110725500Y-74955145D01*
X110691170Y-74872264D01*
X110691169Y-74872263D01*
X110691168Y-74872261D01*
X110627739Y-74808832D01*
X110627736Y-74808830D01*
X110544858Y-74774501D01*
X110544856Y-74774500D01*
X110544855Y-74774500D01*
X110455145Y-74774500D01*
X110455143Y-74774500D01*
X110455141Y-74774501D01*
X110372263Y-74808830D01*
X110308830Y-74872263D01*
X110274501Y-74955141D01*
X110274500Y-74955143D01*
X108650500Y-74955143D01*
X108650500Y-68655143D01*
X112149500Y-68655143D01*
X112149500Y-68655145D01*
X112149500Y-68744855D01*
X112149500Y-68744857D01*
X112149501Y-68744858D01*
X112183830Y-68827736D01*
X112183832Y-68827739D01*
X112247261Y-68891168D01*
X112247263Y-68891169D01*
X112247264Y-68891170D01*
X112330145Y-68925500D01*
X112367364Y-68925500D01*
X112402012Y-68939852D01*
X113314744Y-69852585D01*
X113314750Y-69852589D01*
X113320734Y-69855067D01*
X113347149Y-69866008D01*
X113347150Y-69866009D01*
X113347151Y-69866009D01*
X113370064Y-69875500D01*
X114611298Y-69875500D01*
X114645946Y-69889852D01*
X114672264Y-69916170D01*
X114755145Y-69950500D01*
X114755147Y-69950500D01*
X114844853Y-69950500D01*
X114844855Y-69950500D01*
X114927736Y-69916170D01*
X114927737Y-69916168D01*
X114927739Y-69916168D01*
X114991168Y-69852739D01*
X114991168Y-69852737D01*
X114991170Y-69852736D01*
X115025500Y-69769855D01*
X115025500Y-69680145D01*
X114991170Y-69597264D01*
X114991169Y-69597263D01*
X114991168Y-69597261D01*
X114927739Y-69533832D01*
X114927736Y-69533830D01*
X114844858Y-69499501D01*
X114844856Y-69499500D01*
X114844855Y-69499500D01*
X114755145Y-69499500D01*
X114755143Y-69499500D01*
X114755141Y-69499501D01*
X114672264Y-69533829D01*
X114659105Y-69546988D01*
X114645945Y-69560148D01*
X114611299Y-69574500D01*
X113482636Y-69574500D01*
X113447988Y-69560148D01*
X112614852Y-68727012D01*
X112600500Y-68692364D01*
X112600500Y-68655147D01*
X112600500Y-68655145D01*
X112566170Y-68572264D01*
X112566169Y-68572263D01*
X112566168Y-68572261D01*
X112502739Y-68508832D01*
X112502736Y-68508830D01*
X112419858Y-68474501D01*
X112419856Y-68474500D01*
X112419855Y-68474500D01*
X112330145Y-68474500D01*
X112330143Y-68474500D01*
X112330141Y-68474501D01*
X112247263Y-68508830D01*
X112183830Y-68572263D01*
X112149501Y-68655141D01*
X112149500Y-68655143D01*
X108650500Y-68655143D01*
X108650500Y-68188702D01*
X108664852Y-68154054D01*
X108691170Y-68127736D01*
X108725500Y-68044855D01*
X108725500Y-67955145D01*
X108691170Y-67872264D01*
X108691169Y-67872263D01*
X108691168Y-67872261D01*
X108627739Y-67808832D01*
X108627736Y-67808830D01*
X108544858Y-67774501D01*
X108544856Y-67774500D01*
X108544855Y-67774500D01*
X108455145Y-67774500D01*
X108455143Y-67774500D01*
X108455141Y-67774501D01*
X108372263Y-67808830D01*
X108308830Y-67872263D01*
X108274501Y-67955141D01*
X108274500Y-67955143D01*
X106757696Y-67955143D01*
X108657696Y-66055143D01*
X109749500Y-66055143D01*
X109749500Y-66055145D01*
X109749500Y-66144855D01*
X109749500Y-66144857D01*
X109749501Y-66144858D01*
X109783830Y-66227736D01*
X109783832Y-66227739D01*
X109847261Y-66291168D01*
X109847263Y-66291169D01*
X109847264Y-66291170D01*
X109930145Y-66325500D01*
X109967364Y-66325500D01*
X110002012Y-66339852D01*
X110564748Y-66902587D01*
X110580946Y-66909295D01*
X110580949Y-66909298D01*
X110580950Y-66909297D01*
X110620064Y-66925500D01*
X112742364Y-66925500D01*
X112777012Y-66939852D01*
X114085148Y-68247987D01*
X114099500Y-68282635D01*
X114099500Y-68319855D01*
X114099500Y-68319857D01*
X114099501Y-68319858D01*
X114133830Y-68402736D01*
X114133832Y-68402739D01*
X114197261Y-68466168D01*
X114197263Y-68466169D01*
X114197264Y-68466170D01*
X114280145Y-68500500D01*
X114280147Y-68500500D01*
X114369853Y-68500500D01*
X114369855Y-68500500D01*
X114452736Y-68466170D01*
X114452737Y-68466168D01*
X114452739Y-68466168D01*
X114516168Y-68402739D01*
X114516168Y-68402737D01*
X114516170Y-68402736D01*
X114550500Y-68319855D01*
X114550500Y-68230145D01*
X114516170Y-68147264D01*
X114516169Y-68147263D01*
X114516168Y-68147261D01*
X114452739Y-68083832D01*
X114452736Y-68083830D01*
X114369858Y-68049501D01*
X114369856Y-68049500D01*
X114369855Y-68049500D01*
X114369853Y-68049500D01*
X114332635Y-68049500D01*
X114297987Y-68035148D01*
X112910254Y-66647413D01*
X112910252Y-66647412D01*
X112877848Y-66633990D01*
X112854936Y-66624500D01*
X110732635Y-66624500D01*
X110697987Y-66610148D01*
X110214852Y-66127012D01*
X110200500Y-66092364D01*
X110200500Y-66055147D01*
X110200500Y-66055145D01*
X110166170Y-65972264D01*
X110166169Y-65972263D01*
X110166168Y-65972261D01*
X110102739Y-65908832D01*
X110102736Y-65908830D01*
X110019858Y-65874501D01*
X110019856Y-65874500D01*
X110019855Y-65874500D01*
X109930145Y-65874500D01*
X109930143Y-65874500D01*
X109930141Y-65874501D01*
X109847263Y-65908830D01*
X109783830Y-65972263D01*
X109749501Y-66055141D01*
X109749500Y-66055143D01*
X108657696Y-66055143D01*
X112547987Y-62164852D01*
X112582635Y-62150500D01*
X115311298Y-62150500D01*
X115345946Y-62164852D01*
X115372264Y-62191170D01*
X115455145Y-62225500D01*
X115455147Y-62225500D01*
X115544853Y-62225500D01*
X115544855Y-62225500D01*
X115627736Y-62191170D01*
X115627737Y-62191168D01*
X115627739Y-62191168D01*
X115691168Y-62127739D01*
X115691168Y-62127737D01*
X115691170Y-62127736D01*
X115725500Y-62044855D01*
X115725500Y-61955145D01*
X115691170Y-61872264D01*
X115691169Y-61872263D01*
X115691168Y-61872261D01*
X115627739Y-61808832D01*
X115627736Y-61808830D01*
X115544858Y-61774501D01*
X115544856Y-61774500D01*
X115544855Y-61774500D01*
X115455145Y-61774500D01*
X115455143Y-61774500D01*
X115455141Y-61774501D01*
X115372264Y-61808829D01*
X115359105Y-61821988D01*
X115345945Y-61835148D01*
X115311299Y-61849500D01*
X112470062Y-61849500D01*
X112430950Y-61865702D01*
X112414746Y-61872413D01*
X112414745Y-61872415D01*
X106027012Y-68260148D01*
X105992364Y-68274500D01*
X105955145Y-68274500D01*
X105955143Y-68274500D01*
X105955141Y-68274501D01*
X105872263Y-68308830D01*
X105808831Y-68372262D01*
X105794770Y-68406208D01*
X105768251Y-68432726D01*
X105730748Y-68432726D01*
X105704230Y-68406207D01*
X105700500Y-68387456D01*
X105700500Y-66103346D01*
X105714852Y-66068698D01*
X115169974Y-56613576D01*
X115169976Y-56613574D01*
X115200500Y-56539882D01*
X115200500Y-56460118D01*
X115200500Y-52960118D01*
X115169976Y-52886426D01*
X115169974Y-52886424D01*
X115169974Y-52886423D01*
X115113577Y-52830026D01*
X115113575Y-52830025D01*
X115113574Y-52830024D01*
X115062407Y-52808830D01*
X115039883Y-52799500D01*
X115039882Y-52799500D01*
X112603345Y-52799500D01*
X112568697Y-52785148D01*
X111223061Y-51439512D01*
X111212440Y-51423617D01*
X111191170Y-51372264D01*
X111191168Y-51372262D01*
X111191167Y-51372260D01*
X111127739Y-51308832D01*
X111127736Y-51308830D01*
X111044858Y-51274501D01*
X111044856Y-51274500D01*
X111044855Y-51274500D01*
X110955145Y-51274500D01*
X110955143Y-51274500D01*
X110955141Y-51274501D01*
X110872263Y-51308830D01*
X110808830Y-51372263D01*
X110774501Y-51455141D01*
X110774500Y-51455143D01*
X110774500Y-51455145D01*
X110774500Y-51544855D01*
X110774500Y-51544857D01*
X110774501Y-51544858D01*
X110808830Y-51627736D01*
X110808832Y-51627739D01*
X110872260Y-51691167D01*
X110872263Y-51691169D01*
X110872264Y-51691170D01*
X110905000Y-51704729D01*
X110931519Y-51731245D01*
X110931521Y-51768748D01*
X110905004Y-51795268D01*
X110905002Y-51795269D01*
X110872262Y-51808830D01*
X110872261Y-51808832D01*
X110808830Y-51872263D01*
X110774501Y-51955141D01*
X110774500Y-51955143D01*
X110774500Y-51955145D01*
X110774500Y-52044855D01*
X110774500Y-52044857D01*
X110774501Y-52044858D01*
X110808830Y-52127736D01*
X110808832Y-52127739D01*
X110872260Y-52191167D01*
X110872262Y-52191168D01*
X110872264Y-52191170D01*
X110923617Y-52212440D01*
X110939512Y-52223061D01*
X112327228Y-53610777D01*
X112327231Y-53610781D01*
X112327232Y-53610781D01*
X112330023Y-53613572D01*
X112330024Y-53613574D01*
X112386426Y-53669976D01*
X112460118Y-53700500D01*
X114250500Y-53700500D01*
X114285148Y-53714852D01*
X114299500Y-53749500D01*
X114299500Y-54387456D01*
X114285148Y-54422104D01*
X114250500Y-54436456D01*
X114215852Y-54422104D01*
X114205230Y-54406208D01*
X114203996Y-54403229D01*
X114191170Y-54372264D01*
X114191168Y-54372262D01*
X114191168Y-54372261D01*
X114127739Y-54308832D01*
X114127736Y-54308830D01*
X114044858Y-54274501D01*
X114044856Y-54274500D01*
X114044855Y-54274500D01*
X113955145Y-54274500D01*
X113955143Y-54274500D01*
X113955141Y-54274501D01*
X113872264Y-54308829D01*
X113859105Y-54321988D01*
X113845945Y-54335148D01*
X113811299Y-54349500D01*
X113770064Y-54349500D01*
X113747151Y-54358990D01*
X113728429Y-54366745D01*
X113690927Y-54366745D01*
X113675030Y-54356123D01*
X113627739Y-54308832D01*
X113627736Y-54308830D01*
X113544858Y-54274501D01*
X113544856Y-54274500D01*
X113544855Y-54274500D01*
X113455145Y-54274500D01*
X113455143Y-54274500D01*
X113455141Y-54274501D01*
X113372263Y-54308830D01*
X113308830Y-54372263D01*
X113274501Y-54455141D01*
X113274500Y-54455147D01*
X113274500Y-54492364D01*
X113260148Y-54527012D01*
X110807994Y-56979165D01*
X110773346Y-56993517D01*
X110738698Y-56979165D01*
X110728079Y-56959299D01*
X110727347Y-56959603D01*
X110703361Y-56901697D01*
X110691170Y-56872264D01*
X110691169Y-56872263D01*
X110691168Y-56872261D01*
X110664852Y-56845945D01*
X110650500Y-56811297D01*
X110650500Y-46470066D01*
X110650499Y-46470062D01*
X110627587Y-46414749D01*
X110627586Y-46414747D01*
X110197806Y-45984967D01*
X110167982Y-45955143D01*
X111274500Y-45955143D01*
X111274500Y-45955145D01*
X111274500Y-46044855D01*
X111274500Y-46044857D01*
X111274501Y-46044858D01*
X111308830Y-46127736D01*
X111308832Y-46127739D01*
X111372261Y-46191168D01*
X111372263Y-46191169D01*
X111372264Y-46191170D01*
X111455145Y-46225500D01*
X111492364Y-46225500D01*
X111527012Y-46239852D01*
X116135148Y-50847987D01*
X116149500Y-50882635D01*
X116149500Y-68536297D01*
X116135148Y-68570945D01*
X116108830Y-68597263D01*
X116074501Y-68680141D01*
X116074500Y-68680143D01*
X116074500Y-68680145D01*
X116074500Y-68769855D01*
X116074500Y-68769857D01*
X116074501Y-68769858D01*
X116108830Y-68852736D01*
X116108832Y-68852739D01*
X116172261Y-68916168D01*
X116172262Y-68916168D01*
X116172264Y-68916170D01*
X116194789Y-68925500D01*
X116205001Y-68929730D01*
X116231519Y-68956249D01*
X116231519Y-68993752D01*
X116205001Y-69020270D01*
X116172262Y-69033831D01*
X116108831Y-69097262D01*
X116095270Y-69130001D01*
X116068751Y-69156519D01*
X116031248Y-69156519D01*
X116004730Y-69130001D01*
X116004046Y-69128352D01*
X115991170Y-69097264D01*
X115991168Y-69097262D01*
X115991168Y-69097261D01*
X115927739Y-69033832D01*
X115927736Y-69033830D01*
X115844858Y-68999501D01*
X115844856Y-68999500D01*
X115844855Y-68999500D01*
X115755145Y-68999500D01*
X115755143Y-68999500D01*
X115755141Y-68999501D01*
X115672263Y-69033830D01*
X115608830Y-69097263D01*
X115574501Y-69180141D01*
X115574500Y-69180143D01*
X115574500Y-69180145D01*
X115574500Y-69269855D01*
X115574500Y-69269857D01*
X115574501Y-69269858D01*
X115608829Y-69352735D01*
X115608830Y-69352736D01*
X115635148Y-69379054D01*
X115649500Y-69413701D01*
X115649500Y-70004936D01*
X115658990Y-70027848D01*
X115672412Y-70060252D01*
X115672413Y-70060254D01*
X116610148Y-70997987D01*
X116624500Y-71032635D01*
X116624500Y-71069855D01*
X116624500Y-71069857D01*
X116624501Y-71069858D01*
X116658830Y-71152736D01*
X116658832Y-71152739D01*
X116722261Y-71216168D01*
X116722263Y-71216169D01*
X116722264Y-71216170D01*
X116805145Y-71250500D01*
X116805147Y-71250500D01*
X116894853Y-71250500D01*
X116894855Y-71250500D01*
X116977736Y-71216170D01*
X116977737Y-71216168D01*
X116977739Y-71216168D01*
X117041168Y-71152739D01*
X117041168Y-71152737D01*
X117041170Y-71152736D01*
X117075500Y-71069855D01*
X117075500Y-70980145D01*
X117041170Y-70897264D01*
X117041169Y-70897263D01*
X117041168Y-70897261D01*
X116977739Y-70833832D01*
X116977736Y-70833830D01*
X116894858Y-70799501D01*
X116894856Y-70799500D01*
X116894855Y-70799500D01*
X116894853Y-70799500D01*
X116857635Y-70799500D01*
X116822987Y-70785148D01*
X115964852Y-69927012D01*
X115950500Y-69892364D01*
X115950500Y-69413702D01*
X115964852Y-69379054D01*
X115991170Y-69352736D01*
X116004730Y-69319999D01*
X116031248Y-69293480D01*
X116068751Y-69293480D01*
X116095270Y-69319998D01*
X116095270Y-69319999D01*
X116108830Y-69352736D01*
X116108832Y-69352739D01*
X116172261Y-69416168D01*
X116172263Y-69416169D01*
X116172264Y-69416170D01*
X116215225Y-69433964D01*
X116222678Y-69437052D01*
X116249197Y-69463570D01*
X116249197Y-69501073D01*
X116222679Y-69527592D01*
X116147262Y-69558831D01*
X116083830Y-69622263D01*
X116049501Y-69705141D01*
X116049500Y-69705143D01*
X116049500Y-69705145D01*
X116049500Y-69794855D01*
X116049500Y-69794857D01*
X116049501Y-69794858D01*
X116083830Y-69877736D01*
X116083832Y-69877739D01*
X116147261Y-69941168D01*
X116147263Y-69941169D01*
X116147264Y-69941170D01*
X116230145Y-69975500D01*
X116267364Y-69975500D01*
X116302012Y-69989852D01*
X119564749Y-73252588D01*
X119592406Y-73264043D01*
X119620064Y-73275500D01*
X123711298Y-73275500D01*
X123745946Y-73289852D01*
X123772264Y-73316170D01*
X123855145Y-73350500D01*
X123855147Y-73350500D01*
X123944853Y-73350500D01*
X123944855Y-73350500D01*
X124027736Y-73316170D01*
X124027737Y-73316168D01*
X124027739Y-73316168D01*
X124091168Y-73252739D01*
X124091168Y-73252737D01*
X124091170Y-73252736D01*
X124125500Y-73169855D01*
X124125500Y-73080145D01*
X124091170Y-72997264D01*
X124091169Y-72997263D01*
X124091168Y-72997261D01*
X124027739Y-72933832D01*
X124027736Y-72933830D01*
X123944858Y-72899501D01*
X123944856Y-72899500D01*
X123944855Y-72899500D01*
X123855145Y-72899500D01*
X123855143Y-72899500D01*
X123855141Y-72899501D01*
X123772264Y-72933829D01*
X123759105Y-72946988D01*
X123745945Y-72960148D01*
X123711299Y-72974500D01*
X119732635Y-72974500D01*
X119697987Y-72960148D01*
X116514852Y-69777012D01*
X116500500Y-69742364D01*
X116500500Y-69705147D01*
X116500500Y-69705145D01*
X116466170Y-69622264D01*
X116466169Y-69622263D01*
X116466168Y-69622261D01*
X116402739Y-69558832D01*
X116402737Y-69558831D01*
X116402736Y-69558830D01*
X116368354Y-69544589D01*
X116352320Y-69537947D01*
X116325802Y-69511428D01*
X116325802Y-69473925D01*
X116352320Y-69447407D01*
X116427736Y-69416170D01*
X116427737Y-69416168D01*
X116427739Y-69416168D01*
X116491168Y-69352739D01*
X116491168Y-69352737D01*
X116491170Y-69352736D01*
X116525500Y-69269855D01*
X116525500Y-69232635D01*
X116539852Y-69197987D01*
X120171455Y-65566384D01*
X130549500Y-65566384D01*
X130549500Y-65753616D01*
X130564699Y-65830025D01*
X130586026Y-65937248D01*
X130586029Y-65937258D01*
X130657675Y-66110225D01*
X130657676Y-66110227D01*
X130657678Y-66110231D01*
X130761698Y-66265908D01*
X130894092Y-66398302D01*
X131049769Y-66502322D01*
X131049774Y-66502324D01*
X131222741Y-66573970D01*
X131222743Y-66573970D01*
X131222749Y-66573973D01*
X131406384Y-66610500D01*
X131406387Y-66610500D01*
X131593613Y-66610500D01*
X131593616Y-66610500D01*
X131777251Y-66573973D01*
X131950231Y-66502322D01*
X132105908Y-66398302D01*
X132238302Y-66265908D01*
X132342322Y-66110231D01*
X132413973Y-65937251D01*
X132450500Y-65753616D01*
X132450500Y-65566384D01*
X132413973Y-65382749D01*
X132392133Y-65330024D01*
X132342324Y-65209774D01*
X132342322Y-65209769D01*
X132238302Y-65054092D01*
X132105908Y-64921698D01*
X131950231Y-64817678D01*
X131950227Y-64817676D01*
X131950225Y-64817675D01*
X131777258Y-64746029D01*
X131777248Y-64746026D01*
X131703194Y-64731296D01*
X131593616Y-64709500D01*
X131406384Y-64709500D01*
X131314986Y-64727680D01*
X131222751Y-64746026D01*
X131222741Y-64746029D01*
X131049774Y-64817675D01*
X131049770Y-64817677D01*
X131049769Y-64817678D01*
X131010195Y-64844120D01*
X130894092Y-64921697D01*
X130761697Y-65054092D01*
X130657675Y-65209774D01*
X130586029Y-65382741D01*
X130586026Y-65382751D01*
X130570638Y-65460116D01*
X130549500Y-65566384D01*
X120171455Y-65566384D01*
X122711455Y-63026384D01*
X130549500Y-63026384D01*
X130549500Y-63213616D01*
X130571836Y-63325907D01*
X130586026Y-63397248D01*
X130586029Y-63397258D01*
X130657675Y-63570225D01*
X130657676Y-63570227D01*
X130657678Y-63570231D01*
X130761698Y-63725908D01*
X130894092Y-63858302D01*
X131049769Y-63962322D01*
X131049774Y-63962324D01*
X131222741Y-64033970D01*
X131222743Y-64033970D01*
X131222749Y-64033973D01*
X131406384Y-64070500D01*
X131406387Y-64070500D01*
X131593613Y-64070500D01*
X131593616Y-64070500D01*
X131777251Y-64033973D01*
X131950231Y-63962322D01*
X132105908Y-63858302D01*
X132238302Y-63725908D01*
X132342322Y-63570231D01*
X132413973Y-63397251D01*
X132450500Y-63213616D01*
X132450500Y-63026384D01*
X132413973Y-62842749D01*
X132342322Y-62669769D01*
X132238302Y-62514092D01*
X132105908Y-62381698D01*
X131950231Y-62277678D01*
X131950227Y-62277676D01*
X131950225Y-62277675D01*
X131777258Y-62206029D01*
X131777248Y-62206026D01*
X131702549Y-62191168D01*
X131593616Y-62169500D01*
X131406384Y-62169500D01*
X131314986Y-62187680D01*
X131222751Y-62206026D01*
X131222741Y-62206029D01*
X131049774Y-62277675D01*
X131049770Y-62277677D01*
X131049769Y-62277678D01*
X131010195Y-62304120D01*
X130894092Y-62381697D01*
X130761697Y-62514092D01*
X130657675Y-62669774D01*
X130586029Y-62842741D01*
X130586026Y-62842751D01*
X130567680Y-62934986D01*
X130549500Y-63026384D01*
X122711455Y-63026384D01*
X125251455Y-60486384D01*
X130549500Y-60486384D01*
X130549500Y-60673616D01*
X130571836Y-60785907D01*
X130586026Y-60857248D01*
X130586029Y-60857258D01*
X130657675Y-61030225D01*
X130657676Y-61030227D01*
X130657678Y-61030231D01*
X130761698Y-61185908D01*
X130894092Y-61318302D01*
X131049769Y-61422322D01*
X131049774Y-61422324D01*
X131222741Y-61493970D01*
X131222743Y-61493970D01*
X131222749Y-61493973D01*
X131406384Y-61530500D01*
X131406387Y-61530500D01*
X131593613Y-61530500D01*
X131593616Y-61530500D01*
X131777251Y-61493973D01*
X131950231Y-61422322D01*
X132105908Y-61318302D01*
X132238302Y-61185908D01*
X132342322Y-61030231D01*
X132413973Y-60857251D01*
X132450500Y-60673616D01*
X132450500Y-60486384D01*
X132413973Y-60302749D01*
X132342322Y-60129769D01*
X132238302Y-59974092D01*
X132105908Y-59841698D01*
X131950231Y-59737678D01*
X131950227Y-59737676D01*
X131950225Y-59737675D01*
X131777258Y-59666029D01*
X131777248Y-59666026D01*
X131703194Y-59651296D01*
X131593616Y-59629500D01*
X131406384Y-59629500D01*
X131314986Y-59647680D01*
X131222751Y-59666026D01*
X131222741Y-59666029D01*
X131049774Y-59737675D01*
X131049770Y-59737677D01*
X131049769Y-59737678D01*
X131010195Y-59764120D01*
X130894092Y-59841697D01*
X130761697Y-59974092D01*
X130657675Y-60129774D01*
X130586029Y-60302741D01*
X130586026Y-60302751D01*
X130567680Y-60394986D01*
X130549500Y-60486384D01*
X125251455Y-60486384D01*
X127791455Y-57946384D01*
X130549500Y-57946384D01*
X130549500Y-58133616D01*
X130571836Y-58245907D01*
X130586026Y-58317248D01*
X130586029Y-58317258D01*
X130657675Y-58490225D01*
X130657676Y-58490227D01*
X130657678Y-58490231D01*
X130761698Y-58645908D01*
X130894092Y-58778302D01*
X131049769Y-58882322D01*
X131049774Y-58882324D01*
X131222741Y-58953970D01*
X131222743Y-58953970D01*
X131222749Y-58953973D01*
X131406384Y-58990500D01*
X131406387Y-58990500D01*
X131593613Y-58990500D01*
X131593616Y-58990500D01*
X131777251Y-58953973D01*
X131950231Y-58882322D01*
X132105908Y-58778302D01*
X132238302Y-58645908D01*
X132342322Y-58490231D01*
X132413973Y-58317251D01*
X132450500Y-58133616D01*
X132450500Y-57946384D01*
X132413973Y-57762749D01*
X132342322Y-57589769D01*
X132238302Y-57434092D01*
X132105908Y-57301698D01*
X131950231Y-57197678D01*
X131950227Y-57197676D01*
X131950225Y-57197675D01*
X131777258Y-57126029D01*
X131777248Y-57126026D01*
X131703194Y-57111296D01*
X131593616Y-57089500D01*
X131406384Y-57089500D01*
X131314986Y-57107680D01*
X131222751Y-57126026D01*
X131222741Y-57126029D01*
X131049774Y-57197675D01*
X131049770Y-57197677D01*
X131049769Y-57197678D01*
X131034939Y-57207587D01*
X130894092Y-57301697D01*
X130761697Y-57434092D01*
X130657675Y-57589774D01*
X130586029Y-57762741D01*
X130586026Y-57762751D01*
X130567680Y-57854986D01*
X130549500Y-57946384D01*
X127791455Y-57946384D01*
X127828510Y-57909329D01*
X128148070Y-57589769D01*
X128502588Y-57235251D01*
X128514043Y-57207593D01*
X128525500Y-57179936D01*
X128525500Y-56167634D01*
X128539851Y-56132987D01*
X129266454Y-55406384D01*
X130549500Y-55406384D01*
X130549500Y-55593616D01*
X130571836Y-55705907D01*
X130586026Y-55777248D01*
X130586029Y-55777258D01*
X130657675Y-55950225D01*
X130657676Y-55950227D01*
X130657678Y-55950231D01*
X130761698Y-56105908D01*
X130894092Y-56238302D01*
X131049769Y-56342322D01*
X131049774Y-56342324D01*
X131222741Y-56413970D01*
X131222743Y-56413970D01*
X131222749Y-56413973D01*
X131406384Y-56450500D01*
X131406387Y-56450500D01*
X131593613Y-56450500D01*
X131593616Y-56450500D01*
X131777251Y-56413973D01*
X131950231Y-56342322D01*
X132105908Y-56238302D01*
X132238302Y-56105908D01*
X132342322Y-55950231D01*
X132413973Y-55777251D01*
X132450500Y-55593616D01*
X132450500Y-55406384D01*
X132413973Y-55222749D01*
X132342322Y-55049769D01*
X132238302Y-54894092D01*
X132105908Y-54761698D01*
X131950231Y-54657678D01*
X131950227Y-54657676D01*
X131950225Y-54657675D01*
X131777258Y-54586029D01*
X131777248Y-54586026D01*
X131703194Y-54571296D01*
X131593616Y-54549500D01*
X131406384Y-54549500D01*
X131317032Y-54567273D01*
X131222751Y-54586026D01*
X131222741Y-54586029D01*
X131049774Y-54657675D01*
X131049770Y-54657677D01*
X131049769Y-54657678D01*
X131010195Y-54684120D01*
X130894092Y-54761697D01*
X130761697Y-54894092D01*
X130657675Y-55049774D01*
X130586029Y-55222741D01*
X130586026Y-55222751D01*
X130567680Y-55314986D01*
X130549500Y-55406384D01*
X129266454Y-55406384D01*
X130913880Y-53758957D01*
X130948527Y-53744606D01*
X130975750Y-53752864D01*
X131009474Y-53775397D01*
X131049769Y-53802322D01*
X131049770Y-53802322D01*
X131049771Y-53802323D01*
X131222741Y-53873970D01*
X131222743Y-53873970D01*
X131222749Y-53873973D01*
X131406384Y-53910500D01*
X131406387Y-53910500D01*
X131593613Y-53910500D01*
X131593616Y-53910500D01*
X131777251Y-53873973D01*
X131950231Y-53802322D01*
X132105908Y-53698302D01*
X132238302Y-53565908D01*
X132342322Y-53410231D01*
X132413973Y-53237251D01*
X132450500Y-53053616D01*
X132450500Y-52866384D01*
X132413973Y-52682749D01*
X132342322Y-52509769D01*
X132238302Y-52354092D01*
X132105908Y-52221698D01*
X132097633Y-52216169D01*
X132060215Y-52191167D01*
X131950231Y-52117678D01*
X131950227Y-52117676D01*
X131950225Y-52117675D01*
X131777258Y-52046029D01*
X131777248Y-52046026D01*
X131703194Y-52031296D01*
X131593616Y-52009500D01*
X131406384Y-52009500D01*
X131314986Y-52027680D01*
X131222751Y-52046026D01*
X131222741Y-52046029D01*
X131049774Y-52117675D01*
X131049770Y-52117677D01*
X131049769Y-52117678D01*
X131034716Y-52127736D01*
X130894092Y-52221697D01*
X130761697Y-52354092D01*
X130657675Y-52509774D01*
X130586029Y-52682741D01*
X130586026Y-52682751D01*
X130570631Y-52760148D01*
X130549500Y-52866384D01*
X130549500Y-53053616D01*
X130564244Y-53127739D01*
X130586026Y-53237248D01*
X130586029Y-53237258D01*
X130657675Y-53410225D01*
X130657678Y-53410231D01*
X130707134Y-53484249D01*
X130714450Y-53521031D01*
X130701040Y-53546119D01*
X128247413Y-55999746D01*
X128233990Y-56032149D01*
X128233990Y-56032151D01*
X128224500Y-56055064D01*
X128224500Y-56055065D01*
X128224500Y-57067363D01*
X128210148Y-57102011D01*
X116607993Y-68704165D01*
X116573345Y-68718517D01*
X116538697Y-68704165D01*
X116528081Y-68684298D01*
X116527347Y-68684603D01*
X116503792Y-68627736D01*
X116491170Y-68597264D01*
X116491169Y-68597263D01*
X116491168Y-68597261D01*
X116464852Y-68570945D01*
X116450500Y-68536297D01*
X116450500Y-52955143D01*
X123274500Y-52955143D01*
X123274500Y-52955145D01*
X123274500Y-53044855D01*
X123274500Y-53044857D01*
X123274501Y-53044858D01*
X123308830Y-53127736D01*
X123308832Y-53127739D01*
X123372261Y-53191168D01*
X123372263Y-53191169D01*
X123372264Y-53191170D01*
X123455145Y-53225500D01*
X123455147Y-53225500D01*
X123544853Y-53225500D01*
X123544855Y-53225500D01*
X123627736Y-53191170D01*
X123627737Y-53191168D01*
X123627739Y-53191168D01*
X123691168Y-53127739D01*
X123691168Y-53127737D01*
X123691170Y-53127736D01*
X123725500Y-53044855D01*
X123725500Y-53007635D01*
X123739852Y-52972987D01*
X127190674Y-49522165D01*
X130150000Y-49522165D01*
X130150000Y-50170000D01*
X131066988Y-50170000D01*
X131034075Y-50227007D01*
X131000000Y-50354174D01*
X131000000Y-50485826D01*
X131034075Y-50612993D01*
X131066988Y-50670000D01*
X130150000Y-50670000D01*
X130150000Y-51317834D01*
X130156401Y-51377372D01*
X130156401Y-51377373D01*
X130206648Y-51512091D01*
X130292811Y-51627188D01*
X130407908Y-51713351D01*
X130542626Y-51763598D01*
X130602166Y-51770000D01*
X131250000Y-51770000D01*
X131250000Y-50853012D01*
X131307007Y-50885925D01*
X131434174Y-50920000D01*
X131565826Y-50920000D01*
X131692993Y-50885925D01*
X131750000Y-50853012D01*
X131750000Y-51770000D01*
X132397834Y-51770000D01*
X132457372Y-51763598D01*
X132457373Y-51763598D01*
X132592091Y-51713351D01*
X132707188Y-51627188D01*
X132793351Y-51512091D01*
X132843598Y-51377373D01*
X132843598Y-51377372D01*
X132850000Y-51317834D01*
X132850000Y-50670000D01*
X131933012Y-50670000D01*
X131965925Y-50612993D01*
X132000000Y-50485826D01*
X132000000Y-50354174D01*
X131965925Y-50227007D01*
X131933012Y-50170000D01*
X132850000Y-50170000D01*
X132850000Y-49522165D01*
X132843598Y-49462627D01*
X132843598Y-49462626D01*
X132793351Y-49327908D01*
X132707188Y-49212811D01*
X132592091Y-49126648D01*
X132457373Y-49076401D01*
X132397834Y-49070000D01*
X131750000Y-49070000D01*
X131750000Y-49986988D01*
X131692993Y-49954075D01*
X131565826Y-49920000D01*
X131434174Y-49920000D01*
X131307007Y-49954075D01*
X131250000Y-49986988D01*
X131250000Y-49070000D01*
X130602166Y-49070000D01*
X130542627Y-49076401D01*
X130542626Y-49076401D01*
X130407908Y-49126648D01*
X130292811Y-49212811D01*
X130206648Y-49327908D01*
X130156401Y-49462626D01*
X130156401Y-49462627D01*
X130150000Y-49522165D01*
X127190674Y-49522165D01*
X128547987Y-48164852D01*
X128582635Y-48150500D01*
X130970064Y-48150500D01*
X131917364Y-48150500D01*
X131952012Y-48164852D01*
X133835148Y-50047987D01*
X133849500Y-50082635D01*
X133849500Y-94917364D01*
X133835148Y-94952012D01*
X132027012Y-96760148D01*
X131992364Y-96774500D01*
X131955145Y-96774500D01*
X131955143Y-96774500D01*
X131955141Y-96774501D01*
X131872263Y-96808830D01*
X131808830Y-96872263D01*
X131774501Y-96955141D01*
X131774500Y-96955143D01*
X131774500Y-96955145D01*
X131774500Y-97044855D01*
X131774500Y-97044857D01*
X131774501Y-97044858D01*
X131808830Y-97127736D01*
X131808832Y-97127739D01*
X131872261Y-97191168D01*
X131872263Y-97191169D01*
X131872264Y-97191170D01*
X131955145Y-97225500D01*
X131955147Y-97225500D01*
X132044853Y-97225500D01*
X132044855Y-97225500D01*
X132127736Y-97191170D01*
X132127737Y-97191168D01*
X132127739Y-97191168D01*
X132191168Y-97127739D01*
X132191168Y-97127737D01*
X132191170Y-97127736D01*
X132225500Y-97044855D01*
X132225500Y-97007635D01*
X132239852Y-96972987D01*
X134127585Y-95085254D01*
X134127587Y-95085252D01*
X134142857Y-95048387D01*
X134150500Y-95029936D01*
X134150500Y-51470064D01*
X134150500Y-49970064D01*
X134127587Y-49914749D01*
X134127587Y-49914748D01*
X133675465Y-49462626D01*
X132085254Y-47872413D01*
X132085252Y-47872412D01*
X132052848Y-47858990D01*
X132029936Y-47849500D01*
X131029936Y-47849500D01*
X128470064Y-47849500D01*
X128442406Y-47860955D01*
X128442406Y-47860956D01*
X128414749Y-47872412D01*
X128414747Y-47872413D01*
X123527012Y-52760148D01*
X123492364Y-52774500D01*
X123455145Y-52774500D01*
X123455143Y-52774500D01*
X123455141Y-52774501D01*
X123372263Y-52808830D01*
X123308830Y-52872263D01*
X123274501Y-52955141D01*
X123274500Y-52955143D01*
X116450500Y-52955143D01*
X116450500Y-50770066D01*
X116450499Y-50770062D01*
X116427587Y-50714749D01*
X116427586Y-50714747D01*
X111739852Y-46027012D01*
X111725500Y-45992364D01*
X111725500Y-45955147D01*
X111725500Y-45955145D01*
X111691170Y-45872264D01*
X111691169Y-45872263D01*
X111691168Y-45872261D01*
X111627739Y-45808832D01*
X111627736Y-45808830D01*
X111544858Y-45774501D01*
X111544856Y-45774500D01*
X111544855Y-45774500D01*
X111455145Y-45774500D01*
X111455143Y-45774500D01*
X111455141Y-45774501D01*
X111372263Y-45808830D01*
X111308830Y-45872263D01*
X111274501Y-45955141D01*
X111274500Y-45955143D01*
X110167982Y-45955143D01*
X109051549Y-44838709D01*
X109020109Y-44807269D01*
X111074500Y-44807269D01*
X111074500Y-44912730D01*
X111101792Y-45014585D01*
X111101793Y-45014589D01*
X111154520Y-45105913D01*
X111229087Y-45180480D01*
X111262513Y-45199778D01*
X111320410Y-45233206D01*
X111320412Y-45233206D01*
X111320413Y-45233207D01*
X111400747Y-45254732D01*
X111422269Y-45260499D01*
X111422270Y-45260500D01*
X111422273Y-45260500D01*
X111527730Y-45260500D01*
X111527730Y-45260499D01*
X111629587Y-45233207D01*
X111720913Y-45180480D01*
X111795480Y-45105913D01*
X111848207Y-45014587D01*
X111875499Y-44912730D01*
X111875500Y-44912730D01*
X111875500Y-44807270D01*
X111875499Y-44807269D01*
X112474500Y-44807269D01*
X112474500Y-44912730D01*
X112501792Y-45014585D01*
X112501793Y-45014589D01*
X112554520Y-45105913D01*
X112629087Y-45180480D01*
X112662513Y-45199778D01*
X112720410Y-45233206D01*
X112720412Y-45233206D01*
X112720413Y-45233207D01*
X112800747Y-45254732D01*
X112822269Y-45260499D01*
X112822270Y-45260500D01*
X112822273Y-45260500D01*
X112927730Y-45260500D01*
X112927730Y-45260499D01*
X113029587Y-45233207D01*
X113120913Y-45180480D01*
X113195480Y-45105913D01*
X113248207Y-45014587D01*
X113275499Y-44912730D01*
X113275500Y-44912730D01*
X113275500Y-44807270D01*
X113275499Y-44807269D01*
X113248207Y-44705414D01*
X113248206Y-44705410D01*
X113195479Y-44614086D01*
X113120913Y-44539520D01*
X113029589Y-44486793D01*
X113029585Y-44486792D01*
X112927730Y-44459500D01*
X112927727Y-44459500D01*
X112822273Y-44459500D01*
X112822270Y-44459500D01*
X112720414Y-44486792D01*
X112720410Y-44486793D01*
X112629086Y-44539520D01*
X112629086Y-44539521D01*
X112554521Y-44614086D01*
X112554520Y-44614086D01*
X112501793Y-44705410D01*
X112501792Y-44705414D01*
X112474500Y-44807269D01*
X111875499Y-44807269D01*
X111848207Y-44705414D01*
X111848206Y-44705410D01*
X111795479Y-44614086D01*
X111720913Y-44539520D01*
X111629589Y-44486793D01*
X111629585Y-44486792D01*
X111527730Y-44459500D01*
X111527727Y-44459500D01*
X111422273Y-44459500D01*
X111422270Y-44459500D01*
X111320414Y-44486792D01*
X111320410Y-44486793D01*
X111229086Y-44539520D01*
X111229086Y-44539521D01*
X111154521Y-44614086D01*
X111154520Y-44614086D01*
X111101793Y-44705410D01*
X111101792Y-44705414D01*
X111074500Y-44807269D01*
X109020109Y-44807269D01*
X108320109Y-44107269D01*
X110374500Y-44107269D01*
X110374500Y-44212730D01*
X110401792Y-44314585D01*
X110401793Y-44314589D01*
X110454520Y-44405913D01*
X110529087Y-44480480D01*
X110562513Y-44499778D01*
X110620410Y-44533206D01*
X110620412Y-44533206D01*
X110620413Y-44533207D01*
X110700747Y-44554732D01*
X110722269Y-44560499D01*
X110722270Y-44560500D01*
X110722273Y-44560500D01*
X110827730Y-44560500D01*
X110827730Y-44560499D01*
X110929587Y-44533207D01*
X111020913Y-44480480D01*
X111095480Y-44405913D01*
X111148207Y-44314587D01*
X111175499Y-44212730D01*
X111175500Y-44212730D01*
X111175500Y-44107270D01*
X111175499Y-44107269D01*
X111774500Y-44107269D01*
X111774500Y-44212730D01*
X111801792Y-44314585D01*
X111801793Y-44314589D01*
X111854520Y-44405913D01*
X111929087Y-44480480D01*
X111962513Y-44499778D01*
X112020410Y-44533206D01*
X112020412Y-44533206D01*
X112020413Y-44533207D01*
X112100747Y-44554732D01*
X112122269Y-44560499D01*
X112122270Y-44560500D01*
X112122273Y-44560500D01*
X112227730Y-44560500D01*
X112227730Y-44560499D01*
X112329587Y-44533207D01*
X112420913Y-44480480D01*
X112495480Y-44405913D01*
X112548207Y-44314587D01*
X112575499Y-44212730D01*
X112575500Y-44212730D01*
X112575500Y-44107270D01*
X112575499Y-44107269D01*
X113174500Y-44107269D01*
X113174500Y-44212730D01*
X113201792Y-44314585D01*
X113201793Y-44314589D01*
X113254520Y-44405913D01*
X113329087Y-44480480D01*
X113362513Y-44499778D01*
X113420410Y-44533206D01*
X113420412Y-44533206D01*
X113420413Y-44533207D01*
X113500747Y-44554732D01*
X113522269Y-44560499D01*
X113522270Y-44560500D01*
X113522273Y-44560500D01*
X113627730Y-44560500D01*
X113627730Y-44560499D01*
X113729587Y-44533207D01*
X113820913Y-44480480D01*
X113895480Y-44405913D01*
X113948207Y-44314587D01*
X113975499Y-44212730D01*
X113975500Y-44212730D01*
X113975500Y-44107270D01*
X113975499Y-44107269D01*
X113948207Y-44005414D01*
X113948206Y-44005410D01*
X113895479Y-43914086D01*
X113820913Y-43839520D01*
X113729589Y-43786793D01*
X113729585Y-43786792D01*
X113627730Y-43759500D01*
X113627727Y-43759500D01*
X113522273Y-43759500D01*
X113522270Y-43759500D01*
X113420414Y-43786792D01*
X113420410Y-43786793D01*
X113329086Y-43839520D01*
X113329086Y-43839521D01*
X113254521Y-43914086D01*
X113254520Y-43914086D01*
X113201793Y-44005410D01*
X113201792Y-44005414D01*
X113174500Y-44107269D01*
X112575499Y-44107269D01*
X112548207Y-44005414D01*
X112548206Y-44005410D01*
X112495479Y-43914086D01*
X112420913Y-43839520D01*
X112329589Y-43786793D01*
X112329585Y-43786792D01*
X112227730Y-43759500D01*
X112227727Y-43759500D01*
X112122273Y-43759500D01*
X112122270Y-43759500D01*
X112020414Y-43786792D01*
X112020410Y-43786793D01*
X111929086Y-43839520D01*
X111929086Y-43839521D01*
X111854521Y-43914086D01*
X111854520Y-43914086D01*
X111801793Y-44005410D01*
X111801792Y-44005414D01*
X111774500Y-44107269D01*
X111175499Y-44107269D01*
X111148207Y-44005414D01*
X111148206Y-44005410D01*
X111095479Y-43914086D01*
X111020913Y-43839520D01*
X110929589Y-43786793D01*
X110929585Y-43786792D01*
X110827730Y-43759500D01*
X110827727Y-43759500D01*
X110722273Y-43759500D01*
X110722270Y-43759500D01*
X110620414Y-43786792D01*
X110620410Y-43786793D01*
X110529086Y-43839520D01*
X110529086Y-43839521D01*
X110454521Y-43914086D01*
X110454520Y-43914086D01*
X110401793Y-44005410D01*
X110401792Y-44005414D01*
X110374500Y-44107269D01*
X108320109Y-44107269D01*
X107620109Y-43407269D01*
X111074500Y-43407269D01*
X111074500Y-43512730D01*
X111101792Y-43614585D01*
X111101793Y-43614589D01*
X111154520Y-43705913D01*
X111229087Y-43780480D01*
X111262513Y-43799778D01*
X111320410Y-43833206D01*
X111320412Y-43833206D01*
X111320413Y-43833207D01*
X111400747Y-43854732D01*
X111422269Y-43860499D01*
X111422270Y-43860500D01*
X111422273Y-43860500D01*
X111527730Y-43860500D01*
X111527730Y-43860499D01*
X111629587Y-43833207D01*
X111720913Y-43780480D01*
X111795480Y-43705913D01*
X111848207Y-43614587D01*
X111875499Y-43512730D01*
X111875500Y-43512730D01*
X111875500Y-43407270D01*
X111875499Y-43407269D01*
X112474500Y-43407269D01*
X112474500Y-43512730D01*
X112501792Y-43614585D01*
X112501793Y-43614589D01*
X112554520Y-43705913D01*
X112629087Y-43780480D01*
X112662513Y-43799778D01*
X112720410Y-43833206D01*
X112720412Y-43833206D01*
X112720413Y-43833207D01*
X112800747Y-43854732D01*
X112822269Y-43860499D01*
X112822270Y-43860500D01*
X112822273Y-43860500D01*
X112927730Y-43860500D01*
X112927730Y-43860499D01*
X113029587Y-43833207D01*
X113120913Y-43780480D01*
X113195480Y-43705913D01*
X113248207Y-43614587D01*
X113275499Y-43512730D01*
X113275500Y-43512730D01*
X113275500Y-43407270D01*
X113275499Y-43407269D01*
X113248207Y-43305414D01*
X113248206Y-43305410D01*
X113195479Y-43214086D01*
X113120913Y-43139520D01*
X113029589Y-43086793D01*
X113029585Y-43086792D01*
X112927730Y-43059500D01*
X112927727Y-43059500D01*
X112822273Y-43059500D01*
X112822270Y-43059500D01*
X112720414Y-43086792D01*
X112720410Y-43086793D01*
X112629086Y-43139520D01*
X112629086Y-43139521D01*
X112554521Y-43214086D01*
X112554520Y-43214086D01*
X112501793Y-43305410D01*
X112501792Y-43305414D01*
X112474500Y-43407269D01*
X111875499Y-43407269D01*
X111848207Y-43305414D01*
X111848206Y-43305410D01*
X111795479Y-43214086D01*
X111720913Y-43139520D01*
X111629589Y-43086793D01*
X111629585Y-43086792D01*
X111527730Y-43059500D01*
X111527727Y-43059500D01*
X111422273Y-43059500D01*
X111422270Y-43059500D01*
X111320414Y-43086792D01*
X111320410Y-43086793D01*
X111229086Y-43139520D01*
X111229086Y-43139521D01*
X111154521Y-43214086D01*
X111154520Y-43214086D01*
X111101793Y-43305410D01*
X111101792Y-43305414D01*
X111074500Y-43407269D01*
X107620109Y-43407269D01*
X107239852Y-43027012D01*
X107225500Y-42992364D01*
X107225500Y-42955147D01*
X107225500Y-42955145D01*
X107191170Y-42872264D01*
X107191169Y-42872263D01*
X107191168Y-42872261D01*
X107127739Y-42808832D01*
X107127736Y-42808830D01*
X107044858Y-42774501D01*
X107044856Y-42774500D01*
X107044855Y-42774500D01*
X106955145Y-42774500D01*
X106955143Y-42774500D01*
X106955141Y-42774501D01*
X106872263Y-42808830D01*
X106808830Y-42872263D01*
X106774501Y-42955141D01*
X106774500Y-42955143D01*
X106774500Y-42955145D01*
X106774500Y-43044855D01*
X106774500Y-43044857D01*
X106774501Y-43044858D01*
X106808830Y-43127736D01*
X106808832Y-43127739D01*
X106872261Y-43191168D01*
X106872263Y-43191169D01*
X106872264Y-43191170D01*
X106955145Y-43225500D01*
X106992364Y-43225500D01*
X107027012Y-43239852D01*
X110335148Y-46547987D01*
X110349500Y-46582635D01*
X110349500Y-56811297D01*
X110335148Y-56845945D01*
X110308830Y-56872263D01*
X110274501Y-56955141D01*
X110274500Y-56955143D01*
X110274500Y-56955145D01*
X110274500Y-57044855D01*
X110274500Y-57044857D01*
X110274501Y-57044858D01*
X110308830Y-57127736D01*
X110308832Y-57127739D01*
X110372261Y-57191168D01*
X110372263Y-57191169D01*
X110372264Y-57191170D01*
X110411899Y-57207587D01*
X110459603Y-57227347D01*
X110459073Y-57228626D01*
X110485259Y-57246123D01*
X110492576Y-57282905D01*
X110479165Y-57307994D01*
X98872413Y-68914746D01*
X98858990Y-68947149D01*
X98858990Y-68947151D01*
X98857603Y-68950500D01*
X98849500Y-68970065D01*
X98849500Y-77417363D01*
X98835148Y-77452011D01*
X96586118Y-79701040D01*
X96551470Y-79715392D01*
X96524248Y-79707134D01*
X96450231Y-79657678D01*
X96450224Y-79657675D01*
X96277254Y-79586028D01*
X96277248Y-79586026D01*
X96203194Y-79571296D01*
X96093616Y-79549500D01*
X95906384Y-79549500D01*
X95814986Y-79567680D01*
X95722751Y-79586026D01*
X95722741Y-79586029D01*
X95549774Y-79657675D01*
X95549770Y-79657677D01*
X95549769Y-79657678D01*
X95510195Y-79684120D01*
X95394092Y-79761697D01*
X95261697Y-79894092D01*
X95157675Y-80049774D01*
X95086029Y-80222741D01*
X95086026Y-80222751D01*
X95071836Y-80294092D01*
X95049500Y-80406384D01*
X93000500Y-80406384D01*
X93000500Y-77866384D01*
X95049500Y-77866384D01*
X95049500Y-78053616D01*
X95073740Y-78175479D01*
X95086026Y-78237248D01*
X95086029Y-78237258D01*
X95157675Y-78410225D01*
X95157676Y-78410227D01*
X95157678Y-78410231D01*
X95235955Y-78527381D01*
X95252971Y-78552848D01*
X95261698Y-78565908D01*
X95394092Y-78698302D01*
X95549769Y-78802322D01*
X95568863Y-78810231D01*
X95722741Y-78873970D01*
X95722743Y-78873970D01*
X95722749Y-78873973D01*
X95906384Y-78910500D01*
X95906387Y-78910500D01*
X96093613Y-78910500D01*
X96093616Y-78910500D01*
X96277251Y-78873973D01*
X96450231Y-78802322D01*
X96605908Y-78698302D01*
X96738302Y-78565908D01*
X96842322Y-78410231D01*
X96913973Y-78237251D01*
X96950500Y-78053616D01*
X96950500Y-77866384D01*
X96913973Y-77682749D01*
X96891124Y-77627588D01*
X96842324Y-77509774D01*
X96842322Y-77509769D01*
X96738302Y-77354092D01*
X96605908Y-77221698D01*
X96450231Y-77117678D01*
X96450227Y-77117676D01*
X96450225Y-77117675D01*
X96277258Y-77046029D01*
X96277248Y-77046026D01*
X96203194Y-77031296D01*
X96093616Y-77009500D01*
X95906384Y-77009500D01*
X95814986Y-77027680D01*
X95722751Y-77046026D01*
X95722741Y-77046029D01*
X95549774Y-77117675D01*
X95549770Y-77117677D01*
X95549769Y-77117678D01*
X95510195Y-77144120D01*
X95394092Y-77221697D01*
X95261697Y-77354092D01*
X95157675Y-77509774D01*
X95086029Y-77682741D01*
X95086026Y-77682751D01*
X95077523Y-77725500D01*
X95049500Y-77866384D01*
X93000500Y-77866384D01*
X93000500Y-75326384D01*
X95049500Y-75326384D01*
X95049500Y-75513616D01*
X95073740Y-75635479D01*
X95086026Y-75697248D01*
X95086029Y-75697258D01*
X95157675Y-75870225D01*
X95157676Y-75870227D01*
X95157678Y-75870231D01*
X95261698Y-76025908D01*
X95394092Y-76158302D01*
X95549769Y-76262322D01*
X95568863Y-76270231D01*
X95722741Y-76333970D01*
X95722743Y-76333970D01*
X95722749Y-76333973D01*
X95906384Y-76370500D01*
X95906387Y-76370500D01*
X96093613Y-76370500D01*
X96093616Y-76370500D01*
X96277251Y-76333973D01*
X96450231Y-76262322D01*
X96605908Y-76158302D01*
X96738302Y-76025908D01*
X96842322Y-75870231D01*
X96913973Y-75697251D01*
X96950500Y-75513616D01*
X96950500Y-75326384D01*
X96913973Y-75142749D01*
X96907754Y-75127736D01*
X96842324Y-74969774D01*
X96842322Y-74969769D01*
X96738302Y-74814092D01*
X96605908Y-74681698D01*
X96450231Y-74577678D01*
X96450227Y-74577676D01*
X96450225Y-74577675D01*
X96277258Y-74506029D01*
X96277248Y-74506026D01*
X96203194Y-74491296D01*
X96093616Y-74469500D01*
X95906384Y-74469500D01*
X95814986Y-74487680D01*
X95722751Y-74506026D01*
X95722741Y-74506029D01*
X95549774Y-74577675D01*
X95549770Y-74577677D01*
X95549769Y-74577678D01*
X95510195Y-74604120D01*
X95394092Y-74681697D01*
X95261697Y-74814092D01*
X95184120Y-74930195D01*
X95167450Y-74955145D01*
X95157675Y-74969774D01*
X95086029Y-75142741D01*
X95086026Y-75142751D01*
X95073440Y-75206027D01*
X95049500Y-75326384D01*
X93000500Y-75326384D01*
X93000500Y-72786384D01*
X95049500Y-72786384D01*
X95049500Y-72973616D01*
X95070689Y-73080141D01*
X95086026Y-73157248D01*
X95086029Y-73157258D01*
X95157675Y-73330225D01*
X95157676Y-73330227D01*
X95157678Y-73330231D01*
X95261698Y-73485908D01*
X95394092Y-73618302D01*
X95549769Y-73722322D01*
X95568863Y-73730231D01*
X95722741Y-73793970D01*
X95722743Y-73793970D01*
X95722749Y-73793973D01*
X95906384Y-73830500D01*
X95906387Y-73830500D01*
X96093613Y-73830500D01*
X96093616Y-73830500D01*
X96277251Y-73793973D01*
X96450231Y-73722322D01*
X96605908Y-73618302D01*
X96738302Y-73485908D01*
X96842322Y-73330231D01*
X96913973Y-73157251D01*
X96950500Y-72973616D01*
X96950500Y-72786384D01*
X96913973Y-72602749D01*
X96842322Y-72429769D01*
X96738302Y-72274092D01*
X96605908Y-72141698D01*
X96450231Y-72037678D01*
X96450227Y-72037676D01*
X96450225Y-72037675D01*
X96277258Y-71966029D01*
X96277248Y-71966026D01*
X96203194Y-71951296D01*
X96093616Y-71929500D01*
X95906384Y-71929500D01*
X95814986Y-71947680D01*
X95722751Y-71966026D01*
X95722741Y-71966029D01*
X95549774Y-72037675D01*
X95549770Y-72037677D01*
X95549769Y-72037678D01*
X95510195Y-72064120D01*
X95394092Y-72141697D01*
X95261697Y-72274092D01*
X95157675Y-72429774D01*
X95086029Y-72602741D01*
X95086026Y-72602751D01*
X95073440Y-72666027D01*
X95049500Y-72786384D01*
X93000500Y-72786384D01*
X93000500Y-70246384D01*
X95049500Y-70246384D01*
X95049500Y-70433616D01*
X95073740Y-70555479D01*
X95086026Y-70617248D01*
X95086029Y-70617258D01*
X95157675Y-70790225D01*
X95157676Y-70790227D01*
X95157678Y-70790231D01*
X95261698Y-70945908D01*
X95394092Y-71078302D01*
X95549769Y-71182322D01*
X95568863Y-71190231D01*
X95722741Y-71253970D01*
X95722743Y-71253970D01*
X95722749Y-71253973D01*
X95906384Y-71290500D01*
X95906387Y-71290500D01*
X96093613Y-71290500D01*
X96093616Y-71290500D01*
X96277251Y-71253973D01*
X96450231Y-71182322D01*
X96605908Y-71078302D01*
X96738302Y-70945908D01*
X96842322Y-70790231D01*
X96913973Y-70617251D01*
X96950500Y-70433616D01*
X96950500Y-70246384D01*
X96913973Y-70062749D01*
X96907858Y-70047987D01*
X96842324Y-69889774D01*
X96842322Y-69889769D01*
X96738302Y-69734092D01*
X96605908Y-69601698D01*
X96450231Y-69497678D01*
X96450227Y-69497676D01*
X96450225Y-69497675D01*
X96277258Y-69426029D01*
X96277248Y-69426026D01*
X96203194Y-69411296D01*
X96093616Y-69389500D01*
X95906384Y-69389500D01*
X95814986Y-69407680D01*
X95722751Y-69426026D01*
X95722741Y-69426029D01*
X95549774Y-69497675D01*
X95549770Y-69497677D01*
X95549769Y-69497678D01*
X95547041Y-69499501D01*
X95394092Y-69601697D01*
X95261697Y-69734092D01*
X95157675Y-69889774D01*
X95086029Y-70062741D01*
X95086026Y-70062751D01*
X95073440Y-70126027D01*
X95049500Y-70246384D01*
X93000500Y-70246384D01*
X93000500Y-67706384D01*
X95049500Y-67706384D01*
X95049500Y-67893616D01*
X95073740Y-68015479D01*
X95086026Y-68077248D01*
X95086029Y-68077258D01*
X95157675Y-68250225D01*
X95157676Y-68250227D01*
X95157678Y-68250231D01*
X95235955Y-68367381D01*
X95259580Y-68402739D01*
X95261698Y-68405908D01*
X95394092Y-68538302D01*
X95549769Y-68642322D01*
X95568863Y-68650231D01*
X95722741Y-68713970D01*
X95722743Y-68713970D01*
X95722749Y-68713973D01*
X95906384Y-68750500D01*
X95906387Y-68750500D01*
X96093613Y-68750500D01*
X96093616Y-68750500D01*
X96277251Y-68713973D01*
X96450231Y-68642322D01*
X96605908Y-68538302D01*
X96738302Y-68405908D01*
X96842322Y-68250231D01*
X96913973Y-68077251D01*
X96950500Y-67893616D01*
X96950500Y-67706384D01*
X96913973Y-67522749D01*
X96842322Y-67349769D01*
X96738302Y-67194092D01*
X96605908Y-67061698D01*
X96450231Y-66957678D01*
X96450227Y-66957676D01*
X96450225Y-66957675D01*
X96277258Y-66886029D01*
X96277248Y-66886026D01*
X96203194Y-66871296D01*
X96093616Y-66849500D01*
X95906384Y-66849500D01*
X95814986Y-66867680D01*
X95722751Y-66886026D01*
X95722741Y-66886029D01*
X95549774Y-66957675D01*
X95549770Y-66957677D01*
X95549769Y-66957678D01*
X95510195Y-66984120D01*
X95394092Y-67061697D01*
X95261697Y-67194092D01*
X95157675Y-67349774D01*
X95086029Y-67522741D01*
X95086026Y-67522751D01*
X95073440Y-67586027D01*
X95049500Y-67706384D01*
X93000500Y-67706384D01*
X93000500Y-65166384D01*
X95049500Y-65166384D01*
X95049500Y-65353616D01*
X95073740Y-65475479D01*
X95086026Y-65537248D01*
X95086029Y-65537258D01*
X95157675Y-65710225D01*
X95157676Y-65710227D01*
X95157678Y-65710231D01*
X95261698Y-65865908D01*
X95394092Y-65998302D01*
X95549769Y-66102322D01*
X95568863Y-66110231D01*
X95722741Y-66173970D01*
X95722743Y-66173970D01*
X95722749Y-66173973D01*
X95906384Y-66210500D01*
X95906387Y-66210500D01*
X96093613Y-66210500D01*
X96093616Y-66210500D01*
X96277251Y-66173973D01*
X96450231Y-66102322D01*
X96605908Y-65998302D01*
X96738302Y-65865908D01*
X96842322Y-65710231D01*
X96913973Y-65537251D01*
X96950500Y-65353616D01*
X96950500Y-65166384D01*
X96913973Y-64982749D01*
X96842322Y-64809769D01*
X96738302Y-64654092D01*
X96605908Y-64521698D01*
X96450231Y-64417678D01*
X96450227Y-64417676D01*
X96450225Y-64417675D01*
X96277258Y-64346029D01*
X96277248Y-64346026D01*
X96203194Y-64331296D01*
X96093616Y-64309500D01*
X95906384Y-64309500D01*
X95814986Y-64327680D01*
X95722751Y-64346026D01*
X95722741Y-64346029D01*
X95549774Y-64417675D01*
X95549770Y-64417677D01*
X95549769Y-64417678D01*
X95510195Y-64444120D01*
X95394092Y-64521697D01*
X95261697Y-64654092D01*
X95157675Y-64809774D01*
X95086029Y-64982741D01*
X95086026Y-64982751D01*
X95071836Y-65054092D01*
X95049500Y-65166384D01*
X93000500Y-65166384D01*
X93000500Y-62626384D01*
X95049500Y-62626384D01*
X95049500Y-62813616D01*
X95073740Y-62935479D01*
X95086026Y-62997248D01*
X95086029Y-62997258D01*
X95157675Y-63170225D01*
X95157676Y-63170227D01*
X95157678Y-63170231D01*
X95261698Y-63325908D01*
X95394092Y-63458302D01*
X95549769Y-63562322D01*
X95568863Y-63570231D01*
X95722741Y-63633970D01*
X95722743Y-63633970D01*
X95722749Y-63633973D01*
X95906384Y-63670500D01*
X95906387Y-63670500D01*
X96093613Y-63670500D01*
X96093616Y-63670500D01*
X96277251Y-63633973D01*
X96450231Y-63562322D01*
X96605908Y-63458302D01*
X96738302Y-63325908D01*
X96842322Y-63170231D01*
X96913973Y-62997251D01*
X96950500Y-62813616D01*
X96950500Y-62626384D01*
X96913973Y-62442749D01*
X96842322Y-62269769D01*
X96738302Y-62114092D01*
X96605908Y-61981698D01*
X96450231Y-61877678D01*
X96450227Y-61877676D01*
X96450225Y-61877675D01*
X96277258Y-61806029D01*
X96277248Y-61806026D01*
X96203194Y-61791296D01*
X96093616Y-61769500D01*
X95906384Y-61769500D01*
X95814986Y-61787680D01*
X95722751Y-61806026D01*
X95722741Y-61806029D01*
X95549774Y-61877675D01*
X95549770Y-61877677D01*
X95549769Y-61877678D01*
X95510195Y-61904120D01*
X95394092Y-61981697D01*
X95261697Y-62114092D01*
X95157675Y-62269774D01*
X95086029Y-62442741D01*
X95086026Y-62442751D01*
X95071836Y-62514092D01*
X95049500Y-62626384D01*
X93000500Y-62626384D01*
X93000500Y-60086384D01*
X95049500Y-60086384D01*
X95049500Y-60273616D01*
X95073740Y-60395479D01*
X95086026Y-60457248D01*
X95086029Y-60457258D01*
X95157675Y-60630225D01*
X95157676Y-60630227D01*
X95157678Y-60630231D01*
X95261698Y-60785908D01*
X95394092Y-60918302D01*
X95549769Y-61022322D01*
X95568863Y-61030231D01*
X95722741Y-61093970D01*
X95722743Y-61093970D01*
X95722749Y-61093973D01*
X95906384Y-61130500D01*
X95906387Y-61130500D01*
X96093613Y-61130500D01*
X96093616Y-61130500D01*
X96277251Y-61093973D01*
X96450231Y-61022322D01*
X96605908Y-60918302D01*
X96738302Y-60785908D01*
X96842322Y-60630231D01*
X96913973Y-60457251D01*
X96950500Y-60273616D01*
X96950500Y-60086384D01*
X96913973Y-59902749D01*
X96842322Y-59729769D01*
X96738302Y-59574092D01*
X96605908Y-59441698D01*
X96450231Y-59337678D01*
X96450227Y-59337676D01*
X96450225Y-59337675D01*
X96277258Y-59266029D01*
X96277248Y-59266026D01*
X96203194Y-59251296D01*
X96093616Y-59229500D01*
X95906384Y-59229500D01*
X95814986Y-59247680D01*
X95722751Y-59266026D01*
X95722741Y-59266029D01*
X95549774Y-59337675D01*
X95549770Y-59337677D01*
X95549769Y-59337678D01*
X95510195Y-59364120D01*
X95394092Y-59441697D01*
X95261697Y-59574092D01*
X95157675Y-59729774D01*
X95086029Y-59902741D01*
X95086026Y-59902751D01*
X95071836Y-59974092D01*
X95049500Y-60086384D01*
X93000500Y-60086384D01*
X93000500Y-57546384D01*
X95049500Y-57546384D01*
X95049500Y-57733616D01*
X95073740Y-57855479D01*
X95086026Y-57917248D01*
X95086029Y-57917258D01*
X95157675Y-58090225D01*
X95157676Y-58090227D01*
X95157678Y-58090231D01*
X95261698Y-58245908D01*
X95394092Y-58378302D01*
X95549769Y-58482322D01*
X95568863Y-58490231D01*
X95722741Y-58553970D01*
X95722743Y-58553970D01*
X95722749Y-58553973D01*
X95906384Y-58590500D01*
X95906387Y-58590500D01*
X96093613Y-58590500D01*
X96093616Y-58590500D01*
X96277251Y-58553973D01*
X96450231Y-58482322D01*
X96605908Y-58378302D01*
X96738302Y-58245908D01*
X96842322Y-58090231D01*
X96913973Y-57917251D01*
X96950500Y-57733616D01*
X96950500Y-57546384D01*
X96913973Y-57362749D01*
X96880900Y-57282905D01*
X96842324Y-57189774D01*
X96842322Y-57189769D01*
X96738302Y-57034092D01*
X96605908Y-56901698D01*
X96450231Y-56797678D01*
X96450227Y-56797676D01*
X96450225Y-56797675D01*
X96277258Y-56726029D01*
X96277248Y-56726026D01*
X96203194Y-56711296D01*
X96093616Y-56689500D01*
X95906384Y-56689500D01*
X95814986Y-56707680D01*
X95722751Y-56726026D01*
X95722741Y-56726029D01*
X95549774Y-56797675D01*
X95549770Y-56797677D01*
X95549769Y-56797678D01*
X95529387Y-56811297D01*
X95394092Y-56901697D01*
X95261697Y-57034092D01*
X95157675Y-57189774D01*
X95086029Y-57362741D01*
X95086026Y-57362751D01*
X95071836Y-57434092D01*
X95049500Y-57546384D01*
X93000500Y-57546384D01*
X93000500Y-55006384D01*
X95049500Y-55006384D01*
X95049500Y-55193616D01*
X95073740Y-55315479D01*
X95086026Y-55377248D01*
X95086029Y-55377258D01*
X95157675Y-55550225D01*
X95157676Y-55550227D01*
X95157678Y-55550231D01*
X95261698Y-55705908D01*
X95394092Y-55838302D01*
X95549769Y-55942322D01*
X95568863Y-55950231D01*
X95722741Y-56013970D01*
X95722743Y-56013970D01*
X95722749Y-56013973D01*
X95906384Y-56050500D01*
X95906387Y-56050500D01*
X96093613Y-56050500D01*
X96093616Y-56050500D01*
X96277251Y-56013973D01*
X96450231Y-55942322D01*
X96605908Y-55838302D01*
X96738302Y-55705908D01*
X96842322Y-55550231D01*
X96913973Y-55377251D01*
X96950500Y-55193616D01*
X96950500Y-55006384D01*
X96913973Y-54822749D01*
X96842322Y-54649769D01*
X96738302Y-54494092D01*
X96605908Y-54361698D01*
X96601855Y-54358990D01*
X96526785Y-54308830D01*
X96450231Y-54257678D01*
X96450227Y-54257676D01*
X96450225Y-54257675D01*
X96277258Y-54186029D01*
X96277248Y-54186026D01*
X96203194Y-54171296D01*
X96093616Y-54149500D01*
X95906384Y-54149500D01*
X95814986Y-54167680D01*
X95722751Y-54186026D01*
X95722741Y-54186029D01*
X95549774Y-54257675D01*
X95549770Y-54257677D01*
X95549769Y-54257678D01*
X95524593Y-54274500D01*
X95394092Y-54361697D01*
X95261697Y-54494092D01*
X95157675Y-54649774D01*
X95086029Y-54822741D01*
X95086026Y-54822751D01*
X95071836Y-54894092D01*
X95049500Y-55006384D01*
X93000500Y-55006384D01*
X93000500Y-52466384D01*
X95049500Y-52466384D01*
X95049500Y-52653616D01*
X95070690Y-52760148D01*
X95086026Y-52837248D01*
X95086029Y-52837258D01*
X95157675Y-53010225D01*
X95157676Y-53010227D01*
X95157678Y-53010231D01*
X95261698Y-53165908D01*
X95394092Y-53298302D01*
X95549769Y-53402322D01*
X95568863Y-53410231D01*
X95722741Y-53473970D01*
X95722743Y-53473970D01*
X95722749Y-53473973D01*
X95906384Y-53510500D01*
X95906387Y-53510500D01*
X96093613Y-53510500D01*
X96093616Y-53510500D01*
X96277251Y-53473973D01*
X96450231Y-53402322D01*
X96605908Y-53298302D01*
X96738302Y-53165908D01*
X96842322Y-53010231D01*
X96913973Y-52837251D01*
X96950500Y-52653616D01*
X96950500Y-52466384D01*
X96913973Y-52282749D01*
X96842322Y-52109769D01*
X96738302Y-51954092D01*
X96605908Y-51821698D01*
X96450231Y-51717678D01*
X96450227Y-51717676D01*
X96450225Y-51717675D01*
X96277258Y-51646029D01*
X96277248Y-51646026D01*
X96182540Y-51627188D01*
X96093616Y-51609500D01*
X95906384Y-51609500D01*
X95817460Y-51627188D01*
X95722751Y-51646026D01*
X95722741Y-51646029D01*
X95549774Y-51717675D01*
X95549770Y-51717677D01*
X95549769Y-51717678D01*
X95529465Y-51731245D01*
X95394092Y-51821697D01*
X95261697Y-51954092D01*
X95157675Y-52109774D01*
X95086029Y-52282741D01*
X95086026Y-52282751D01*
X95071836Y-52354092D01*
X95049500Y-52466384D01*
X93000500Y-52466384D01*
X93000500Y-49913753D01*
X94650000Y-49913753D01*
X94650000Y-50126246D01*
X94683241Y-50336123D01*
X94683242Y-50336126D01*
X94748905Y-50538218D01*
X94845378Y-50727556D01*
X94845380Y-50727560D01*
X94884727Y-50781716D01*
X94884728Y-50781716D01*
X95517037Y-50149408D01*
X95534075Y-50212993D01*
X95599901Y-50327007D01*
X95692993Y-50420099D01*
X95807007Y-50485925D01*
X95870591Y-50502962D01*
X95238281Y-51135271D01*
X95292440Y-51174619D01*
X95292443Y-51174621D01*
X95481781Y-51271094D01*
X95683873Y-51336757D01*
X95683876Y-51336758D01*
X95893754Y-51370000D01*
X96106246Y-51370000D01*
X96316123Y-51336758D01*
X96316126Y-51336757D01*
X96518218Y-51271094D01*
X96707553Y-51174622D01*
X96761717Y-51135271D01*
X96129408Y-50502962D01*
X96192993Y-50485925D01*
X96307007Y-50420099D01*
X96400099Y-50327007D01*
X96465925Y-50212993D01*
X96482962Y-50149408D01*
X97115271Y-50781717D01*
X97154622Y-50727553D01*
X97251094Y-50538218D01*
X97316757Y-50336126D01*
X97316758Y-50336123D01*
X97350000Y-50126246D01*
X97350000Y-49913753D01*
X97316758Y-49703876D01*
X97316757Y-49703873D01*
X97251094Y-49501781D01*
X97154621Y-49312443D01*
X97154619Y-49312440D01*
X97115271Y-49258281D01*
X96482962Y-49890590D01*
X96465925Y-49827007D01*
X96400099Y-49712993D01*
X96307007Y-49619901D01*
X96192993Y-49554075D01*
X96129407Y-49537036D01*
X96761716Y-48904728D01*
X96761716Y-48904727D01*
X96707560Y-48865380D01*
X96707556Y-48865378D01*
X96518218Y-48768905D01*
X96316126Y-48703242D01*
X96316123Y-48703241D01*
X96106246Y-48670000D01*
X95893754Y-48670000D01*
X95683876Y-48703241D01*
X95683873Y-48703242D01*
X95481781Y-48768905D01*
X95292447Y-48865376D01*
X95292442Y-48865379D01*
X95238282Y-48904727D01*
X95238282Y-48904728D01*
X95870591Y-49537037D01*
X95807007Y-49554075D01*
X95692993Y-49619901D01*
X95599901Y-49712993D01*
X95534075Y-49827007D01*
X95517037Y-49890591D01*
X94884728Y-49258282D01*
X94884727Y-49258282D01*
X94845379Y-49312442D01*
X94845376Y-49312447D01*
X94748905Y-49501781D01*
X94683242Y-49703873D01*
X94683241Y-49703876D01*
X94650000Y-49913753D01*
X93000500Y-49913753D01*
X93000500Y-42707269D01*
X110374500Y-42707269D01*
X110374500Y-42812730D01*
X110401792Y-42914585D01*
X110401793Y-42914589D01*
X110425210Y-42955147D01*
X110454520Y-43005913D01*
X110529087Y-43080480D01*
X110562513Y-43099778D01*
X110620410Y-43133206D01*
X110620412Y-43133206D01*
X110620413Y-43133207D01*
X110700747Y-43154732D01*
X110722269Y-43160499D01*
X110722270Y-43160500D01*
X110722273Y-43160500D01*
X110827730Y-43160500D01*
X110827730Y-43160499D01*
X110929587Y-43133207D01*
X111020913Y-43080480D01*
X111095480Y-43005913D01*
X111148207Y-42914587D01*
X111175499Y-42812730D01*
X111175500Y-42812730D01*
X111175500Y-42707270D01*
X111175499Y-42707269D01*
X111774500Y-42707269D01*
X111774500Y-42812730D01*
X111801792Y-42914585D01*
X111801793Y-42914589D01*
X111825210Y-42955147D01*
X111854520Y-43005913D01*
X111929087Y-43080480D01*
X111962513Y-43099778D01*
X112020410Y-43133206D01*
X112020412Y-43133206D01*
X112020413Y-43133207D01*
X112100747Y-43154732D01*
X112122269Y-43160499D01*
X112122270Y-43160500D01*
X112122273Y-43160500D01*
X112227730Y-43160500D01*
X112227730Y-43160499D01*
X112329587Y-43133207D01*
X112420913Y-43080480D01*
X112495480Y-43005913D01*
X112548207Y-42914587D01*
X112575499Y-42812730D01*
X112575500Y-42812730D01*
X112575500Y-42707270D01*
X112575499Y-42707269D01*
X113174500Y-42707269D01*
X113174500Y-42812730D01*
X113201792Y-42914585D01*
X113201793Y-42914589D01*
X113225210Y-42955147D01*
X113254520Y-43005913D01*
X113329087Y-43080480D01*
X113362513Y-43099778D01*
X113420410Y-43133206D01*
X113420412Y-43133206D01*
X113420413Y-43133207D01*
X113500747Y-43154732D01*
X113522269Y-43160499D01*
X113522270Y-43160500D01*
X113522273Y-43160500D01*
X113627730Y-43160500D01*
X113627730Y-43160499D01*
X113729587Y-43133207D01*
X113820913Y-43080480D01*
X113895480Y-43005913D01*
X113948207Y-42914587D01*
X113975499Y-42812730D01*
X113975500Y-42812730D01*
X113975500Y-42707270D01*
X113975499Y-42707269D01*
X113948207Y-42605414D01*
X113948206Y-42605410D01*
X113895479Y-42514086D01*
X113820913Y-42439520D01*
X113729589Y-42386793D01*
X113729585Y-42386792D01*
X113627730Y-42359500D01*
X113627727Y-42359500D01*
X113522273Y-42359500D01*
X113522270Y-42359500D01*
X113420414Y-42386792D01*
X113420410Y-42386793D01*
X113329086Y-42439520D01*
X113329086Y-42439521D01*
X113254521Y-42514086D01*
X113254520Y-42514086D01*
X113201793Y-42605410D01*
X113201792Y-42605414D01*
X113174500Y-42707269D01*
X112575499Y-42707269D01*
X112548207Y-42605414D01*
X112548206Y-42605410D01*
X112495479Y-42514086D01*
X112420913Y-42439520D01*
X112329589Y-42386793D01*
X112329585Y-42386792D01*
X112227730Y-42359500D01*
X112227727Y-42359500D01*
X112122273Y-42359500D01*
X112122270Y-42359500D01*
X112020414Y-42386792D01*
X112020410Y-42386793D01*
X111929086Y-42439520D01*
X111929086Y-42439521D01*
X111854521Y-42514086D01*
X111854520Y-42514086D01*
X111801793Y-42605410D01*
X111801792Y-42605414D01*
X111774500Y-42707269D01*
X111175499Y-42707269D01*
X111148207Y-42605414D01*
X111148206Y-42605410D01*
X111095479Y-42514086D01*
X111020913Y-42439520D01*
X110929589Y-42386793D01*
X110929585Y-42386792D01*
X110827730Y-42359500D01*
X110827727Y-42359500D01*
X110722273Y-42359500D01*
X110722270Y-42359500D01*
X110620414Y-42386792D01*
X110620410Y-42386793D01*
X110529086Y-42439520D01*
X110529086Y-42439521D01*
X110454521Y-42514086D01*
X110454520Y-42514086D01*
X110401793Y-42605410D01*
X110401792Y-42605414D01*
X110374500Y-42707269D01*
X93000500Y-42707269D01*
X93000500Y-42007269D01*
X111074500Y-42007269D01*
X111074500Y-42112730D01*
X111101792Y-42214585D01*
X111101793Y-42214589D01*
X111154520Y-42305913D01*
X111229087Y-42380480D01*
X111262513Y-42399778D01*
X111320410Y-42433206D01*
X111320412Y-42433206D01*
X111320413Y-42433207D01*
X111400747Y-42454732D01*
X111422269Y-42460499D01*
X111422270Y-42460500D01*
X111422273Y-42460500D01*
X111527730Y-42460500D01*
X111527730Y-42460499D01*
X111629587Y-42433207D01*
X111720913Y-42380480D01*
X111795480Y-42305913D01*
X111848207Y-42214587D01*
X111875499Y-42112730D01*
X111875500Y-42112730D01*
X111875500Y-42007270D01*
X111875499Y-42007269D01*
X112474500Y-42007269D01*
X112474500Y-42112730D01*
X112501792Y-42214585D01*
X112501793Y-42214589D01*
X112554520Y-42305913D01*
X112629087Y-42380480D01*
X112662513Y-42399778D01*
X112720410Y-42433206D01*
X112720412Y-42433206D01*
X112720413Y-42433207D01*
X112800747Y-42454732D01*
X112822269Y-42460499D01*
X112822270Y-42460500D01*
X112822273Y-42460500D01*
X112927730Y-42460500D01*
X112927730Y-42460499D01*
X113029587Y-42433207D01*
X113120913Y-42380480D01*
X113195480Y-42305913D01*
X113248207Y-42214587D01*
X113275499Y-42112730D01*
X113275500Y-42112730D01*
X113275500Y-42007270D01*
X113275499Y-42007269D01*
X113248207Y-41905414D01*
X113248206Y-41905410D01*
X113195479Y-41814086D01*
X113120913Y-41739520D01*
X113029589Y-41686793D01*
X113029585Y-41686792D01*
X112927730Y-41659500D01*
X112927727Y-41659500D01*
X112822273Y-41659500D01*
X112822270Y-41659500D01*
X112720414Y-41686792D01*
X112720410Y-41686793D01*
X112629086Y-41739520D01*
X112629086Y-41739521D01*
X112554521Y-41814086D01*
X112554520Y-41814086D01*
X112501793Y-41905410D01*
X112501792Y-41905414D01*
X112474500Y-42007269D01*
X111875499Y-42007269D01*
X111848207Y-41905414D01*
X111848206Y-41905410D01*
X111795479Y-41814086D01*
X111720913Y-41739520D01*
X111629589Y-41686793D01*
X111629585Y-41686792D01*
X111527730Y-41659500D01*
X111527727Y-41659500D01*
X111422273Y-41659500D01*
X111422270Y-41659500D01*
X111320414Y-41686792D01*
X111320410Y-41686793D01*
X111229086Y-41739520D01*
X111229086Y-41739521D01*
X111154521Y-41814086D01*
X111154520Y-41814086D01*
X111101793Y-41905410D01*
X111101792Y-41905414D01*
X111074500Y-42007269D01*
X93000500Y-42007269D01*
X93000500Y-34299000D01*
X93014852Y-34264352D01*
X93049500Y-34250000D01*
X134450500Y-34250000D01*
X134485148Y-34264352D01*
G37*
%TD.AperFunction*%
%TD*%
M02*
