%TF.GenerationSoftware,KiCad,Pcbnew,9.0.3*%
%TF.CreationDate,2025-08-18T17:13:01-04:00*%
%TF.ProjectId,bioimpedance,62696f69-6d70-4656-9461-6e63652e6b69,rev?*%
%TF.SameCoordinates,Original*%
%TF.FileFunction,Legend,Top*%
%TF.FilePolarity,Positive*%
%FSLAX46Y46*%
G04 Gerber Fmt 4.6, Leading zero omitted, Abs format (unit mm)*
G04 Created by KiCad (PCBNEW 9.0.3) date 2025-08-18 17:13:01*
%MOMM*%
%LPD*%
G01*
G04 APERTURE LIST*
%ADD10C,0.150000*%
%ADD11C,0.120000*%
%ADD12C,0.200000*%
%ADD13C,0.127000*%
G04 APERTURE END LIST*
D10*
X105323333Y-77954819D02*
X104990000Y-77478628D01*
X104751905Y-77954819D02*
X104751905Y-76954819D01*
X104751905Y-76954819D02*
X105132857Y-76954819D01*
X105132857Y-76954819D02*
X105228095Y-77002438D01*
X105228095Y-77002438D02*
X105275714Y-77050057D01*
X105275714Y-77050057D02*
X105323333Y-77145295D01*
X105323333Y-77145295D02*
X105323333Y-77288152D01*
X105323333Y-77288152D02*
X105275714Y-77383390D01*
X105275714Y-77383390D02*
X105228095Y-77431009D01*
X105228095Y-77431009D02*
X105132857Y-77478628D01*
X105132857Y-77478628D02*
X104751905Y-77478628D01*
X105656667Y-76954819D02*
X106275714Y-76954819D01*
X106275714Y-76954819D02*
X105942381Y-77335771D01*
X105942381Y-77335771D02*
X106085238Y-77335771D01*
X106085238Y-77335771D02*
X106180476Y-77383390D01*
X106180476Y-77383390D02*
X106228095Y-77431009D01*
X106228095Y-77431009D02*
X106275714Y-77526247D01*
X106275714Y-77526247D02*
X106275714Y-77764342D01*
X106275714Y-77764342D02*
X106228095Y-77859580D01*
X106228095Y-77859580D02*
X106180476Y-77907200D01*
X106180476Y-77907200D02*
X106085238Y-77954819D01*
X106085238Y-77954819D02*
X105799524Y-77954819D01*
X105799524Y-77954819D02*
X105704286Y-77907200D01*
X105704286Y-77907200D02*
X105656667Y-77859580D01*
X124847142Y-70359580D02*
X124799523Y-70407200D01*
X124799523Y-70407200D02*
X124656666Y-70454819D01*
X124656666Y-70454819D02*
X124561428Y-70454819D01*
X124561428Y-70454819D02*
X124418571Y-70407200D01*
X124418571Y-70407200D02*
X124323333Y-70311961D01*
X124323333Y-70311961D02*
X124275714Y-70216723D01*
X124275714Y-70216723D02*
X124228095Y-70026247D01*
X124228095Y-70026247D02*
X124228095Y-69883390D01*
X124228095Y-69883390D02*
X124275714Y-69692914D01*
X124275714Y-69692914D02*
X124323333Y-69597676D01*
X124323333Y-69597676D02*
X124418571Y-69502438D01*
X124418571Y-69502438D02*
X124561428Y-69454819D01*
X124561428Y-69454819D02*
X124656666Y-69454819D01*
X124656666Y-69454819D02*
X124799523Y-69502438D01*
X124799523Y-69502438D02*
X124847142Y-69550057D01*
X125799523Y-70454819D02*
X125228095Y-70454819D01*
X125513809Y-70454819D02*
X125513809Y-69454819D01*
X125513809Y-69454819D02*
X125418571Y-69597676D01*
X125418571Y-69597676D02*
X125323333Y-69692914D01*
X125323333Y-69692914D02*
X125228095Y-69740533D01*
X126418571Y-69454819D02*
X126513809Y-69454819D01*
X126513809Y-69454819D02*
X126609047Y-69502438D01*
X126609047Y-69502438D02*
X126656666Y-69550057D01*
X126656666Y-69550057D02*
X126704285Y-69645295D01*
X126704285Y-69645295D02*
X126751904Y-69835771D01*
X126751904Y-69835771D02*
X126751904Y-70073866D01*
X126751904Y-70073866D02*
X126704285Y-70264342D01*
X126704285Y-70264342D02*
X126656666Y-70359580D01*
X126656666Y-70359580D02*
X126609047Y-70407200D01*
X126609047Y-70407200D02*
X126513809Y-70454819D01*
X126513809Y-70454819D02*
X126418571Y-70454819D01*
X126418571Y-70454819D02*
X126323333Y-70407200D01*
X126323333Y-70407200D02*
X126275714Y-70359580D01*
X126275714Y-70359580D02*
X126228095Y-70264342D01*
X126228095Y-70264342D02*
X126180476Y-70073866D01*
X126180476Y-70073866D02*
X126180476Y-69835771D01*
X126180476Y-69835771D02*
X126228095Y-69645295D01*
X126228095Y-69645295D02*
X126275714Y-69550057D01*
X126275714Y-69550057D02*
X126323333Y-69502438D01*
X126323333Y-69502438D02*
X126418571Y-69454819D01*
X118833333Y-62409580D02*
X118785714Y-62457200D01*
X118785714Y-62457200D02*
X118642857Y-62504819D01*
X118642857Y-62504819D02*
X118547619Y-62504819D01*
X118547619Y-62504819D02*
X118404762Y-62457200D01*
X118404762Y-62457200D02*
X118309524Y-62361961D01*
X118309524Y-62361961D02*
X118261905Y-62266723D01*
X118261905Y-62266723D02*
X118214286Y-62076247D01*
X118214286Y-62076247D02*
X118214286Y-61933390D01*
X118214286Y-61933390D02*
X118261905Y-61742914D01*
X118261905Y-61742914D02*
X118309524Y-61647676D01*
X118309524Y-61647676D02*
X118404762Y-61552438D01*
X118404762Y-61552438D02*
X118547619Y-61504819D01*
X118547619Y-61504819D02*
X118642857Y-61504819D01*
X118642857Y-61504819D02*
X118785714Y-61552438D01*
X118785714Y-61552438D02*
X118833333Y-61600057D01*
X119690476Y-61838152D02*
X119690476Y-62504819D01*
X119452381Y-61457200D02*
X119214286Y-62171485D01*
X119214286Y-62171485D02*
X119833333Y-62171485D01*
X110347142Y-77809580D02*
X110299523Y-77857200D01*
X110299523Y-77857200D02*
X110156666Y-77904819D01*
X110156666Y-77904819D02*
X110061428Y-77904819D01*
X110061428Y-77904819D02*
X109918571Y-77857200D01*
X109918571Y-77857200D02*
X109823333Y-77761961D01*
X109823333Y-77761961D02*
X109775714Y-77666723D01*
X109775714Y-77666723D02*
X109728095Y-77476247D01*
X109728095Y-77476247D02*
X109728095Y-77333390D01*
X109728095Y-77333390D02*
X109775714Y-77142914D01*
X109775714Y-77142914D02*
X109823333Y-77047676D01*
X109823333Y-77047676D02*
X109918571Y-76952438D01*
X109918571Y-76952438D02*
X110061428Y-76904819D01*
X110061428Y-76904819D02*
X110156666Y-76904819D01*
X110156666Y-76904819D02*
X110299523Y-76952438D01*
X110299523Y-76952438D02*
X110347142Y-77000057D01*
X111299523Y-77904819D02*
X110728095Y-77904819D01*
X111013809Y-77904819D02*
X111013809Y-76904819D01*
X111013809Y-76904819D02*
X110918571Y-77047676D01*
X110918571Y-77047676D02*
X110823333Y-77142914D01*
X110823333Y-77142914D02*
X110728095Y-77190533D01*
X112156666Y-76904819D02*
X111966190Y-76904819D01*
X111966190Y-76904819D02*
X111870952Y-76952438D01*
X111870952Y-76952438D02*
X111823333Y-77000057D01*
X111823333Y-77000057D02*
X111728095Y-77142914D01*
X111728095Y-77142914D02*
X111680476Y-77333390D01*
X111680476Y-77333390D02*
X111680476Y-77714342D01*
X111680476Y-77714342D02*
X111728095Y-77809580D01*
X111728095Y-77809580D02*
X111775714Y-77857200D01*
X111775714Y-77857200D02*
X111870952Y-77904819D01*
X111870952Y-77904819D02*
X112061428Y-77904819D01*
X112061428Y-77904819D02*
X112156666Y-77857200D01*
X112156666Y-77857200D02*
X112204285Y-77809580D01*
X112204285Y-77809580D02*
X112251904Y-77714342D01*
X112251904Y-77714342D02*
X112251904Y-77476247D01*
X112251904Y-77476247D02*
X112204285Y-77381009D01*
X112204285Y-77381009D02*
X112156666Y-77333390D01*
X112156666Y-77333390D02*
X112061428Y-77285771D01*
X112061428Y-77285771D02*
X111870952Y-77285771D01*
X111870952Y-77285771D02*
X111775714Y-77333390D01*
X111775714Y-77333390D02*
X111728095Y-77381009D01*
X111728095Y-77381009D02*
X111680476Y-77476247D01*
X105323333Y-79954819D02*
X104990000Y-79478628D01*
X104751905Y-79954819D02*
X104751905Y-78954819D01*
X104751905Y-78954819D02*
X105132857Y-78954819D01*
X105132857Y-78954819D02*
X105228095Y-79002438D01*
X105228095Y-79002438D02*
X105275714Y-79050057D01*
X105275714Y-79050057D02*
X105323333Y-79145295D01*
X105323333Y-79145295D02*
X105323333Y-79288152D01*
X105323333Y-79288152D02*
X105275714Y-79383390D01*
X105275714Y-79383390D02*
X105228095Y-79431009D01*
X105228095Y-79431009D02*
X105132857Y-79478628D01*
X105132857Y-79478628D02*
X104751905Y-79478628D01*
X106180476Y-78954819D02*
X105990000Y-78954819D01*
X105990000Y-78954819D02*
X105894762Y-79002438D01*
X105894762Y-79002438D02*
X105847143Y-79050057D01*
X105847143Y-79050057D02*
X105751905Y-79192914D01*
X105751905Y-79192914D02*
X105704286Y-79383390D01*
X105704286Y-79383390D02*
X105704286Y-79764342D01*
X105704286Y-79764342D02*
X105751905Y-79859580D01*
X105751905Y-79859580D02*
X105799524Y-79907200D01*
X105799524Y-79907200D02*
X105894762Y-79954819D01*
X105894762Y-79954819D02*
X106085238Y-79954819D01*
X106085238Y-79954819D02*
X106180476Y-79907200D01*
X106180476Y-79907200D02*
X106228095Y-79859580D01*
X106228095Y-79859580D02*
X106275714Y-79764342D01*
X106275714Y-79764342D02*
X106275714Y-79526247D01*
X106275714Y-79526247D02*
X106228095Y-79431009D01*
X106228095Y-79431009D02*
X106180476Y-79383390D01*
X106180476Y-79383390D02*
X106085238Y-79335771D01*
X106085238Y-79335771D02*
X105894762Y-79335771D01*
X105894762Y-79335771D02*
X105799524Y-79383390D01*
X105799524Y-79383390D02*
X105751905Y-79431009D01*
X105751905Y-79431009D02*
X105704286Y-79526247D01*
X107323333Y-61859580D02*
X107275714Y-61907200D01*
X107275714Y-61907200D02*
X107132857Y-61954819D01*
X107132857Y-61954819D02*
X107037619Y-61954819D01*
X107037619Y-61954819D02*
X106894762Y-61907200D01*
X106894762Y-61907200D02*
X106799524Y-61811961D01*
X106799524Y-61811961D02*
X106751905Y-61716723D01*
X106751905Y-61716723D02*
X106704286Y-61526247D01*
X106704286Y-61526247D02*
X106704286Y-61383390D01*
X106704286Y-61383390D02*
X106751905Y-61192914D01*
X106751905Y-61192914D02*
X106799524Y-61097676D01*
X106799524Y-61097676D02*
X106894762Y-61002438D01*
X106894762Y-61002438D02*
X107037619Y-60954819D01*
X107037619Y-60954819D02*
X107132857Y-60954819D01*
X107132857Y-60954819D02*
X107275714Y-61002438D01*
X107275714Y-61002438D02*
X107323333Y-61050057D01*
X107704286Y-61050057D02*
X107751905Y-61002438D01*
X107751905Y-61002438D02*
X107847143Y-60954819D01*
X107847143Y-60954819D02*
X108085238Y-60954819D01*
X108085238Y-60954819D02*
X108180476Y-61002438D01*
X108180476Y-61002438D02*
X108228095Y-61050057D01*
X108228095Y-61050057D02*
X108275714Y-61145295D01*
X108275714Y-61145295D02*
X108275714Y-61240533D01*
X108275714Y-61240533D02*
X108228095Y-61383390D01*
X108228095Y-61383390D02*
X107656667Y-61954819D01*
X107656667Y-61954819D02*
X108275714Y-61954819D01*
X117817142Y-82309580D02*
X117769523Y-82357200D01*
X117769523Y-82357200D02*
X117626666Y-82404819D01*
X117626666Y-82404819D02*
X117531428Y-82404819D01*
X117531428Y-82404819D02*
X117388571Y-82357200D01*
X117388571Y-82357200D02*
X117293333Y-82261961D01*
X117293333Y-82261961D02*
X117245714Y-82166723D01*
X117245714Y-82166723D02*
X117198095Y-81976247D01*
X117198095Y-81976247D02*
X117198095Y-81833390D01*
X117198095Y-81833390D02*
X117245714Y-81642914D01*
X117245714Y-81642914D02*
X117293333Y-81547676D01*
X117293333Y-81547676D02*
X117388571Y-81452438D01*
X117388571Y-81452438D02*
X117531428Y-81404819D01*
X117531428Y-81404819D02*
X117626666Y-81404819D01*
X117626666Y-81404819D02*
X117769523Y-81452438D01*
X117769523Y-81452438D02*
X117817142Y-81500057D01*
X118769523Y-82404819D02*
X118198095Y-82404819D01*
X118483809Y-82404819D02*
X118483809Y-81404819D01*
X118483809Y-81404819D02*
X118388571Y-81547676D01*
X118388571Y-81547676D02*
X118293333Y-81642914D01*
X118293333Y-81642914D02*
X118198095Y-81690533D01*
X119245714Y-82404819D02*
X119436190Y-82404819D01*
X119436190Y-82404819D02*
X119531428Y-82357200D01*
X119531428Y-82357200D02*
X119579047Y-82309580D01*
X119579047Y-82309580D02*
X119674285Y-82166723D01*
X119674285Y-82166723D02*
X119721904Y-81976247D01*
X119721904Y-81976247D02*
X119721904Y-81595295D01*
X119721904Y-81595295D02*
X119674285Y-81500057D01*
X119674285Y-81500057D02*
X119626666Y-81452438D01*
X119626666Y-81452438D02*
X119531428Y-81404819D01*
X119531428Y-81404819D02*
X119340952Y-81404819D01*
X119340952Y-81404819D02*
X119245714Y-81452438D01*
X119245714Y-81452438D02*
X119198095Y-81500057D01*
X119198095Y-81500057D02*
X119150476Y-81595295D01*
X119150476Y-81595295D02*
X119150476Y-81833390D01*
X119150476Y-81833390D02*
X119198095Y-81928628D01*
X119198095Y-81928628D02*
X119245714Y-81976247D01*
X119245714Y-81976247D02*
X119340952Y-82023866D01*
X119340952Y-82023866D02*
X119531428Y-82023866D01*
X119531428Y-82023866D02*
X119626666Y-81976247D01*
X119626666Y-81976247D02*
X119674285Y-81928628D01*
X119674285Y-81928628D02*
X119721904Y-81833390D01*
X104347142Y-67859580D02*
X104299523Y-67907200D01*
X104299523Y-67907200D02*
X104156666Y-67954819D01*
X104156666Y-67954819D02*
X104061428Y-67954819D01*
X104061428Y-67954819D02*
X103918571Y-67907200D01*
X103918571Y-67907200D02*
X103823333Y-67811961D01*
X103823333Y-67811961D02*
X103775714Y-67716723D01*
X103775714Y-67716723D02*
X103728095Y-67526247D01*
X103728095Y-67526247D02*
X103728095Y-67383390D01*
X103728095Y-67383390D02*
X103775714Y-67192914D01*
X103775714Y-67192914D02*
X103823333Y-67097676D01*
X103823333Y-67097676D02*
X103918571Y-67002438D01*
X103918571Y-67002438D02*
X104061428Y-66954819D01*
X104061428Y-66954819D02*
X104156666Y-66954819D01*
X104156666Y-66954819D02*
X104299523Y-67002438D01*
X104299523Y-67002438D02*
X104347142Y-67050057D01*
X104728095Y-67050057D02*
X104775714Y-67002438D01*
X104775714Y-67002438D02*
X104870952Y-66954819D01*
X104870952Y-66954819D02*
X105109047Y-66954819D01*
X105109047Y-66954819D02*
X105204285Y-67002438D01*
X105204285Y-67002438D02*
X105251904Y-67050057D01*
X105251904Y-67050057D02*
X105299523Y-67145295D01*
X105299523Y-67145295D02*
X105299523Y-67240533D01*
X105299523Y-67240533D02*
X105251904Y-67383390D01*
X105251904Y-67383390D02*
X104680476Y-67954819D01*
X104680476Y-67954819D02*
X105299523Y-67954819D01*
X105632857Y-66954819D02*
X106251904Y-66954819D01*
X106251904Y-66954819D02*
X105918571Y-67335771D01*
X105918571Y-67335771D02*
X106061428Y-67335771D01*
X106061428Y-67335771D02*
X106156666Y-67383390D01*
X106156666Y-67383390D02*
X106204285Y-67431009D01*
X106204285Y-67431009D02*
X106251904Y-67526247D01*
X106251904Y-67526247D02*
X106251904Y-67764342D01*
X106251904Y-67764342D02*
X106204285Y-67859580D01*
X106204285Y-67859580D02*
X106156666Y-67907200D01*
X106156666Y-67907200D02*
X106061428Y-67954819D01*
X106061428Y-67954819D02*
X105775714Y-67954819D01*
X105775714Y-67954819D02*
X105680476Y-67907200D01*
X105680476Y-67907200D02*
X105632857Y-67859580D01*
X113347142Y-77809580D02*
X113299523Y-77857200D01*
X113299523Y-77857200D02*
X113156666Y-77904819D01*
X113156666Y-77904819D02*
X113061428Y-77904819D01*
X113061428Y-77904819D02*
X112918571Y-77857200D01*
X112918571Y-77857200D02*
X112823333Y-77761961D01*
X112823333Y-77761961D02*
X112775714Y-77666723D01*
X112775714Y-77666723D02*
X112728095Y-77476247D01*
X112728095Y-77476247D02*
X112728095Y-77333390D01*
X112728095Y-77333390D02*
X112775714Y-77142914D01*
X112775714Y-77142914D02*
X112823333Y-77047676D01*
X112823333Y-77047676D02*
X112918571Y-76952438D01*
X112918571Y-76952438D02*
X113061428Y-76904819D01*
X113061428Y-76904819D02*
X113156666Y-76904819D01*
X113156666Y-76904819D02*
X113299523Y-76952438D01*
X113299523Y-76952438D02*
X113347142Y-77000057D01*
X114299523Y-77904819D02*
X113728095Y-77904819D01*
X114013809Y-77904819D02*
X114013809Y-76904819D01*
X114013809Y-76904819D02*
X113918571Y-77047676D01*
X113918571Y-77047676D02*
X113823333Y-77142914D01*
X113823333Y-77142914D02*
X113728095Y-77190533D01*
X115204285Y-76904819D02*
X114728095Y-76904819D01*
X114728095Y-76904819D02*
X114680476Y-77381009D01*
X114680476Y-77381009D02*
X114728095Y-77333390D01*
X114728095Y-77333390D02*
X114823333Y-77285771D01*
X114823333Y-77285771D02*
X115061428Y-77285771D01*
X115061428Y-77285771D02*
X115156666Y-77333390D01*
X115156666Y-77333390D02*
X115204285Y-77381009D01*
X115204285Y-77381009D02*
X115251904Y-77476247D01*
X115251904Y-77476247D02*
X115251904Y-77714342D01*
X115251904Y-77714342D02*
X115204285Y-77809580D01*
X115204285Y-77809580D02*
X115156666Y-77857200D01*
X115156666Y-77857200D02*
X115061428Y-77904819D01*
X115061428Y-77904819D02*
X114823333Y-77904819D01*
X114823333Y-77904819D02*
X114728095Y-77857200D01*
X114728095Y-77857200D02*
X114680476Y-77809580D01*
X121357142Y-77809580D02*
X121309523Y-77857200D01*
X121309523Y-77857200D02*
X121166666Y-77904819D01*
X121166666Y-77904819D02*
X121071428Y-77904819D01*
X121071428Y-77904819D02*
X120928571Y-77857200D01*
X120928571Y-77857200D02*
X120833333Y-77761961D01*
X120833333Y-77761961D02*
X120785714Y-77666723D01*
X120785714Y-77666723D02*
X120738095Y-77476247D01*
X120738095Y-77476247D02*
X120738095Y-77333390D01*
X120738095Y-77333390D02*
X120785714Y-77142914D01*
X120785714Y-77142914D02*
X120833333Y-77047676D01*
X120833333Y-77047676D02*
X120928571Y-76952438D01*
X120928571Y-76952438D02*
X121071428Y-76904819D01*
X121071428Y-76904819D02*
X121166666Y-76904819D01*
X121166666Y-76904819D02*
X121309523Y-76952438D01*
X121309523Y-76952438D02*
X121357142Y-77000057D01*
X122309523Y-77904819D02*
X121738095Y-77904819D01*
X122023809Y-77904819D02*
X122023809Y-76904819D01*
X122023809Y-76904819D02*
X121928571Y-77047676D01*
X121928571Y-77047676D02*
X121833333Y-77142914D01*
X121833333Y-77142914D02*
X121738095Y-77190533D01*
X122642857Y-76904819D02*
X123261904Y-76904819D01*
X123261904Y-76904819D02*
X122928571Y-77285771D01*
X122928571Y-77285771D02*
X123071428Y-77285771D01*
X123071428Y-77285771D02*
X123166666Y-77333390D01*
X123166666Y-77333390D02*
X123214285Y-77381009D01*
X123214285Y-77381009D02*
X123261904Y-77476247D01*
X123261904Y-77476247D02*
X123261904Y-77714342D01*
X123261904Y-77714342D02*
X123214285Y-77809580D01*
X123214285Y-77809580D02*
X123166666Y-77857200D01*
X123166666Y-77857200D02*
X123071428Y-77904819D01*
X123071428Y-77904819D02*
X122785714Y-77904819D01*
X122785714Y-77904819D02*
X122690476Y-77857200D01*
X122690476Y-77857200D02*
X122642857Y-77809580D01*
X115857142Y-62409580D02*
X115809523Y-62457200D01*
X115809523Y-62457200D02*
X115666666Y-62504819D01*
X115666666Y-62504819D02*
X115571428Y-62504819D01*
X115571428Y-62504819D02*
X115428571Y-62457200D01*
X115428571Y-62457200D02*
X115333333Y-62361961D01*
X115333333Y-62361961D02*
X115285714Y-62266723D01*
X115285714Y-62266723D02*
X115238095Y-62076247D01*
X115238095Y-62076247D02*
X115238095Y-61933390D01*
X115238095Y-61933390D02*
X115285714Y-61742914D01*
X115285714Y-61742914D02*
X115333333Y-61647676D01*
X115333333Y-61647676D02*
X115428571Y-61552438D01*
X115428571Y-61552438D02*
X115571428Y-61504819D01*
X115571428Y-61504819D02*
X115666666Y-61504819D01*
X115666666Y-61504819D02*
X115809523Y-61552438D01*
X115809523Y-61552438D02*
X115857142Y-61600057D01*
X116238095Y-61600057D02*
X116285714Y-61552438D01*
X116285714Y-61552438D02*
X116380952Y-61504819D01*
X116380952Y-61504819D02*
X116619047Y-61504819D01*
X116619047Y-61504819D02*
X116714285Y-61552438D01*
X116714285Y-61552438D02*
X116761904Y-61600057D01*
X116761904Y-61600057D02*
X116809523Y-61695295D01*
X116809523Y-61695295D02*
X116809523Y-61790533D01*
X116809523Y-61790533D02*
X116761904Y-61933390D01*
X116761904Y-61933390D02*
X116190476Y-62504819D01*
X116190476Y-62504819D02*
X116809523Y-62504819D01*
X117190476Y-61600057D02*
X117238095Y-61552438D01*
X117238095Y-61552438D02*
X117333333Y-61504819D01*
X117333333Y-61504819D02*
X117571428Y-61504819D01*
X117571428Y-61504819D02*
X117666666Y-61552438D01*
X117666666Y-61552438D02*
X117714285Y-61600057D01*
X117714285Y-61600057D02*
X117761904Y-61695295D01*
X117761904Y-61695295D02*
X117761904Y-61790533D01*
X117761904Y-61790533D02*
X117714285Y-61933390D01*
X117714285Y-61933390D02*
X117142857Y-62504819D01*
X117142857Y-62504819D02*
X117761904Y-62504819D01*
X106513809Y-64478628D02*
X106513809Y-64954819D01*
X106180476Y-63954819D02*
X106513809Y-64478628D01*
X106513809Y-64478628D02*
X106847142Y-63954819D01*
X107704285Y-64954819D02*
X107132857Y-64954819D01*
X107418571Y-64954819D02*
X107418571Y-63954819D01*
X107418571Y-63954819D02*
X107323333Y-64097676D01*
X107323333Y-64097676D02*
X107228095Y-64192914D01*
X107228095Y-64192914D02*
X107132857Y-64240533D01*
X115857142Y-72759580D02*
X115809523Y-72807200D01*
X115809523Y-72807200D02*
X115666666Y-72854819D01*
X115666666Y-72854819D02*
X115571428Y-72854819D01*
X115571428Y-72854819D02*
X115428571Y-72807200D01*
X115428571Y-72807200D02*
X115333333Y-72711961D01*
X115333333Y-72711961D02*
X115285714Y-72616723D01*
X115285714Y-72616723D02*
X115238095Y-72426247D01*
X115238095Y-72426247D02*
X115238095Y-72283390D01*
X115238095Y-72283390D02*
X115285714Y-72092914D01*
X115285714Y-72092914D02*
X115333333Y-71997676D01*
X115333333Y-71997676D02*
X115428571Y-71902438D01*
X115428571Y-71902438D02*
X115571428Y-71854819D01*
X115571428Y-71854819D02*
X115666666Y-71854819D01*
X115666666Y-71854819D02*
X115809523Y-71902438D01*
X115809523Y-71902438D02*
X115857142Y-71950057D01*
X116809523Y-72854819D02*
X116238095Y-72854819D01*
X116523809Y-72854819D02*
X116523809Y-71854819D01*
X116523809Y-71854819D02*
X116428571Y-71997676D01*
X116428571Y-71997676D02*
X116333333Y-72092914D01*
X116333333Y-72092914D02*
X116238095Y-72140533D01*
X117380952Y-72283390D02*
X117285714Y-72235771D01*
X117285714Y-72235771D02*
X117238095Y-72188152D01*
X117238095Y-72188152D02*
X117190476Y-72092914D01*
X117190476Y-72092914D02*
X117190476Y-72045295D01*
X117190476Y-72045295D02*
X117238095Y-71950057D01*
X117238095Y-71950057D02*
X117285714Y-71902438D01*
X117285714Y-71902438D02*
X117380952Y-71854819D01*
X117380952Y-71854819D02*
X117571428Y-71854819D01*
X117571428Y-71854819D02*
X117666666Y-71902438D01*
X117666666Y-71902438D02*
X117714285Y-71950057D01*
X117714285Y-71950057D02*
X117761904Y-72045295D01*
X117761904Y-72045295D02*
X117761904Y-72092914D01*
X117761904Y-72092914D02*
X117714285Y-72188152D01*
X117714285Y-72188152D02*
X117666666Y-72235771D01*
X117666666Y-72235771D02*
X117571428Y-72283390D01*
X117571428Y-72283390D02*
X117380952Y-72283390D01*
X117380952Y-72283390D02*
X117285714Y-72331009D01*
X117285714Y-72331009D02*
X117238095Y-72378628D01*
X117238095Y-72378628D02*
X117190476Y-72473866D01*
X117190476Y-72473866D02*
X117190476Y-72664342D01*
X117190476Y-72664342D02*
X117238095Y-72759580D01*
X117238095Y-72759580D02*
X117285714Y-72807200D01*
X117285714Y-72807200D02*
X117380952Y-72854819D01*
X117380952Y-72854819D02*
X117571428Y-72854819D01*
X117571428Y-72854819D02*
X117666666Y-72807200D01*
X117666666Y-72807200D02*
X117714285Y-72759580D01*
X117714285Y-72759580D02*
X117761904Y-72664342D01*
X117761904Y-72664342D02*
X117761904Y-72473866D01*
X117761904Y-72473866D02*
X117714285Y-72378628D01*
X117714285Y-72378628D02*
X117666666Y-72331009D01*
X117666666Y-72331009D02*
X117571428Y-72283390D01*
X111228095Y-70954819D02*
X111228095Y-71764342D01*
X111228095Y-71764342D02*
X111275714Y-71859580D01*
X111275714Y-71859580D02*
X111323333Y-71907200D01*
X111323333Y-71907200D02*
X111418571Y-71954819D01*
X111418571Y-71954819D02*
X111609047Y-71954819D01*
X111609047Y-71954819D02*
X111704285Y-71907200D01*
X111704285Y-71907200D02*
X111751904Y-71859580D01*
X111751904Y-71859580D02*
X111799523Y-71764342D01*
X111799523Y-71764342D02*
X111799523Y-70954819D01*
X112228095Y-71050057D02*
X112275714Y-71002438D01*
X112275714Y-71002438D02*
X112370952Y-70954819D01*
X112370952Y-70954819D02*
X112609047Y-70954819D01*
X112609047Y-70954819D02*
X112704285Y-71002438D01*
X112704285Y-71002438D02*
X112751904Y-71050057D01*
X112751904Y-71050057D02*
X112799523Y-71145295D01*
X112799523Y-71145295D02*
X112799523Y-71240533D01*
X112799523Y-71240533D02*
X112751904Y-71383390D01*
X112751904Y-71383390D02*
X112180476Y-71954819D01*
X112180476Y-71954819D02*
X112799523Y-71954819D01*
X124847142Y-68359580D02*
X124799523Y-68407200D01*
X124799523Y-68407200D02*
X124656666Y-68454819D01*
X124656666Y-68454819D02*
X124561428Y-68454819D01*
X124561428Y-68454819D02*
X124418571Y-68407200D01*
X124418571Y-68407200D02*
X124323333Y-68311961D01*
X124323333Y-68311961D02*
X124275714Y-68216723D01*
X124275714Y-68216723D02*
X124228095Y-68026247D01*
X124228095Y-68026247D02*
X124228095Y-67883390D01*
X124228095Y-67883390D02*
X124275714Y-67692914D01*
X124275714Y-67692914D02*
X124323333Y-67597676D01*
X124323333Y-67597676D02*
X124418571Y-67502438D01*
X124418571Y-67502438D02*
X124561428Y-67454819D01*
X124561428Y-67454819D02*
X124656666Y-67454819D01*
X124656666Y-67454819D02*
X124799523Y-67502438D01*
X124799523Y-67502438D02*
X124847142Y-67550057D01*
X125799523Y-68454819D02*
X125228095Y-68454819D01*
X125513809Y-68454819D02*
X125513809Y-67454819D01*
X125513809Y-67454819D02*
X125418571Y-67597676D01*
X125418571Y-67597676D02*
X125323333Y-67692914D01*
X125323333Y-67692914D02*
X125228095Y-67740533D01*
X126751904Y-68454819D02*
X126180476Y-68454819D01*
X126466190Y-68454819D02*
X126466190Y-67454819D01*
X126466190Y-67454819D02*
X126370952Y-67597676D01*
X126370952Y-67597676D02*
X126275714Y-67692914D01*
X126275714Y-67692914D02*
X126180476Y-67740533D01*
X104347142Y-71859580D02*
X104299523Y-71907200D01*
X104299523Y-71907200D02*
X104156666Y-71954819D01*
X104156666Y-71954819D02*
X104061428Y-71954819D01*
X104061428Y-71954819D02*
X103918571Y-71907200D01*
X103918571Y-71907200D02*
X103823333Y-71811961D01*
X103823333Y-71811961D02*
X103775714Y-71716723D01*
X103775714Y-71716723D02*
X103728095Y-71526247D01*
X103728095Y-71526247D02*
X103728095Y-71383390D01*
X103728095Y-71383390D02*
X103775714Y-71192914D01*
X103775714Y-71192914D02*
X103823333Y-71097676D01*
X103823333Y-71097676D02*
X103918571Y-71002438D01*
X103918571Y-71002438D02*
X104061428Y-70954819D01*
X104061428Y-70954819D02*
X104156666Y-70954819D01*
X104156666Y-70954819D02*
X104299523Y-71002438D01*
X104299523Y-71002438D02*
X104347142Y-71050057D01*
X105299523Y-71954819D02*
X104728095Y-71954819D01*
X105013809Y-71954819D02*
X105013809Y-70954819D01*
X105013809Y-70954819D02*
X104918571Y-71097676D01*
X104918571Y-71097676D02*
X104823333Y-71192914D01*
X104823333Y-71192914D02*
X104728095Y-71240533D01*
X105632857Y-70954819D02*
X106299523Y-70954819D01*
X106299523Y-70954819D02*
X105870952Y-71954819D01*
X111323333Y-67359580D02*
X111275714Y-67407200D01*
X111275714Y-67407200D02*
X111132857Y-67454819D01*
X111132857Y-67454819D02*
X111037619Y-67454819D01*
X111037619Y-67454819D02*
X110894762Y-67407200D01*
X110894762Y-67407200D02*
X110799524Y-67311961D01*
X110799524Y-67311961D02*
X110751905Y-67216723D01*
X110751905Y-67216723D02*
X110704286Y-67026247D01*
X110704286Y-67026247D02*
X110704286Y-66883390D01*
X110704286Y-66883390D02*
X110751905Y-66692914D01*
X110751905Y-66692914D02*
X110799524Y-66597676D01*
X110799524Y-66597676D02*
X110894762Y-66502438D01*
X110894762Y-66502438D02*
X111037619Y-66454819D01*
X111037619Y-66454819D02*
X111132857Y-66454819D01*
X111132857Y-66454819D02*
X111275714Y-66502438D01*
X111275714Y-66502438D02*
X111323333Y-66550057D01*
X112275714Y-67454819D02*
X111704286Y-67454819D01*
X111990000Y-67454819D02*
X111990000Y-66454819D01*
X111990000Y-66454819D02*
X111894762Y-66597676D01*
X111894762Y-66597676D02*
X111799524Y-66692914D01*
X111799524Y-66692914D02*
X111704286Y-66740533D01*
X117857142Y-77809580D02*
X117809523Y-77857200D01*
X117809523Y-77857200D02*
X117666666Y-77904819D01*
X117666666Y-77904819D02*
X117571428Y-77904819D01*
X117571428Y-77904819D02*
X117428571Y-77857200D01*
X117428571Y-77857200D02*
X117333333Y-77761961D01*
X117333333Y-77761961D02*
X117285714Y-77666723D01*
X117285714Y-77666723D02*
X117238095Y-77476247D01*
X117238095Y-77476247D02*
X117238095Y-77333390D01*
X117238095Y-77333390D02*
X117285714Y-77142914D01*
X117285714Y-77142914D02*
X117333333Y-77047676D01*
X117333333Y-77047676D02*
X117428571Y-76952438D01*
X117428571Y-76952438D02*
X117571428Y-76904819D01*
X117571428Y-76904819D02*
X117666666Y-76904819D01*
X117666666Y-76904819D02*
X117809523Y-76952438D01*
X117809523Y-76952438D02*
X117857142Y-77000057D01*
X118809523Y-77904819D02*
X118238095Y-77904819D01*
X118523809Y-77904819D02*
X118523809Y-76904819D01*
X118523809Y-76904819D02*
X118428571Y-77047676D01*
X118428571Y-77047676D02*
X118333333Y-77142914D01*
X118333333Y-77142914D02*
X118238095Y-77190533D01*
X119666666Y-77238152D02*
X119666666Y-77904819D01*
X119428571Y-76857200D02*
X119190476Y-77571485D01*
X119190476Y-77571485D02*
X119809523Y-77571485D01*
X124847142Y-72359580D02*
X124799523Y-72407200D01*
X124799523Y-72407200D02*
X124656666Y-72454819D01*
X124656666Y-72454819D02*
X124561428Y-72454819D01*
X124561428Y-72454819D02*
X124418571Y-72407200D01*
X124418571Y-72407200D02*
X124323333Y-72311961D01*
X124323333Y-72311961D02*
X124275714Y-72216723D01*
X124275714Y-72216723D02*
X124228095Y-72026247D01*
X124228095Y-72026247D02*
X124228095Y-71883390D01*
X124228095Y-71883390D02*
X124275714Y-71692914D01*
X124275714Y-71692914D02*
X124323333Y-71597676D01*
X124323333Y-71597676D02*
X124418571Y-71502438D01*
X124418571Y-71502438D02*
X124561428Y-71454819D01*
X124561428Y-71454819D02*
X124656666Y-71454819D01*
X124656666Y-71454819D02*
X124799523Y-71502438D01*
X124799523Y-71502438D02*
X124847142Y-71550057D01*
X125799523Y-72454819D02*
X125228095Y-72454819D01*
X125513809Y-72454819D02*
X125513809Y-71454819D01*
X125513809Y-71454819D02*
X125418571Y-71597676D01*
X125418571Y-71597676D02*
X125323333Y-71692914D01*
X125323333Y-71692914D02*
X125228095Y-71740533D01*
X126180476Y-71550057D02*
X126228095Y-71502438D01*
X126228095Y-71502438D02*
X126323333Y-71454819D01*
X126323333Y-71454819D02*
X126561428Y-71454819D01*
X126561428Y-71454819D02*
X126656666Y-71502438D01*
X126656666Y-71502438D02*
X126704285Y-71550057D01*
X126704285Y-71550057D02*
X126751904Y-71645295D01*
X126751904Y-71645295D02*
X126751904Y-71740533D01*
X126751904Y-71740533D02*
X126704285Y-71883390D01*
X126704285Y-71883390D02*
X126132857Y-72454819D01*
X126132857Y-72454819D02*
X126751904Y-72454819D01*
X128823333Y-73954819D02*
X128490000Y-73478628D01*
X128251905Y-73954819D02*
X128251905Y-72954819D01*
X128251905Y-72954819D02*
X128632857Y-72954819D01*
X128632857Y-72954819D02*
X128728095Y-73002438D01*
X128728095Y-73002438D02*
X128775714Y-73050057D01*
X128775714Y-73050057D02*
X128823333Y-73145295D01*
X128823333Y-73145295D02*
X128823333Y-73288152D01*
X128823333Y-73288152D02*
X128775714Y-73383390D01*
X128775714Y-73383390D02*
X128728095Y-73431009D01*
X128728095Y-73431009D02*
X128632857Y-73478628D01*
X128632857Y-73478628D02*
X128251905Y-73478628D01*
X129204286Y-73050057D02*
X129251905Y-73002438D01*
X129251905Y-73002438D02*
X129347143Y-72954819D01*
X129347143Y-72954819D02*
X129585238Y-72954819D01*
X129585238Y-72954819D02*
X129680476Y-73002438D01*
X129680476Y-73002438D02*
X129728095Y-73050057D01*
X129728095Y-73050057D02*
X129775714Y-73145295D01*
X129775714Y-73145295D02*
X129775714Y-73240533D01*
X129775714Y-73240533D02*
X129728095Y-73383390D01*
X129728095Y-73383390D02*
X129156667Y-73954819D01*
X129156667Y-73954819D02*
X129775714Y-73954819D01*
X105323333Y-75954819D02*
X104990000Y-75478628D01*
X104751905Y-75954819D02*
X104751905Y-74954819D01*
X104751905Y-74954819D02*
X105132857Y-74954819D01*
X105132857Y-74954819D02*
X105228095Y-75002438D01*
X105228095Y-75002438D02*
X105275714Y-75050057D01*
X105275714Y-75050057D02*
X105323333Y-75145295D01*
X105323333Y-75145295D02*
X105323333Y-75288152D01*
X105323333Y-75288152D02*
X105275714Y-75383390D01*
X105275714Y-75383390D02*
X105228095Y-75431009D01*
X105228095Y-75431009D02*
X105132857Y-75478628D01*
X105132857Y-75478628D02*
X104751905Y-75478628D01*
X106228095Y-74954819D02*
X105751905Y-74954819D01*
X105751905Y-74954819D02*
X105704286Y-75431009D01*
X105704286Y-75431009D02*
X105751905Y-75383390D01*
X105751905Y-75383390D02*
X105847143Y-75335771D01*
X105847143Y-75335771D02*
X106085238Y-75335771D01*
X106085238Y-75335771D02*
X106180476Y-75383390D01*
X106180476Y-75383390D02*
X106228095Y-75431009D01*
X106228095Y-75431009D02*
X106275714Y-75526247D01*
X106275714Y-75526247D02*
X106275714Y-75764342D01*
X106275714Y-75764342D02*
X106228095Y-75859580D01*
X106228095Y-75859580D02*
X106180476Y-75907200D01*
X106180476Y-75907200D02*
X106085238Y-75954819D01*
X106085238Y-75954819D02*
X105847143Y-75954819D01*
X105847143Y-75954819D02*
X105751905Y-75907200D01*
X105751905Y-75907200D02*
X105704286Y-75859580D01*
X105323333Y-69859580D02*
X105275714Y-69907200D01*
X105275714Y-69907200D02*
X105132857Y-69954819D01*
X105132857Y-69954819D02*
X105037619Y-69954819D01*
X105037619Y-69954819D02*
X104894762Y-69907200D01*
X104894762Y-69907200D02*
X104799524Y-69811961D01*
X104799524Y-69811961D02*
X104751905Y-69716723D01*
X104751905Y-69716723D02*
X104704286Y-69526247D01*
X104704286Y-69526247D02*
X104704286Y-69383390D01*
X104704286Y-69383390D02*
X104751905Y-69192914D01*
X104751905Y-69192914D02*
X104799524Y-69097676D01*
X104799524Y-69097676D02*
X104894762Y-69002438D01*
X104894762Y-69002438D02*
X105037619Y-68954819D01*
X105037619Y-68954819D02*
X105132857Y-68954819D01*
X105132857Y-68954819D02*
X105275714Y-69002438D01*
X105275714Y-69002438D02*
X105323333Y-69050057D01*
X105799524Y-69954819D02*
X105990000Y-69954819D01*
X105990000Y-69954819D02*
X106085238Y-69907200D01*
X106085238Y-69907200D02*
X106132857Y-69859580D01*
X106132857Y-69859580D02*
X106228095Y-69716723D01*
X106228095Y-69716723D02*
X106275714Y-69526247D01*
X106275714Y-69526247D02*
X106275714Y-69145295D01*
X106275714Y-69145295D02*
X106228095Y-69050057D01*
X106228095Y-69050057D02*
X106180476Y-69002438D01*
X106180476Y-69002438D02*
X106085238Y-68954819D01*
X106085238Y-68954819D02*
X105894762Y-68954819D01*
X105894762Y-68954819D02*
X105799524Y-69002438D01*
X105799524Y-69002438D02*
X105751905Y-69050057D01*
X105751905Y-69050057D02*
X105704286Y-69145295D01*
X105704286Y-69145295D02*
X105704286Y-69383390D01*
X105704286Y-69383390D02*
X105751905Y-69478628D01*
X105751905Y-69478628D02*
X105799524Y-69526247D01*
X105799524Y-69526247D02*
X105894762Y-69573866D01*
X105894762Y-69573866D02*
X106085238Y-69573866D01*
X106085238Y-69573866D02*
X106180476Y-69526247D01*
X106180476Y-69526247D02*
X106228095Y-69478628D01*
X106228095Y-69478628D02*
X106275714Y-69383390D01*
X116847142Y-82359580D02*
X116799523Y-82407200D01*
X116799523Y-82407200D02*
X116656666Y-82454819D01*
X116656666Y-82454819D02*
X116561428Y-82454819D01*
X116561428Y-82454819D02*
X116418571Y-82407200D01*
X116418571Y-82407200D02*
X116323333Y-82311961D01*
X116323333Y-82311961D02*
X116275714Y-82216723D01*
X116275714Y-82216723D02*
X116228095Y-82026247D01*
X116228095Y-82026247D02*
X116228095Y-81883390D01*
X116228095Y-81883390D02*
X116275714Y-81692914D01*
X116275714Y-81692914D02*
X116323333Y-81597676D01*
X116323333Y-81597676D02*
X116418571Y-81502438D01*
X116418571Y-81502438D02*
X116561428Y-81454819D01*
X116561428Y-81454819D02*
X116656666Y-81454819D01*
X116656666Y-81454819D02*
X116799523Y-81502438D01*
X116799523Y-81502438D02*
X116847142Y-81550057D01*
X117228095Y-81550057D02*
X117275714Y-81502438D01*
X117275714Y-81502438D02*
X117370952Y-81454819D01*
X117370952Y-81454819D02*
X117609047Y-81454819D01*
X117609047Y-81454819D02*
X117704285Y-81502438D01*
X117704285Y-81502438D02*
X117751904Y-81550057D01*
X117751904Y-81550057D02*
X117799523Y-81645295D01*
X117799523Y-81645295D02*
X117799523Y-81740533D01*
X117799523Y-81740533D02*
X117751904Y-81883390D01*
X117751904Y-81883390D02*
X117180476Y-82454819D01*
X117180476Y-82454819D02*
X117799523Y-82454819D01*
X118418571Y-81454819D02*
X118513809Y-81454819D01*
X118513809Y-81454819D02*
X118609047Y-81502438D01*
X118609047Y-81502438D02*
X118656666Y-81550057D01*
X118656666Y-81550057D02*
X118704285Y-81645295D01*
X118704285Y-81645295D02*
X118751904Y-81835771D01*
X118751904Y-81835771D02*
X118751904Y-82073866D01*
X118751904Y-82073866D02*
X118704285Y-82264342D01*
X118704285Y-82264342D02*
X118656666Y-82359580D01*
X118656666Y-82359580D02*
X118609047Y-82407200D01*
X118609047Y-82407200D02*
X118513809Y-82454819D01*
X118513809Y-82454819D02*
X118418571Y-82454819D01*
X118418571Y-82454819D02*
X118323333Y-82407200D01*
X118323333Y-82407200D02*
X118275714Y-82359580D01*
X118275714Y-82359580D02*
X118228095Y-82264342D01*
X118228095Y-82264342D02*
X118180476Y-82073866D01*
X118180476Y-82073866D02*
X118180476Y-81835771D01*
X118180476Y-81835771D02*
X118228095Y-81645295D01*
X118228095Y-81645295D02*
X118275714Y-81550057D01*
X118275714Y-81550057D02*
X118323333Y-81502438D01*
X118323333Y-81502438D02*
X118418571Y-81454819D01*
X107323333Y-59859580D02*
X107275714Y-59907200D01*
X107275714Y-59907200D02*
X107132857Y-59954819D01*
X107132857Y-59954819D02*
X107037619Y-59954819D01*
X107037619Y-59954819D02*
X106894762Y-59907200D01*
X106894762Y-59907200D02*
X106799524Y-59811961D01*
X106799524Y-59811961D02*
X106751905Y-59716723D01*
X106751905Y-59716723D02*
X106704286Y-59526247D01*
X106704286Y-59526247D02*
X106704286Y-59383390D01*
X106704286Y-59383390D02*
X106751905Y-59192914D01*
X106751905Y-59192914D02*
X106799524Y-59097676D01*
X106799524Y-59097676D02*
X106894762Y-59002438D01*
X106894762Y-59002438D02*
X107037619Y-58954819D01*
X107037619Y-58954819D02*
X107132857Y-58954819D01*
X107132857Y-58954819D02*
X107275714Y-59002438D01*
X107275714Y-59002438D02*
X107323333Y-59050057D01*
X107656667Y-58954819D02*
X108275714Y-58954819D01*
X108275714Y-58954819D02*
X107942381Y-59335771D01*
X107942381Y-59335771D02*
X108085238Y-59335771D01*
X108085238Y-59335771D02*
X108180476Y-59383390D01*
X108180476Y-59383390D02*
X108228095Y-59431009D01*
X108228095Y-59431009D02*
X108275714Y-59526247D01*
X108275714Y-59526247D02*
X108275714Y-59764342D01*
X108275714Y-59764342D02*
X108228095Y-59859580D01*
X108228095Y-59859580D02*
X108180476Y-59907200D01*
X108180476Y-59907200D02*
X108085238Y-59954819D01*
X108085238Y-59954819D02*
X107799524Y-59954819D01*
X107799524Y-59954819D02*
X107704286Y-59907200D01*
X107704286Y-59907200D02*
X107656667Y-59859580D01*
X124347142Y-66359580D02*
X124299523Y-66407200D01*
X124299523Y-66407200D02*
X124156666Y-66454819D01*
X124156666Y-66454819D02*
X124061428Y-66454819D01*
X124061428Y-66454819D02*
X123918571Y-66407200D01*
X123918571Y-66407200D02*
X123823333Y-66311961D01*
X123823333Y-66311961D02*
X123775714Y-66216723D01*
X123775714Y-66216723D02*
X123728095Y-66026247D01*
X123728095Y-66026247D02*
X123728095Y-65883390D01*
X123728095Y-65883390D02*
X123775714Y-65692914D01*
X123775714Y-65692914D02*
X123823333Y-65597676D01*
X123823333Y-65597676D02*
X123918571Y-65502438D01*
X123918571Y-65502438D02*
X124061428Y-65454819D01*
X124061428Y-65454819D02*
X124156666Y-65454819D01*
X124156666Y-65454819D02*
X124299523Y-65502438D01*
X124299523Y-65502438D02*
X124347142Y-65550057D01*
X124728095Y-65550057D02*
X124775714Y-65502438D01*
X124775714Y-65502438D02*
X124870952Y-65454819D01*
X124870952Y-65454819D02*
X125109047Y-65454819D01*
X125109047Y-65454819D02*
X125204285Y-65502438D01*
X125204285Y-65502438D02*
X125251904Y-65550057D01*
X125251904Y-65550057D02*
X125299523Y-65645295D01*
X125299523Y-65645295D02*
X125299523Y-65740533D01*
X125299523Y-65740533D02*
X125251904Y-65883390D01*
X125251904Y-65883390D02*
X124680476Y-66454819D01*
X124680476Y-66454819D02*
X125299523Y-66454819D01*
X126251904Y-66454819D02*
X125680476Y-66454819D01*
X125966190Y-66454819D02*
X125966190Y-65454819D01*
X125966190Y-65454819D02*
X125870952Y-65597676D01*
X125870952Y-65597676D02*
X125775714Y-65692914D01*
X125775714Y-65692914D02*
X125680476Y-65740533D01*
X105323333Y-73954819D02*
X104990000Y-73478628D01*
X104751905Y-73954819D02*
X104751905Y-72954819D01*
X104751905Y-72954819D02*
X105132857Y-72954819D01*
X105132857Y-72954819D02*
X105228095Y-73002438D01*
X105228095Y-73002438D02*
X105275714Y-73050057D01*
X105275714Y-73050057D02*
X105323333Y-73145295D01*
X105323333Y-73145295D02*
X105323333Y-73288152D01*
X105323333Y-73288152D02*
X105275714Y-73383390D01*
X105275714Y-73383390D02*
X105228095Y-73431009D01*
X105228095Y-73431009D02*
X105132857Y-73478628D01*
X105132857Y-73478628D02*
X104751905Y-73478628D01*
X106180476Y-73288152D02*
X106180476Y-73954819D01*
X105942381Y-72907200D02*
X105704286Y-73621485D01*
X105704286Y-73621485D02*
X106323333Y-73621485D01*
X99166667Y-99647200D02*
X99309524Y-99694819D01*
X99309524Y-99694819D02*
X99547619Y-99694819D01*
X99547619Y-99694819D02*
X99642857Y-99647200D01*
X99642857Y-99647200D02*
X99690476Y-99599580D01*
X99690476Y-99599580D02*
X99738095Y-99504342D01*
X99738095Y-99504342D02*
X99738095Y-99409104D01*
X99738095Y-99409104D02*
X99690476Y-99313866D01*
X99690476Y-99313866D02*
X99642857Y-99266247D01*
X99642857Y-99266247D02*
X99547619Y-99218628D01*
X99547619Y-99218628D02*
X99357143Y-99171009D01*
X99357143Y-99171009D02*
X99261905Y-99123390D01*
X99261905Y-99123390D02*
X99214286Y-99075771D01*
X99214286Y-99075771D02*
X99166667Y-98980533D01*
X99166667Y-98980533D02*
X99166667Y-98885295D01*
X99166667Y-98885295D02*
X99214286Y-98790057D01*
X99214286Y-98790057D02*
X99261905Y-98742438D01*
X99261905Y-98742438D02*
X99357143Y-98694819D01*
X99357143Y-98694819D02*
X99595238Y-98694819D01*
X99595238Y-98694819D02*
X99738095Y-98742438D01*
X100071429Y-98694819D02*
X100309524Y-99694819D01*
X100309524Y-99694819D02*
X100500000Y-98980533D01*
X100500000Y-98980533D02*
X100690476Y-99694819D01*
X100690476Y-99694819D02*
X100928572Y-98694819D01*
X101785714Y-98694819D02*
X101309524Y-98694819D01*
X101309524Y-98694819D02*
X101261905Y-99171009D01*
X101261905Y-99171009D02*
X101309524Y-99123390D01*
X101309524Y-99123390D02*
X101404762Y-99075771D01*
X101404762Y-99075771D02*
X101642857Y-99075771D01*
X101642857Y-99075771D02*
X101738095Y-99123390D01*
X101738095Y-99123390D02*
X101785714Y-99171009D01*
X101785714Y-99171009D02*
X101833333Y-99266247D01*
X101833333Y-99266247D02*
X101833333Y-99504342D01*
X101833333Y-99504342D02*
X101785714Y-99599580D01*
X101785714Y-99599580D02*
X101738095Y-99647200D01*
X101738095Y-99647200D02*
X101642857Y-99694819D01*
X101642857Y-99694819D02*
X101404762Y-99694819D01*
X101404762Y-99694819D02*
X101309524Y-99647200D01*
X101309524Y-99647200D02*
X101261905Y-99599580D01*
X95666666Y-89954819D02*
X95666666Y-90669104D01*
X95666666Y-90669104D02*
X95619047Y-90811961D01*
X95619047Y-90811961D02*
X95523809Y-90907200D01*
X95523809Y-90907200D02*
X95380952Y-90954819D01*
X95380952Y-90954819D02*
X95285714Y-90954819D01*
X96285714Y-90383390D02*
X96190476Y-90335771D01*
X96190476Y-90335771D02*
X96142857Y-90288152D01*
X96142857Y-90288152D02*
X96095238Y-90192914D01*
X96095238Y-90192914D02*
X96095238Y-90145295D01*
X96095238Y-90145295D02*
X96142857Y-90050057D01*
X96142857Y-90050057D02*
X96190476Y-90002438D01*
X96190476Y-90002438D02*
X96285714Y-89954819D01*
X96285714Y-89954819D02*
X96476190Y-89954819D01*
X96476190Y-89954819D02*
X96571428Y-90002438D01*
X96571428Y-90002438D02*
X96619047Y-90050057D01*
X96619047Y-90050057D02*
X96666666Y-90145295D01*
X96666666Y-90145295D02*
X96666666Y-90192914D01*
X96666666Y-90192914D02*
X96619047Y-90288152D01*
X96619047Y-90288152D02*
X96571428Y-90335771D01*
X96571428Y-90335771D02*
X96476190Y-90383390D01*
X96476190Y-90383390D02*
X96285714Y-90383390D01*
X96285714Y-90383390D02*
X96190476Y-90431009D01*
X96190476Y-90431009D02*
X96142857Y-90478628D01*
X96142857Y-90478628D02*
X96095238Y-90573866D01*
X96095238Y-90573866D02*
X96095238Y-90764342D01*
X96095238Y-90764342D02*
X96142857Y-90859580D01*
X96142857Y-90859580D02*
X96190476Y-90907200D01*
X96190476Y-90907200D02*
X96285714Y-90954819D01*
X96285714Y-90954819D02*
X96476190Y-90954819D01*
X96476190Y-90954819D02*
X96571428Y-90907200D01*
X96571428Y-90907200D02*
X96619047Y-90859580D01*
X96619047Y-90859580D02*
X96666666Y-90764342D01*
X96666666Y-90764342D02*
X96666666Y-90573866D01*
X96666666Y-90573866D02*
X96619047Y-90478628D01*
X96619047Y-90478628D02*
X96571428Y-90431009D01*
X96571428Y-90431009D02*
X96476190Y-90383390D01*
X102629819Y-53161904D02*
X103439342Y-53161904D01*
X103439342Y-53161904D02*
X103534580Y-53114285D01*
X103534580Y-53114285D02*
X103582200Y-53066666D01*
X103582200Y-53066666D02*
X103629819Y-52971428D01*
X103629819Y-52971428D02*
X103629819Y-52780952D01*
X103629819Y-52780952D02*
X103582200Y-52685714D01*
X103582200Y-52685714D02*
X103534580Y-52638095D01*
X103534580Y-52638095D02*
X103439342Y-52590476D01*
X103439342Y-52590476D02*
X102629819Y-52590476D01*
X103629819Y-51590476D02*
X103629819Y-52161904D01*
X103629819Y-51876190D02*
X102629819Y-51876190D01*
X102629819Y-51876190D02*
X102772676Y-51971428D01*
X102772676Y-51971428D02*
X102867914Y-52066666D01*
X102867914Y-52066666D02*
X102915533Y-52161904D01*
X96857142Y-37859580D02*
X96809523Y-37907200D01*
X96809523Y-37907200D02*
X96666666Y-37954819D01*
X96666666Y-37954819D02*
X96571428Y-37954819D01*
X96571428Y-37954819D02*
X96428571Y-37907200D01*
X96428571Y-37907200D02*
X96333333Y-37811961D01*
X96333333Y-37811961D02*
X96285714Y-37716723D01*
X96285714Y-37716723D02*
X96238095Y-37526247D01*
X96238095Y-37526247D02*
X96238095Y-37383390D01*
X96238095Y-37383390D02*
X96285714Y-37192914D01*
X96285714Y-37192914D02*
X96333333Y-37097676D01*
X96333333Y-37097676D02*
X96428571Y-37002438D01*
X96428571Y-37002438D02*
X96571428Y-36954819D01*
X96571428Y-36954819D02*
X96666666Y-36954819D01*
X96666666Y-36954819D02*
X96809523Y-37002438D01*
X96809523Y-37002438D02*
X96857142Y-37050057D01*
X97238095Y-37050057D02*
X97285714Y-37002438D01*
X97285714Y-37002438D02*
X97380952Y-36954819D01*
X97380952Y-36954819D02*
X97619047Y-36954819D01*
X97619047Y-36954819D02*
X97714285Y-37002438D01*
X97714285Y-37002438D02*
X97761904Y-37050057D01*
X97761904Y-37050057D02*
X97809523Y-37145295D01*
X97809523Y-37145295D02*
X97809523Y-37240533D01*
X97809523Y-37240533D02*
X97761904Y-37383390D01*
X97761904Y-37383390D02*
X97190476Y-37954819D01*
X97190476Y-37954819D02*
X97809523Y-37954819D01*
X98666666Y-37288152D02*
X98666666Y-37954819D01*
X98428571Y-36907200D02*
X98190476Y-37621485D01*
X98190476Y-37621485D02*
X98809523Y-37621485D01*
X110128295Y-86229819D02*
X110128295Y-87039342D01*
X110128295Y-87039342D02*
X110175914Y-87134580D01*
X110175914Y-87134580D02*
X110223533Y-87182200D01*
X110223533Y-87182200D02*
X110318771Y-87229819D01*
X110318771Y-87229819D02*
X110509247Y-87229819D01*
X110509247Y-87229819D02*
X110604485Y-87182200D01*
X110604485Y-87182200D02*
X110652104Y-87134580D01*
X110652104Y-87134580D02*
X110699723Y-87039342D01*
X110699723Y-87039342D02*
X110699723Y-86229819D01*
X111080676Y-86229819D02*
X111699723Y-86229819D01*
X111699723Y-86229819D02*
X111366390Y-86610771D01*
X111366390Y-86610771D02*
X111509247Y-86610771D01*
X111509247Y-86610771D02*
X111604485Y-86658390D01*
X111604485Y-86658390D02*
X111652104Y-86706009D01*
X111652104Y-86706009D02*
X111699723Y-86801247D01*
X111699723Y-86801247D02*
X111699723Y-87039342D01*
X111699723Y-87039342D02*
X111652104Y-87134580D01*
X111652104Y-87134580D02*
X111604485Y-87182200D01*
X111604485Y-87182200D02*
X111509247Y-87229819D01*
X111509247Y-87229819D02*
X111223533Y-87229819D01*
X111223533Y-87229819D02*
X111128295Y-87182200D01*
X111128295Y-87182200D02*
X111080676Y-87134580D01*
X131166666Y-47494819D02*
X131166666Y-48209104D01*
X131166666Y-48209104D02*
X131119047Y-48351961D01*
X131119047Y-48351961D02*
X131023809Y-48447200D01*
X131023809Y-48447200D02*
X130880952Y-48494819D01*
X130880952Y-48494819D02*
X130785714Y-48494819D01*
X132071428Y-47494819D02*
X131880952Y-47494819D01*
X131880952Y-47494819D02*
X131785714Y-47542438D01*
X131785714Y-47542438D02*
X131738095Y-47590057D01*
X131738095Y-47590057D02*
X131642857Y-47732914D01*
X131642857Y-47732914D02*
X131595238Y-47923390D01*
X131595238Y-47923390D02*
X131595238Y-48304342D01*
X131595238Y-48304342D02*
X131642857Y-48399580D01*
X131642857Y-48399580D02*
X131690476Y-48447200D01*
X131690476Y-48447200D02*
X131785714Y-48494819D01*
X131785714Y-48494819D02*
X131976190Y-48494819D01*
X131976190Y-48494819D02*
X132071428Y-48447200D01*
X132071428Y-48447200D02*
X132119047Y-48399580D01*
X132119047Y-48399580D02*
X132166666Y-48304342D01*
X132166666Y-48304342D02*
X132166666Y-48066247D01*
X132166666Y-48066247D02*
X132119047Y-47971009D01*
X132119047Y-47971009D02*
X132071428Y-47923390D01*
X132071428Y-47923390D02*
X131976190Y-47875771D01*
X131976190Y-47875771D02*
X131785714Y-47875771D01*
X131785714Y-47875771D02*
X131690476Y-47923390D01*
X131690476Y-47923390D02*
X131642857Y-47971009D01*
X131642857Y-47971009D02*
X131595238Y-48066247D01*
X125666667Y-99647200D02*
X125809524Y-99694819D01*
X125809524Y-99694819D02*
X126047619Y-99694819D01*
X126047619Y-99694819D02*
X126142857Y-99647200D01*
X126142857Y-99647200D02*
X126190476Y-99599580D01*
X126190476Y-99599580D02*
X126238095Y-99504342D01*
X126238095Y-99504342D02*
X126238095Y-99409104D01*
X126238095Y-99409104D02*
X126190476Y-99313866D01*
X126190476Y-99313866D02*
X126142857Y-99266247D01*
X126142857Y-99266247D02*
X126047619Y-99218628D01*
X126047619Y-99218628D02*
X125857143Y-99171009D01*
X125857143Y-99171009D02*
X125761905Y-99123390D01*
X125761905Y-99123390D02*
X125714286Y-99075771D01*
X125714286Y-99075771D02*
X125666667Y-98980533D01*
X125666667Y-98980533D02*
X125666667Y-98885295D01*
X125666667Y-98885295D02*
X125714286Y-98790057D01*
X125714286Y-98790057D02*
X125761905Y-98742438D01*
X125761905Y-98742438D02*
X125857143Y-98694819D01*
X125857143Y-98694819D02*
X126095238Y-98694819D01*
X126095238Y-98694819D02*
X126238095Y-98742438D01*
X126571429Y-98694819D02*
X126809524Y-99694819D01*
X126809524Y-99694819D02*
X127000000Y-98980533D01*
X127000000Y-98980533D02*
X127190476Y-99694819D01*
X127190476Y-99694819D02*
X127428572Y-98694819D01*
X128238095Y-98694819D02*
X128047619Y-98694819D01*
X128047619Y-98694819D02*
X127952381Y-98742438D01*
X127952381Y-98742438D02*
X127904762Y-98790057D01*
X127904762Y-98790057D02*
X127809524Y-98932914D01*
X127809524Y-98932914D02*
X127761905Y-99123390D01*
X127761905Y-99123390D02*
X127761905Y-99504342D01*
X127761905Y-99504342D02*
X127809524Y-99599580D01*
X127809524Y-99599580D02*
X127857143Y-99647200D01*
X127857143Y-99647200D02*
X127952381Y-99694819D01*
X127952381Y-99694819D02*
X128142857Y-99694819D01*
X128142857Y-99694819D02*
X128238095Y-99647200D01*
X128238095Y-99647200D02*
X128285714Y-99599580D01*
X128285714Y-99599580D02*
X128333333Y-99504342D01*
X128333333Y-99504342D02*
X128333333Y-99266247D01*
X128333333Y-99266247D02*
X128285714Y-99171009D01*
X128285714Y-99171009D02*
X128238095Y-99123390D01*
X128238095Y-99123390D02*
X128142857Y-99075771D01*
X128142857Y-99075771D02*
X127952381Y-99075771D01*
X127952381Y-99075771D02*
X127857143Y-99123390D01*
X127857143Y-99123390D02*
X127809524Y-99171009D01*
X127809524Y-99171009D02*
X127761905Y-99266247D01*
X106357142Y-98454819D02*
X106023809Y-97978628D01*
X105785714Y-98454819D02*
X105785714Y-97454819D01*
X105785714Y-97454819D02*
X106166666Y-97454819D01*
X106166666Y-97454819D02*
X106261904Y-97502438D01*
X106261904Y-97502438D02*
X106309523Y-97550057D01*
X106309523Y-97550057D02*
X106357142Y-97645295D01*
X106357142Y-97645295D02*
X106357142Y-97788152D01*
X106357142Y-97788152D02*
X106309523Y-97883390D01*
X106309523Y-97883390D02*
X106261904Y-97931009D01*
X106261904Y-97931009D02*
X106166666Y-97978628D01*
X106166666Y-97978628D02*
X105785714Y-97978628D01*
X107309523Y-98454819D02*
X106738095Y-98454819D01*
X107023809Y-98454819D02*
X107023809Y-97454819D01*
X107023809Y-97454819D02*
X106928571Y-97597676D01*
X106928571Y-97597676D02*
X106833333Y-97692914D01*
X106833333Y-97692914D02*
X106738095Y-97740533D01*
X108166666Y-97454819D02*
X107976190Y-97454819D01*
X107976190Y-97454819D02*
X107880952Y-97502438D01*
X107880952Y-97502438D02*
X107833333Y-97550057D01*
X107833333Y-97550057D02*
X107738095Y-97692914D01*
X107738095Y-97692914D02*
X107690476Y-97883390D01*
X107690476Y-97883390D02*
X107690476Y-98264342D01*
X107690476Y-98264342D02*
X107738095Y-98359580D01*
X107738095Y-98359580D02*
X107785714Y-98407200D01*
X107785714Y-98407200D02*
X107880952Y-98454819D01*
X107880952Y-98454819D02*
X108071428Y-98454819D01*
X108071428Y-98454819D02*
X108166666Y-98407200D01*
X108166666Y-98407200D02*
X108214285Y-98359580D01*
X108214285Y-98359580D02*
X108261904Y-98264342D01*
X108261904Y-98264342D02*
X108261904Y-98026247D01*
X108261904Y-98026247D02*
X108214285Y-97931009D01*
X108214285Y-97931009D02*
X108166666Y-97883390D01*
X108166666Y-97883390D02*
X108071428Y-97835771D01*
X108071428Y-97835771D02*
X107880952Y-97835771D01*
X107880952Y-97835771D02*
X107785714Y-97883390D01*
X107785714Y-97883390D02*
X107738095Y-97931009D01*
X107738095Y-97931009D02*
X107690476Y-98026247D01*
X97833333Y-41859580D02*
X97785714Y-41907200D01*
X97785714Y-41907200D02*
X97642857Y-41954819D01*
X97642857Y-41954819D02*
X97547619Y-41954819D01*
X97547619Y-41954819D02*
X97404762Y-41907200D01*
X97404762Y-41907200D02*
X97309524Y-41811961D01*
X97309524Y-41811961D02*
X97261905Y-41716723D01*
X97261905Y-41716723D02*
X97214286Y-41526247D01*
X97214286Y-41526247D02*
X97214286Y-41383390D01*
X97214286Y-41383390D02*
X97261905Y-41192914D01*
X97261905Y-41192914D02*
X97309524Y-41097676D01*
X97309524Y-41097676D02*
X97404762Y-41002438D01*
X97404762Y-41002438D02*
X97547619Y-40954819D01*
X97547619Y-40954819D02*
X97642857Y-40954819D01*
X97642857Y-40954819D02*
X97785714Y-41002438D01*
X97785714Y-41002438D02*
X97833333Y-41050057D01*
X98404762Y-41383390D02*
X98309524Y-41335771D01*
X98309524Y-41335771D02*
X98261905Y-41288152D01*
X98261905Y-41288152D02*
X98214286Y-41192914D01*
X98214286Y-41192914D02*
X98214286Y-41145295D01*
X98214286Y-41145295D02*
X98261905Y-41050057D01*
X98261905Y-41050057D02*
X98309524Y-41002438D01*
X98309524Y-41002438D02*
X98404762Y-40954819D01*
X98404762Y-40954819D02*
X98595238Y-40954819D01*
X98595238Y-40954819D02*
X98690476Y-41002438D01*
X98690476Y-41002438D02*
X98738095Y-41050057D01*
X98738095Y-41050057D02*
X98785714Y-41145295D01*
X98785714Y-41145295D02*
X98785714Y-41192914D01*
X98785714Y-41192914D02*
X98738095Y-41288152D01*
X98738095Y-41288152D02*
X98690476Y-41335771D01*
X98690476Y-41335771D02*
X98595238Y-41383390D01*
X98595238Y-41383390D02*
X98404762Y-41383390D01*
X98404762Y-41383390D02*
X98309524Y-41431009D01*
X98309524Y-41431009D02*
X98261905Y-41478628D01*
X98261905Y-41478628D02*
X98214286Y-41573866D01*
X98214286Y-41573866D02*
X98214286Y-41764342D01*
X98214286Y-41764342D02*
X98261905Y-41859580D01*
X98261905Y-41859580D02*
X98309524Y-41907200D01*
X98309524Y-41907200D02*
X98404762Y-41954819D01*
X98404762Y-41954819D02*
X98595238Y-41954819D01*
X98595238Y-41954819D02*
X98690476Y-41907200D01*
X98690476Y-41907200D02*
X98738095Y-41859580D01*
X98738095Y-41859580D02*
X98785714Y-41764342D01*
X98785714Y-41764342D02*
X98785714Y-41573866D01*
X98785714Y-41573866D02*
X98738095Y-41478628D01*
X98738095Y-41478628D02*
X98690476Y-41431009D01*
X98690476Y-41431009D02*
X98595238Y-41383390D01*
X113833336Y-86954819D02*
X113500003Y-86478628D01*
X113261908Y-86954819D02*
X113261908Y-85954819D01*
X113261908Y-85954819D02*
X113642860Y-85954819D01*
X113642860Y-85954819D02*
X113738098Y-86002438D01*
X113738098Y-86002438D02*
X113785717Y-86050057D01*
X113785717Y-86050057D02*
X113833336Y-86145295D01*
X113833336Y-86145295D02*
X113833336Y-86288152D01*
X113833336Y-86288152D02*
X113785717Y-86383390D01*
X113785717Y-86383390D02*
X113738098Y-86431009D01*
X113738098Y-86431009D02*
X113642860Y-86478628D01*
X113642860Y-86478628D02*
X113261908Y-86478628D01*
X114404765Y-86383390D02*
X114309527Y-86335771D01*
X114309527Y-86335771D02*
X114261908Y-86288152D01*
X114261908Y-86288152D02*
X114214289Y-86192914D01*
X114214289Y-86192914D02*
X114214289Y-86145295D01*
X114214289Y-86145295D02*
X114261908Y-86050057D01*
X114261908Y-86050057D02*
X114309527Y-86002438D01*
X114309527Y-86002438D02*
X114404765Y-85954819D01*
X114404765Y-85954819D02*
X114595241Y-85954819D01*
X114595241Y-85954819D02*
X114690479Y-86002438D01*
X114690479Y-86002438D02*
X114738098Y-86050057D01*
X114738098Y-86050057D02*
X114785717Y-86145295D01*
X114785717Y-86145295D02*
X114785717Y-86192914D01*
X114785717Y-86192914D02*
X114738098Y-86288152D01*
X114738098Y-86288152D02*
X114690479Y-86335771D01*
X114690479Y-86335771D02*
X114595241Y-86383390D01*
X114595241Y-86383390D02*
X114404765Y-86383390D01*
X114404765Y-86383390D02*
X114309527Y-86431009D01*
X114309527Y-86431009D02*
X114261908Y-86478628D01*
X114261908Y-86478628D02*
X114214289Y-86573866D01*
X114214289Y-86573866D02*
X114214289Y-86764342D01*
X114214289Y-86764342D02*
X114261908Y-86859580D01*
X114261908Y-86859580D02*
X114309527Y-86907200D01*
X114309527Y-86907200D02*
X114404765Y-86954819D01*
X114404765Y-86954819D02*
X114595241Y-86954819D01*
X114595241Y-86954819D02*
X114690479Y-86907200D01*
X114690479Y-86907200D02*
X114738098Y-86859580D01*
X114738098Y-86859580D02*
X114785717Y-86764342D01*
X114785717Y-86764342D02*
X114785717Y-86573866D01*
X114785717Y-86573866D02*
X114738098Y-86478628D01*
X114738098Y-86478628D02*
X114690479Y-86431009D01*
X114690479Y-86431009D02*
X114595241Y-86383390D01*
X116628295Y-86229819D02*
X116628295Y-87039342D01*
X116628295Y-87039342D02*
X116675914Y-87134580D01*
X116675914Y-87134580D02*
X116723533Y-87182200D01*
X116723533Y-87182200D02*
X116818771Y-87229819D01*
X116818771Y-87229819D02*
X117009247Y-87229819D01*
X117009247Y-87229819D02*
X117104485Y-87182200D01*
X117104485Y-87182200D02*
X117152104Y-87134580D01*
X117152104Y-87134580D02*
X117199723Y-87039342D01*
X117199723Y-87039342D02*
X117199723Y-86229819D01*
X118104485Y-86563152D02*
X118104485Y-87229819D01*
X117866390Y-86182200D02*
X117628295Y-86896485D01*
X117628295Y-86896485D02*
X118247342Y-86896485D01*
X97833333Y-35859580D02*
X97785714Y-35907200D01*
X97785714Y-35907200D02*
X97642857Y-35954819D01*
X97642857Y-35954819D02*
X97547619Y-35954819D01*
X97547619Y-35954819D02*
X97404762Y-35907200D01*
X97404762Y-35907200D02*
X97309524Y-35811961D01*
X97309524Y-35811961D02*
X97261905Y-35716723D01*
X97261905Y-35716723D02*
X97214286Y-35526247D01*
X97214286Y-35526247D02*
X97214286Y-35383390D01*
X97214286Y-35383390D02*
X97261905Y-35192914D01*
X97261905Y-35192914D02*
X97309524Y-35097676D01*
X97309524Y-35097676D02*
X97404762Y-35002438D01*
X97404762Y-35002438D02*
X97547619Y-34954819D01*
X97547619Y-34954819D02*
X97642857Y-34954819D01*
X97642857Y-34954819D02*
X97785714Y-35002438D01*
X97785714Y-35002438D02*
X97833333Y-35050057D01*
X98738095Y-34954819D02*
X98261905Y-34954819D01*
X98261905Y-34954819D02*
X98214286Y-35431009D01*
X98214286Y-35431009D02*
X98261905Y-35383390D01*
X98261905Y-35383390D02*
X98357143Y-35335771D01*
X98357143Y-35335771D02*
X98595238Y-35335771D01*
X98595238Y-35335771D02*
X98690476Y-35383390D01*
X98690476Y-35383390D02*
X98738095Y-35431009D01*
X98738095Y-35431009D02*
X98785714Y-35526247D01*
X98785714Y-35526247D02*
X98785714Y-35764342D01*
X98785714Y-35764342D02*
X98738095Y-35859580D01*
X98738095Y-35859580D02*
X98690476Y-35907200D01*
X98690476Y-35907200D02*
X98595238Y-35954819D01*
X98595238Y-35954819D02*
X98357143Y-35954819D01*
X98357143Y-35954819D02*
X98261905Y-35907200D01*
X98261905Y-35907200D02*
X98214286Y-35859580D01*
X119857142Y-98454819D02*
X119523809Y-97978628D01*
X119285714Y-98454819D02*
X119285714Y-97454819D01*
X119285714Y-97454819D02*
X119666666Y-97454819D01*
X119666666Y-97454819D02*
X119761904Y-97502438D01*
X119761904Y-97502438D02*
X119809523Y-97550057D01*
X119809523Y-97550057D02*
X119857142Y-97645295D01*
X119857142Y-97645295D02*
X119857142Y-97788152D01*
X119857142Y-97788152D02*
X119809523Y-97883390D01*
X119809523Y-97883390D02*
X119761904Y-97931009D01*
X119761904Y-97931009D02*
X119666666Y-97978628D01*
X119666666Y-97978628D02*
X119285714Y-97978628D01*
X120809523Y-98454819D02*
X120238095Y-98454819D01*
X120523809Y-98454819D02*
X120523809Y-97454819D01*
X120523809Y-97454819D02*
X120428571Y-97597676D01*
X120428571Y-97597676D02*
X120333333Y-97692914D01*
X120333333Y-97692914D02*
X120238095Y-97740533D01*
X121714285Y-97454819D02*
X121238095Y-97454819D01*
X121238095Y-97454819D02*
X121190476Y-97931009D01*
X121190476Y-97931009D02*
X121238095Y-97883390D01*
X121238095Y-97883390D02*
X121333333Y-97835771D01*
X121333333Y-97835771D02*
X121571428Y-97835771D01*
X121571428Y-97835771D02*
X121666666Y-97883390D01*
X121666666Y-97883390D02*
X121714285Y-97931009D01*
X121714285Y-97931009D02*
X121761904Y-98026247D01*
X121761904Y-98026247D02*
X121761904Y-98264342D01*
X121761904Y-98264342D02*
X121714285Y-98359580D01*
X121714285Y-98359580D02*
X121666666Y-98407200D01*
X121666666Y-98407200D02*
X121571428Y-98454819D01*
X121571428Y-98454819D02*
X121333333Y-98454819D01*
X121333333Y-98454819D02*
X121238095Y-98407200D01*
X121238095Y-98407200D02*
X121190476Y-98359580D01*
X97833333Y-39859580D02*
X97785714Y-39907200D01*
X97785714Y-39907200D02*
X97642857Y-39954819D01*
X97642857Y-39954819D02*
X97547619Y-39954819D01*
X97547619Y-39954819D02*
X97404762Y-39907200D01*
X97404762Y-39907200D02*
X97309524Y-39811961D01*
X97309524Y-39811961D02*
X97261905Y-39716723D01*
X97261905Y-39716723D02*
X97214286Y-39526247D01*
X97214286Y-39526247D02*
X97214286Y-39383390D01*
X97214286Y-39383390D02*
X97261905Y-39192914D01*
X97261905Y-39192914D02*
X97309524Y-39097676D01*
X97309524Y-39097676D02*
X97404762Y-39002438D01*
X97404762Y-39002438D02*
X97547619Y-38954819D01*
X97547619Y-38954819D02*
X97642857Y-38954819D01*
X97642857Y-38954819D02*
X97785714Y-39002438D01*
X97785714Y-39002438D02*
X97833333Y-39050057D01*
X98690476Y-38954819D02*
X98500000Y-38954819D01*
X98500000Y-38954819D02*
X98404762Y-39002438D01*
X98404762Y-39002438D02*
X98357143Y-39050057D01*
X98357143Y-39050057D02*
X98261905Y-39192914D01*
X98261905Y-39192914D02*
X98214286Y-39383390D01*
X98214286Y-39383390D02*
X98214286Y-39764342D01*
X98214286Y-39764342D02*
X98261905Y-39859580D01*
X98261905Y-39859580D02*
X98309524Y-39907200D01*
X98309524Y-39907200D02*
X98404762Y-39954819D01*
X98404762Y-39954819D02*
X98595238Y-39954819D01*
X98595238Y-39954819D02*
X98690476Y-39907200D01*
X98690476Y-39907200D02*
X98738095Y-39859580D01*
X98738095Y-39859580D02*
X98785714Y-39764342D01*
X98785714Y-39764342D02*
X98785714Y-39526247D01*
X98785714Y-39526247D02*
X98738095Y-39431009D01*
X98738095Y-39431009D02*
X98690476Y-39383390D01*
X98690476Y-39383390D02*
X98595238Y-39335771D01*
X98595238Y-39335771D02*
X98404762Y-39335771D01*
X98404762Y-39335771D02*
X98309524Y-39383390D01*
X98309524Y-39383390D02*
X98261905Y-39431009D01*
X98261905Y-39431009D02*
X98214286Y-39526247D01*
X107333336Y-86954819D02*
X107000003Y-86478628D01*
X106761908Y-86954819D02*
X106761908Y-85954819D01*
X106761908Y-85954819D02*
X107142860Y-85954819D01*
X107142860Y-85954819D02*
X107238098Y-86002438D01*
X107238098Y-86002438D02*
X107285717Y-86050057D01*
X107285717Y-86050057D02*
X107333336Y-86145295D01*
X107333336Y-86145295D02*
X107333336Y-86288152D01*
X107333336Y-86288152D02*
X107285717Y-86383390D01*
X107285717Y-86383390D02*
X107238098Y-86431009D01*
X107238098Y-86431009D02*
X107142860Y-86478628D01*
X107142860Y-86478628D02*
X106761908Y-86478628D01*
X107666670Y-85954819D02*
X108333336Y-85954819D01*
X108333336Y-85954819D02*
X107904765Y-86954819D01*
X97833333Y-43954819D02*
X97500000Y-43478628D01*
X97261905Y-43954819D02*
X97261905Y-42954819D01*
X97261905Y-42954819D02*
X97642857Y-42954819D01*
X97642857Y-42954819D02*
X97738095Y-43002438D01*
X97738095Y-43002438D02*
X97785714Y-43050057D01*
X97785714Y-43050057D02*
X97833333Y-43145295D01*
X97833333Y-43145295D02*
X97833333Y-43288152D01*
X97833333Y-43288152D02*
X97785714Y-43383390D01*
X97785714Y-43383390D02*
X97738095Y-43431009D01*
X97738095Y-43431009D02*
X97642857Y-43478628D01*
X97642857Y-43478628D02*
X97261905Y-43478628D01*
X98785714Y-43954819D02*
X98214286Y-43954819D01*
X98500000Y-43954819D02*
X98500000Y-42954819D01*
X98500000Y-42954819D02*
X98404762Y-43097676D01*
X98404762Y-43097676D02*
X98309524Y-43192914D01*
X98309524Y-43192914D02*
X98214286Y-43240533D01*
X113341666Y-91629819D02*
X113341666Y-92344104D01*
X113341666Y-92344104D02*
X113294047Y-92486961D01*
X113294047Y-92486961D02*
X113198809Y-92582200D01*
X113198809Y-92582200D02*
X113055952Y-92629819D01*
X113055952Y-92629819D02*
X112960714Y-92629819D01*
X113722619Y-91629819D02*
X114341666Y-91629819D01*
X114341666Y-91629819D02*
X114008333Y-92010771D01*
X114008333Y-92010771D02*
X114151190Y-92010771D01*
X114151190Y-92010771D02*
X114246428Y-92058390D01*
X114246428Y-92058390D02*
X114294047Y-92106009D01*
X114294047Y-92106009D02*
X114341666Y-92201247D01*
X114341666Y-92201247D02*
X114341666Y-92439342D01*
X114341666Y-92439342D02*
X114294047Y-92534580D01*
X114294047Y-92534580D02*
X114246428Y-92582200D01*
X114246428Y-92582200D02*
X114151190Y-92629819D01*
X114151190Y-92629819D02*
X113865476Y-92629819D01*
X113865476Y-92629819D02*
X113770238Y-92582200D01*
X113770238Y-92582200D02*
X113722619Y-92534580D01*
X101156666Y-80494819D02*
X101156666Y-81209104D01*
X101156666Y-81209104D02*
X101109047Y-81351961D01*
X101109047Y-81351961D02*
X101013809Y-81447200D01*
X101013809Y-81447200D02*
X100870952Y-81494819D01*
X100870952Y-81494819D02*
X100775714Y-81494819D01*
X102156666Y-81494819D02*
X101585238Y-81494819D01*
X101870952Y-81494819D02*
X101870952Y-80494819D01*
X101870952Y-80494819D02*
X101775714Y-80637676D01*
X101775714Y-80637676D02*
X101680476Y-80732914D01*
X101680476Y-80732914D02*
X101585238Y-80780533D01*
D11*
%TO.C,R3*%
X108717064Y-78235000D02*
X108262936Y-78235000D01*
X108717064Y-76765000D02*
X108262936Y-76765000D01*
%TO.C,C10*%
X121728748Y-70735000D02*
X122251252Y-70735000D01*
X121728748Y-69265000D02*
X122251252Y-69265000D01*
%TO.C,C4*%
X118265000Y-64811252D02*
X118265000Y-64288748D01*
X119735000Y-64811252D02*
X119735000Y-64288748D01*
%TO.C,C16*%
X110755000Y-75211252D02*
X110755000Y-74688748D01*
X112225000Y-75211252D02*
X112225000Y-74688748D01*
%TO.C,R6*%
X108262936Y-78765000D02*
X108717064Y-78765000D01*
X108262936Y-80235000D02*
X108717064Y-80235000D01*
%TO.C,C2*%
X110801252Y-60775000D02*
X110278748Y-60775000D01*
X110801252Y-62245000D02*
X110278748Y-62245000D01*
%TO.C,C19*%
X118225000Y-79188748D02*
X118225000Y-79711252D01*
X119695000Y-79188748D02*
X119695000Y-79711252D01*
%TO.C,C23*%
X108751252Y-66765000D02*
X108228748Y-66765000D01*
X108751252Y-68235000D02*
X108228748Y-68235000D01*
%TO.C,C15*%
X112755000Y-74688748D02*
X112755000Y-75211252D01*
X114225000Y-74688748D02*
X114225000Y-75211252D01*
%TO.C,C13*%
X120265000Y-74688748D02*
X120265000Y-75211252D01*
X121735000Y-74688748D02*
X121735000Y-75211252D01*
%TO.C,C22*%
X116265000Y-64811252D02*
X116265000Y-64288748D01*
X117735000Y-64811252D02*
X117735000Y-64288748D01*
%TO.C,Y1*%
X112450000Y-62640000D02*
X108330000Y-62640000D01*
X112450000Y-66060000D02*
X112450000Y-62640000D01*
%TO.C,C18*%
X115765000Y-74688748D02*
X115765000Y-75211252D01*
X117235000Y-74688748D02*
X117235000Y-75211252D01*
D12*
%TO.C,U2*%
X117390500Y-70000000D02*
G75*
G02*
X117190500Y-70000000I-100000J0D01*
G01*
X117190500Y-70000000D02*
G75*
G02*
X117390500Y-70000000I100000J0D01*
G01*
D13*
X113570000Y-67505000D02*
X113570000Y-68252500D01*
X113570000Y-67505000D02*
X114442500Y-67505000D01*
X113570000Y-70495000D02*
X113570000Y-69747500D01*
X113570000Y-70495000D02*
X114442500Y-70495000D01*
X117060000Y-67505000D02*
X116187500Y-67505000D01*
X117060000Y-67505000D02*
X117060000Y-68252500D01*
X117060000Y-70495000D02*
X116187500Y-70495000D01*
X117060000Y-70495000D02*
X117060000Y-69747500D01*
D11*
%TO.C,C11*%
X121778748Y-67265000D02*
X122301252Y-67265000D01*
X121778748Y-68735000D02*
X122301252Y-68735000D01*
%TO.C,C17*%
X108801252Y-70765000D02*
X108278748Y-70765000D01*
X108801252Y-72235000D02*
X108278748Y-72235000D01*
%TO.C,C1*%
X110755000Y-69188748D02*
X110755000Y-69711252D01*
X112225000Y-69188748D02*
X112225000Y-69711252D01*
%TO.C,C14*%
X117765000Y-74688748D02*
X117765000Y-75211252D01*
X119235000Y-74688748D02*
X119235000Y-75211252D01*
%TO.C,C12*%
X121678748Y-71265000D02*
X122201252Y-71265000D01*
X121678748Y-72735000D02*
X122201252Y-72735000D01*
%TO.C,R2*%
X125850436Y-72765000D02*
X126304564Y-72765000D01*
X125850436Y-74235000D02*
X126304564Y-74235000D01*
%TO.C,R5*%
X108717064Y-74765000D02*
X108262936Y-74765000D01*
X108717064Y-76235000D02*
X108262936Y-76235000D01*
%TO.C,C9*%
X108228748Y-68765000D02*
X108751252Y-68765000D01*
X108228748Y-70235000D02*
X108751252Y-70235000D01*
%TO.C,C20*%
X116255000Y-79711252D02*
X116255000Y-79188748D01*
X117725000Y-79711252D02*
X117725000Y-79188748D01*
%TO.C,C3*%
X110801252Y-58765000D02*
X110278748Y-58765000D01*
X110801252Y-60235000D02*
X110278748Y-60235000D01*
%TO.C,C21*%
X121678748Y-65265000D02*
X122201252Y-65265000D01*
X121678748Y-66735000D02*
X122201252Y-66735000D01*
%TO.C,R4*%
X108717064Y-72765000D02*
X108262936Y-72765000D01*
X108717064Y-74235000D02*
X108262936Y-74235000D01*
%TO.C,SW5*%
X97290000Y-91790000D02*
X97290000Y-92200000D01*
X97290000Y-93800000D02*
X97290000Y-96200000D01*
X97290000Y-97800000D02*
X97290000Y-98210000D01*
X97290000Y-98210000D02*
X103710000Y-98210000D01*
X103710000Y-91790000D02*
X97290000Y-91790000D01*
X103710000Y-92200000D02*
X103710000Y-91790000D01*
X103710000Y-96200000D02*
X103710000Y-93800000D01*
X103710000Y-98210000D02*
X103710000Y-97930000D01*
%TO.C,J8*%
X94620000Y-86850000D02*
X94620000Y-48640000D01*
X97380000Y-48640000D02*
X94620000Y-48640000D01*
X97380000Y-86850000D02*
X94620000Y-86850000D01*
X97380000Y-86850000D02*
X97380000Y-48640000D01*
X97380000Y-88120000D02*
X97380000Y-89500000D01*
X97380000Y-89500000D02*
X96000000Y-89500000D01*
%TO.C,U1*%
X104475000Y-28100000D02*
X104475000Y-34300000D01*
X104475000Y-28100000D02*
X122875000Y-28100000D01*
X104475000Y-52950000D02*
X104475000Y-53950000D01*
X104475000Y-53950000D02*
X105975000Y-53950000D01*
X122875000Y-28100000D02*
X122875000Y-34300000D01*
X122875000Y-53950000D02*
X121375000Y-53950000D01*
X122875000Y-53950000D02*
X122875000Y-52950000D01*
X104475000Y-34975000D02*
X103975000Y-34975000D01*
X104475000Y-34475000D01*
X104475000Y-34975000D01*
G36*
X104475000Y-34975000D02*
G01*
X103975000Y-34975000D01*
X104475000Y-34475000D01*
X104475000Y-34975000D01*
G37*
%TO.C,C24*%
X101261252Y-36765000D02*
X100738748Y-36765000D01*
X101261252Y-38235000D02*
X100738748Y-38235000D01*
%TO.C,U3*%
X110890200Y-87615000D02*
X110090200Y-87615000D01*
X110890200Y-87615000D02*
X111690200Y-87615000D01*
X110890200Y-90735000D02*
X110090200Y-90735000D01*
X110890200Y-90735000D02*
X111690200Y-90735000D01*
X109590200Y-87665000D02*
X109350200Y-87335000D01*
X109830200Y-87335000D01*
X109590200Y-87665000D01*
G36*
X109590200Y-87665000D02*
G01*
X109350200Y-87335000D01*
X109830200Y-87335000D01*
X109590200Y-87665000D01*
G37*
%TO.C,J6*%
X130120000Y-49040000D02*
X131500000Y-49040000D01*
X130120000Y-50420000D02*
X130120000Y-49040000D01*
X130120000Y-51690000D02*
X130120000Y-89900000D01*
X130120000Y-51690000D02*
X132880000Y-51690000D01*
X130120000Y-89900000D02*
X132880000Y-89900000D01*
X132880000Y-51690000D02*
X132880000Y-89900000D01*
%TO.C,SW6*%
X123790000Y-91790000D02*
X123790000Y-92200000D01*
X123790000Y-93800000D02*
X123790000Y-96200000D01*
X123790000Y-97800000D02*
X123790000Y-98210000D01*
X123790000Y-98210000D02*
X130210000Y-98210000D01*
X130210000Y-91790000D02*
X123790000Y-91790000D01*
X130210000Y-92200000D02*
X130210000Y-91790000D01*
X130210000Y-96200000D02*
X130210000Y-93800000D01*
X130210000Y-98210000D02*
X130210000Y-97930000D01*
%TO.C,R16*%
X106265000Y-95814564D02*
X106265000Y-95360436D01*
X107735000Y-95814564D02*
X107735000Y-95360436D01*
%TO.C,C8*%
X101261252Y-40765000D02*
X100738748Y-40765000D01*
X101261252Y-42235000D02*
X100738748Y-42235000D01*
%TO.C,R8*%
X113517700Y-88860436D02*
X113517700Y-89314564D01*
X114987700Y-88860436D02*
X114987700Y-89314564D01*
%TO.C,U4*%
X117390200Y-87615000D02*
X116590200Y-87615000D01*
X117390200Y-87615000D02*
X118190200Y-87615000D01*
X117390200Y-90735000D02*
X116590200Y-90735000D01*
X117390200Y-90735000D02*
X118190200Y-90735000D01*
X116090200Y-87665000D02*
X115850200Y-87335000D01*
X116330200Y-87335000D01*
X116090200Y-87665000D01*
G36*
X116090200Y-87665000D02*
G01*
X115850200Y-87335000D01*
X116330200Y-87335000D01*
X116090200Y-87665000D01*
G37*
%TO.C,C5*%
X101261252Y-34765000D02*
X100738748Y-34765000D01*
X101261252Y-36235000D02*
X100738748Y-36235000D01*
%TO.C,R15*%
X119765000Y-95272936D02*
X119765000Y-95727064D01*
X121235000Y-95272936D02*
X121235000Y-95727064D01*
%TO.C,C6*%
X101261252Y-38765000D02*
X100738748Y-38765000D01*
X101261252Y-40235000D02*
X100738748Y-40235000D01*
%TO.C,R7*%
X106605200Y-88772936D02*
X106605200Y-89227064D01*
X108075200Y-88772936D02*
X108075200Y-89227064D01*
%TO.C,R1*%
X100772936Y-42765000D02*
X101227064Y-42765000D01*
X100772936Y-44235000D02*
X101227064Y-44235000D01*
%TO.C,J3*%
X109080000Y-96375000D02*
X109080000Y-97275000D01*
X109080000Y-99975000D02*
X109080000Y-102705000D01*
X109080000Y-102705000D02*
X118270000Y-102705000D01*
X109200000Y-93295000D02*
X118150000Y-93295000D01*
X118270000Y-96375000D02*
X118270000Y-97275000D01*
X118270000Y-99975000D02*
X118270000Y-102705000D01*
%TO.C,J1*%
X102870000Y-80040000D02*
X101490000Y-80040000D01*
X102870000Y-78660000D02*
X102870000Y-80040000D01*
X102870000Y-77390000D02*
X102870000Y-67120000D01*
X102870000Y-77390000D02*
X100110000Y-77390000D01*
X102870000Y-67120000D02*
X100110000Y-67120000D01*
X100110000Y-77390000D02*
X100110000Y-67120000D01*
%TD*%
M02*
