%TF.GenerationSoftware,KiCad,Pcbnew,9.0.3*%
%TF.CreationDate,2025-08-20T22:27:51-04:00*%
%TF.ProjectId,bioimpedance,62696f69-6d70-4656-9461-6e63652e6b69,rev?*%
%TF.SameCoordinates,Original*%
%TF.FileFunction,Soldermask,Top*%
%TF.FilePolarity,Negative*%
%FSLAX46Y46*%
G04 Gerber Fmt 4.6, Leading zero omitted, Abs format (unit mm)*
G04 Created by KiCad (PCBNEW 9.0.3) date 2025-08-20 22:27:51*
%MOMM*%
%LPD*%
G01*
G04 APERTURE LIST*
G04 Aperture macros list*
%AMRoundRect*
0 Rectangle with rounded corners*
0 $1 Rounding radius*
0 $2 $3 $4 $5 $6 $7 $8 $9 X,Y pos of 4 corners*
0 Add a 4 corners polygon primitive as box body*
4,1,4,$2,$3,$4,$5,$6,$7,$8,$9,$2,$3,0*
0 Add four circle primitives for the rounded corners*
1,1,$1+$1,$2,$3*
1,1,$1+$1,$4,$5*
1,1,$1+$1,$6,$7*
1,1,$1+$1,$8,$9*
0 Add four rect primitives between the rounded corners*
20,1,$1+$1,$2,$3,$4,$5,0*
20,1,$1+$1,$4,$5,$6,$7,0*
20,1,$1+$1,$6,$7,$8,$9,0*
20,1,$1+$1,$8,$9,$2,$3,0*%
G04 Aperture macros list end*
%ADD10RoundRect,0.250000X-0.262500X-0.450000X0.262500X-0.450000X0.262500X0.450000X-0.262500X0.450000X0*%
%ADD11R,2.800000X1.000000*%
%ADD12RoundRect,0.250000X-0.475000X0.250000X-0.475000X-0.250000X0.475000X-0.250000X0.475000X0.250000X0*%
%ADD13R,1.700000X1.700000*%
%ADD14C,1.700000*%
%ADD15RoundRect,0.250000X-0.350000X0.450000X-0.350000X-0.450000X0.350000X-0.450000X0.350000X0.450000X0*%
%ADD16C,0.554000*%
%ADD17R,1.500000X0.900000*%
%ADD18R,0.900000X1.500000*%
%ADD19C,0.600000*%
%ADD20R,3.900000X3.900000*%
%ADD21RoundRect,0.250000X0.250000X0.475000X-0.250000X0.475000X-0.250000X-0.475000X0.250000X-0.475000X0*%
%ADD22RoundRect,0.150000X-0.512500X-0.150000X0.512500X-0.150000X0.512500X0.150000X-0.512500X0.150000X0*%
%ADD23RoundRect,0.250000X0.475000X-0.250000X0.475000X0.250000X-0.475000X0.250000X-0.475000X-0.250000X0*%
%ADD24RoundRect,0.250000X-0.250000X-0.475000X0.250000X-0.475000X0.250000X0.475000X-0.250000X0.475000X0*%
%ADD25RoundRect,0.250000X-0.450000X0.262500X-0.450000X-0.262500X0.450000X-0.262500X0.450000X0.262500X0*%
%ADD26RoundRect,0.250000X0.450000X-0.262500X0.450000X0.262500X-0.450000X0.262500X-0.450000X-0.262500X0*%
%ADD27RoundRect,0.250000X0.262500X0.450000X-0.262500X0.450000X-0.262500X-0.450000X0.262500X-0.450000X0*%
%ADD28C,0.700000*%
%ADD29O,0.900000X2.400000*%
%ADD30O,0.900000X1.700000*%
G04 APERTURE END LIST*
D10*
%TO.C,R4*%
X116151500Y-69488000D03*
X117976500Y-69488000D03*
%TD*%
D11*
%TO.C,SW5*%
X97600000Y-93000000D03*
X103400000Y-93000000D03*
X97600000Y-97000000D03*
X103400000Y-97000000D03*
%TD*%
D12*
%TO.C,C25*%
X104685000Y-77800000D03*
X104685000Y-79700000D03*
%TD*%
D13*
%TO.C,J8*%
X96000000Y-88120000D03*
D14*
X96000000Y-85580000D03*
X96000000Y-83040000D03*
X96000000Y-80500000D03*
X96000000Y-77960000D03*
X96000000Y-75420000D03*
X96000000Y-72880000D03*
X96000000Y-70340000D03*
X96000000Y-67800000D03*
X96000000Y-65260000D03*
X96000000Y-62720000D03*
X96000000Y-60180000D03*
X96000000Y-57640000D03*
X96000000Y-55100000D03*
X96000000Y-52560000D03*
X96000000Y-50020000D03*
%TD*%
D15*
%TO.C,Y1*%
X111650000Y-57800000D03*
X111650000Y-60000000D03*
X113350000Y-60000000D03*
X113350000Y-57800000D03*
%TD*%
D12*
%TO.C,C18*%
X110685000Y-73300000D03*
X110685000Y-75200000D03*
%TD*%
D16*
%TO.C,U2*%
X108000000Y-73000000D03*
X108000000Y-73500000D03*
X108000000Y-74000000D03*
X108000000Y-74500000D03*
X108000000Y-75000000D03*
X108000000Y-75500000D03*
X107500000Y-73000000D03*
X107500000Y-73500000D03*
X107500000Y-74000000D03*
X107500000Y-74500000D03*
X107500000Y-75000000D03*
X107500000Y-75500000D03*
X107000000Y-73000000D03*
X107000000Y-73500000D03*
X107000000Y-74000000D03*
X107000000Y-74500000D03*
X107000000Y-75000000D03*
X107000000Y-75500000D03*
X106500000Y-73000000D03*
X106500000Y-73500000D03*
X106500000Y-74000000D03*
X106500000Y-74500000D03*
X106500000Y-75000000D03*
X106500000Y-75500000D03*
X106000000Y-73000000D03*
X106000000Y-73500000D03*
X106000000Y-74000000D03*
X106000000Y-74500000D03*
X106000000Y-75000000D03*
X106000000Y-75500000D03*
%TD*%
D17*
%TO.C,U1*%
X104925000Y-35740000D03*
X104925000Y-37010000D03*
X104925000Y-38280000D03*
X104925000Y-39550000D03*
X104925000Y-40820000D03*
X104925000Y-42090000D03*
X104925000Y-43360000D03*
X104925000Y-44630000D03*
X104925000Y-45900000D03*
X104925000Y-47170000D03*
X104925000Y-48440000D03*
X104925000Y-49710000D03*
X104925000Y-50980000D03*
X104925000Y-52250000D03*
D18*
X106690000Y-53500000D03*
X107960000Y-53500000D03*
X109230000Y-53500000D03*
X110500000Y-53500000D03*
X111770000Y-53500000D03*
X113040000Y-53500000D03*
X114310000Y-53500000D03*
X115580000Y-53500000D03*
X116850000Y-53500000D03*
X118120000Y-53500000D03*
X119390000Y-53500000D03*
X120660000Y-53500000D03*
D17*
X122425000Y-52250000D03*
X122425000Y-50980000D03*
X122425000Y-49710000D03*
X122425000Y-48440000D03*
X122425000Y-47170000D03*
X122425000Y-45900000D03*
X122425000Y-44630000D03*
X122425000Y-43360000D03*
X122425000Y-42090000D03*
X122425000Y-40820000D03*
X122425000Y-39550000D03*
X122425000Y-38280000D03*
X122425000Y-37010000D03*
X122425000Y-35740000D03*
D19*
X110775000Y-42760000D03*
X110775000Y-44160000D03*
X111475000Y-42060000D03*
X111475000Y-43460000D03*
X111475000Y-44860000D03*
X112175000Y-42760000D03*
D20*
X112175000Y-43460000D03*
D19*
X112175000Y-44160000D03*
X112875000Y-42060000D03*
X112875000Y-43460000D03*
X112875000Y-44860000D03*
X113575000Y-42760000D03*
X113575000Y-44160000D03*
%TD*%
D21*
%TO.C,C24*%
X99950000Y-37500000D03*
X98050000Y-37500000D03*
%TD*%
D22*
%TO.C,U3*%
X114725000Y-87600000D03*
X114725000Y-88550000D03*
X114725000Y-89500000D03*
X117000000Y-89500000D03*
X117000000Y-87600000D03*
%TD*%
D23*
%TO.C,C11*%
X105185000Y-69200000D03*
X105185000Y-67300000D03*
%TD*%
D24*
%TO.C,C14*%
X116114000Y-61539600D03*
X118014000Y-61539600D03*
%TD*%
D13*
%TO.C,J6*%
X131500000Y-50420000D03*
D14*
X131500000Y-52960000D03*
X131500000Y-55500000D03*
X131500000Y-58040000D03*
X131500000Y-60580000D03*
X131500000Y-63120000D03*
X131500000Y-65660000D03*
X131500000Y-68200000D03*
X131500000Y-70740000D03*
X131500000Y-73280000D03*
X131500000Y-75820000D03*
X131500000Y-78360000D03*
X131500000Y-80900000D03*
X131500000Y-83440000D03*
X131500000Y-85980000D03*
X131500000Y-88520000D03*
%TD*%
D12*
%TO.C,C7*%
X102685000Y-77850000D03*
X102685000Y-79750000D03*
%TD*%
D11*
%TO.C,SW6*%
X124100000Y-93000000D03*
X129900000Y-93000000D03*
X124100000Y-97000000D03*
X129900000Y-97000000D03*
%TD*%
D23*
%TO.C,C12*%
X109185000Y-69150000D03*
X109185000Y-67250000D03*
%TD*%
D25*
%TO.C,R16*%
X107000000Y-94675000D03*
X107000000Y-96500000D03*
%TD*%
D21*
%TO.C,C8*%
X99950000Y-41500000D03*
X98050000Y-41500000D03*
%TD*%
D10*
%TO.C,R2*%
X107772500Y-65250000D03*
X109597500Y-65250000D03*
%TD*%
%TO.C,R5*%
X116151500Y-67508400D03*
X117976500Y-67508400D03*
%TD*%
D23*
%TO.C,C9*%
X104685000Y-83200000D03*
X104685000Y-81300000D03*
%TD*%
%TO.C,C10*%
X107185000Y-69150000D03*
X107185000Y-67250000D03*
%TD*%
D25*
%TO.C,R8*%
X119225000Y-87550000D03*
X119225000Y-89375000D03*
%TD*%
D22*
%TO.C,U4*%
X121225000Y-87600000D03*
X121225000Y-88550000D03*
X121225000Y-89500000D03*
X123500000Y-89500000D03*
X123500000Y-87600000D03*
%TD*%
D21*
%TO.C,C5*%
X99950000Y-35500000D03*
X98050000Y-35500000D03*
%TD*%
D26*
%TO.C,R15*%
X120500000Y-96412500D03*
X120500000Y-94587500D03*
%TD*%
D23*
%TO.C,C20*%
X112685000Y-77200000D03*
X112685000Y-75300000D03*
%TD*%
D21*
%TO.C,C6*%
X99950000Y-39500000D03*
X98050000Y-39500000D03*
%TD*%
D12*
%TO.C,C3*%
X107650000Y-58900000D03*
X107650000Y-60800000D03*
%TD*%
D21*
%TO.C,C21*%
X103185000Y-70500000D03*
X101285000Y-70500000D03*
%TD*%
%TO.C,C17*%
X108685000Y-79750000D03*
X106785000Y-79750000D03*
%TD*%
%TO.C,C16*%
X110685000Y-77750000D03*
X108785000Y-77750000D03*
%TD*%
D25*
%TO.C,R7*%
X112312500Y-87462500D03*
X112312500Y-89287500D03*
%TD*%
D27*
%TO.C,R6*%
X117976500Y-63549200D03*
X116151500Y-63549200D03*
%TD*%
D12*
%TO.C,C2*%
X109660000Y-58900000D03*
X109660000Y-60800000D03*
%TD*%
D10*
%TO.C,R3*%
X116151500Y-65528800D03*
X117976500Y-65528800D03*
%TD*%
D23*
%TO.C,C19*%
X112685000Y-73200000D03*
X112685000Y-71300000D03*
%TD*%
D21*
%TO.C,C23*%
X103185000Y-72500000D03*
X101285000Y-72500000D03*
%TD*%
D24*
%TO.C,C15*%
X110735000Y-79750000D03*
X112635000Y-79750000D03*
%TD*%
D10*
%TO.C,R1*%
X97675000Y-43500000D03*
X99500000Y-43500000D03*
%TD*%
D28*
%TO.C,J3*%
X110700000Y-93975000D03*
X111550000Y-93975000D03*
X112400000Y-93975000D03*
X113250000Y-93975000D03*
X114100000Y-93975000D03*
X114950000Y-93975000D03*
X115800000Y-93975000D03*
X116650000Y-93975000D03*
X116650000Y-95325000D03*
X115800000Y-95325000D03*
X114950000Y-95325000D03*
X114100000Y-95325000D03*
X113250000Y-95325000D03*
X112400000Y-95325000D03*
X111550000Y-95325000D03*
X110700000Y-95325000D03*
D29*
X109350000Y-94955000D03*
D30*
X109350000Y-98335000D03*
D29*
X118000000Y-94955000D03*
D30*
X118000000Y-98335000D03*
%TD*%
D24*
%TO.C,C13*%
X116114000Y-59500000D03*
X118014000Y-59500000D03*
%TD*%
D13*
%TO.C,J1*%
X121528000Y-62948000D03*
D14*
X121528000Y-65488000D03*
X121528000Y-68028000D03*
X121528000Y-70568000D03*
X121528000Y-73108000D03*
%TD*%
M02*
