%TF.GenerationSoftware,KiCad,Pcbnew,9.0.3*%
%TF.CreationDate,2025-08-18T17:13:01-04:00*%
%TF.ProjectId,bioimpedance,62696f69-6d70-4656-9461-6e63652e6b69,rev?*%
%TF.SameCoordinates,Original*%
%TF.FileFunction,Paste,Top*%
%TF.FilePolarity,Positive*%
%FSLAX46Y46*%
G04 Gerber Fmt 4.6, Leading zero omitted, Abs format (unit mm)*
G04 Created by KiCad (PCBNEW 9.0.3) date 2025-08-18 17:13:01*
%MOMM*%
%LPD*%
G01*
G04 APERTURE LIST*
G04 Aperture macros list*
%AMRoundRect*
0 Rectangle with rounded corners*
0 $1 Rounding radius*
0 $2 $3 $4 $5 $6 $7 $8 $9 X,Y pos of 4 corners*
0 Add a 4 corners polygon primitive as box body*
4,1,4,$2,$3,$4,$5,$6,$7,$8,$9,$2,$3,0*
0 Add four circle primitives for the rounded corners*
1,1,$1+$1,$2,$3*
1,1,$1+$1,$4,$5*
1,1,$1+$1,$6,$7*
1,1,$1+$1,$8,$9*
0 Add four rect primitives between the rounded corners*
20,1,$1+$1,$2,$3,$4,$5,0*
20,1,$1+$1,$4,$5,$6,$7,0*
20,1,$1+$1,$6,$7,$8,$9,0*
20,1,$1+$1,$8,$9,$2,$3,0*%
G04 Aperture macros list end*
%ADD10RoundRect,0.250000X0.262500X0.450000X-0.262500X0.450000X-0.262500X-0.450000X0.262500X-0.450000X0*%
%ADD11RoundRect,0.250000X-0.250000X-0.475000X0.250000X-0.475000X0.250000X0.475000X-0.250000X0.475000X0*%
%ADD12RoundRect,0.250000X0.475000X-0.250000X0.475000X0.250000X-0.475000X0.250000X-0.475000X-0.250000X0*%
%ADD13RoundRect,0.250000X-0.262500X-0.450000X0.262500X-0.450000X0.262500X0.450000X-0.262500X0.450000X0*%
%ADD14RoundRect,0.250000X0.250000X0.475000X-0.250000X0.475000X-0.250000X-0.475000X0.250000X-0.475000X0*%
%ADD15RoundRect,0.250000X-0.475000X0.250000X-0.475000X-0.250000X0.475000X-0.250000X0.475000X0.250000X0*%
%ADD16RoundRect,0.250000X0.450000X0.350000X-0.450000X0.350000X-0.450000X-0.350000X0.450000X-0.350000X0*%
%ADD17C,0.350000*%
%ADD18R,2.800000X1.000000*%
%ADD19R,0.900000X0.900000*%
%ADD20R,1.500000X0.900000*%
%ADD21R,0.900000X1.500000*%
%ADD22RoundRect,0.150000X-0.512500X-0.150000X0.512500X-0.150000X0.512500X0.150000X-0.512500X0.150000X0*%
%ADD23RoundRect,0.250000X0.450000X-0.262500X0.450000X0.262500X-0.450000X0.262500X-0.450000X-0.262500X0*%
%ADD24RoundRect,0.250000X-0.450000X0.262500X-0.450000X-0.262500X0.450000X-0.262500X0.450000X0.262500X0*%
G04 APERTURE END LIST*
D10*
%TO.C,R3*%
X109402500Y-77500000D03*
X107577500Y-77500000D03*
%TD*%
D11*
%TO.C,C10*%
X121040000Y-70000000D03*
X122940000Y-70000000D03*
%TD*%
D12*
%TO.C,C4*%
X119000000Y-63600000D03*
X119000000Y-65500000D03*
%TD*%
%TO.C,C16*%
X111490000Y-74000000D03*
X111490000Y-75900000D03*
%TD*%
D13*
%TO.C,R6*%
X109402500Y-79500000D03*
X107577500Y-79500000D03*
%TD*%
D14*
%TO.C,C2*%
X109590000Y-61510000D03*
X111490000Y-61510000D03*
%TD*%
D15*
%TO.C,C19*%
X118960000Y-80400000D03*
X118960000Y-78500000D03*
%TD*%
D14*
%TO.C,C23*%
X107540000Y-67500000D03*
X109440000Y-67500000D03*
%TD*%
D15*
%TO.C,C15*%
X113490000Y-75900000D03*
X113490000Y-74000000D03*
%TD*%
%TO.C,C13*%
X121000000Y-75900000D03*
X121000000Y-74000000D03*
%TD*%
D12*
%TO.C,C22*%
X117000000Y-63600000D03*
X117000000Y-65500000D03*
%TD*%
D16*
%TO.C,Y1*%
X111490000Y-65200000D03*
X109290000Y-65200000D03*
X109290000Y-63500000D03*
X111490000Y-63500000D03*
%TD*%
D15*
%TO.C,C18*%
X116500000Y-75900000D03*
X116500000Y-74000000D03*
%TD*%
D17*
%TO.C,U2*%
X114065000Y-68000000D03*
X114565000Y-68000000D03*
X115065000Y-68000000D03*
X115565000Y-68000000D03*
X116065000Y-68000000D03*
X116565000Y-68000000D03*
X114065000Y-68500000D03*
X114565000Y-68500000D03*
X115065000Y-68500000D03*
X115565000Y-68500000D03*
X116065000Y-68500000D03*
X116565000Y-68500000D03*
X114065000Y-69000000D03*
X114565000Y-69000000D03*
X115065000Y-69000000D03*
X115565000Y-69000000D03*
X116065000Y-69000000D03*
X116565000Y-69000000D03*
X114065000Y-69500000D03*
X114565000Y-69500000D03*
X115065000Y-69500000D03*
X115565000Y-69500000D03*
X116065000Y-69500000D03*
X116565000Y-69500000D03*
X114065000Y-70000000D03*
X114565000Y-70000000D03*
X115065000Y-70000000D03*
X115565000Y-70000000D03*
X116065000Y-70000000D03*
X116565000Y-70000000D03*
%TD*%
D11*
%TO.C,C11*%
X122990000Y-68000000D03*
X121090000Y-68000000D03*
%TD*%
D14*
%TO.C,C17*%
X107590000Y-71500000D03*
X109490000Y-71500000D03*
%TD*%
D15*
%TO.C,C1*%
X111490000Y-70400000D03*
X111490000Y-68500000D03*
%TD*%
%TO.C,C14*%
X118500000Y-75900000D03*
X118500000Y-74000000D03*
%TD*%
D11*
%TO.C,C12*%
X122890000Y-72000000D03*
X120990000Y-72000000D03*
%TD*%
D13*
%TO.C,R2*%
X126990000Y-73500000D03*
X125165000Y-73500000D03*
%TD*%
D10*
%TO.C,R5*%
X107577500Y-75500000D03*
X109402500Y-75500000D03*
%TD*%
D11*
%TO.C,C9*%
X109440000Y-69500000D03*
X107540000Y-69500000D03*
%TD*%
D12*
%TO.C,C20*%
X116990000Y-78500000D03*
X116990000Y-80400000D03*
%TD*%
D14*
%TO.C,C3*%
X109590000Y-59500000D03*
X111490000Y-59500000D03*
%TD*%
D11*
%TO.C,C21*%
X122890000Y-66000000D03*
X120990000Y-66000000D03*
%TD*%
D10*
%TO.C,R4*%
X107577500Y-73500000D03*
X109402500Y-73500000D03*
%TD*%
D18*
%TO.C,SW5*%
X97600000Y-93000000D03*
X103400000Y-93000000D03*
X97600000Y-97000000D03*
X103400000Y-97000000D03*
%TD*%
D19*
%TO.C,U1*%
X110775000Y-42060000D03*
X110775000Y-43460000D03*
X110775000Y-44860000D03*
X112175000Y-42060000D03*
X112175000Y-43460000D03*
X112175000Y-44860000D03*
X113575000Y-42060000D03*
X113575000Y-43460000D03*
X113575000Y-44860000D03*
D20*
X104925000Y-35740000D03*
X104925000Y-37010000D03*
X104925000Y-38280000D03*
X104925000Y-39550000D03*
X104925000Y-40820000D03*
X104925000Y-42090000D03*
X104925000Y-43360000D03*
X104925000Y-44630000D03*
X104925000Y-45900000D03*
X104925000Y-47170000D03*
X104925000Y-48440000D03*
X104925000Y-49710000D03*
X104925000Y-50980000D03*
X104925000Y-52250000D03*
D21*
X106690000Y-53500000D03*
X107960000Y-53500000D03*
X109230000Y-53500000D03*
X110500000Y-53500000D03*
X111770000Y-53500000D03*
X113040000Y-53500000D03*
X114310000Y-53500000D03*
X115580000Y-53500000D03*
X116850000Y-53500000D03*
X118120000Y-53500000D03*
X119390000Y-53500000D03*
X120660000Y-53500000D03*
D20*
X122425000Y-52250000D03*
X122425000Y-50980000D03*
X122425000Y-49710000D03*
X122425000Y-48440000D03*
X122425000Y-47170000D03*
X122425000Y-45900000D03*
X122425000Y-44630000D03*
X122425000Y-43360000D03*
X122425000Y-42090000D03*
X122425000Y-40820000D03*
X122425000Y-39550000D03*
X122425000Y-38280000D03*
X122425000Y-37010000D03*
X122425000Y-35740000D03*
%TD*%
D14*
%TO.C,C24*%
X101950000Y-37500000D03*
X100050000Y-37500000D03*
%TD*%
D22*
%TO.C,U3*%
X109752700Y-88225000D03*
X109752700Y-89175000D03*
X109752700Y-90125000D03*
X112027700Y-90125000D03*
X112027700Y-88225000D03*
%TD*%
D18*
%TO.C,SW6*%
X124100000Y-93000000D03*
X129900000Y-93000000D03*
X124100000Y-97000000D03*
X129900000Y-97000000D03*
%TD*%
D23*
%TO.C,R16*%
X107000000Y-96500000D03*
X107000000Y-94675000D03*
%TD*%
D14*
%TO.C,C8*%
X101950000Y-41500000D03*
X100050000Y-41500000D03*
%TD*%
D24*
%TO.C,R8*%
X114252700Y-88175000D03*
X114252700Y-90000000D03*
%TD*%
D22*
%TO.C,U4*%
X116252700Y-88225000D03*
X116252700Y-89175000D03*
X116252700Y-90125000D03*
X118527700Y-90125000D03*
X118527700Y-88225000D03*
%TD*%
D14*
%TO.C,C5*%
X101950000Y-35500000D03*
X100050000Y-35500000D03*
%TD*%
D24*
%TO.C,R15*%
X120500000Y-94587500D03*
X120500000Y-96412500D03*
%TD*%
D14*
%TO.C,C6*%
X101950000Y-39500000D03*
X100050000Y-39500000D03*
%TD*%
D24*
%TO.C,R7*%
X107340200Y-88087500D03*
X107340200Y-89912500D03*
%TD*%
D13*
%TO.C,R1*%
X100087500Y-43500000D03*
X101912500Y-43500000D03*
%TD*%
M02*
