%TF.GenerationSoftware,KiCad,Pcbnew,9.0.3*%
%TF.CreationDate,2025-08-18T17:13:02-04:00*%
%TF.ProjectId,bioimpedance,62696f69-6d70-4656-9461-6e63652e6b69,rev?*%
%TF.SameCoordinates,Original*%
%TF.FileFunction,Soldermask,Bot*%
%TF.FilePolarity,Negative*%
%FSLAX46Y46*%
G04 Gerber Fmt 4.6, Leading zero omitted, Abs format (unit mm)*
G04 Created by KiCad (PCBNEW 9.0.3) date 2025-08-18 17:13:02*
%MOMM*%
%LPD*%
G01*
G04 APERTURE LIST*
%ADD10R,1.700000X1.700000*%
%ADD11C,1.700000*%
%ADD12C,0.700000*%
%ADD13O,0.900000X2.400000*%
%ADD14O,0.900000X1.700000*%
G04 APERTURE END LIST*
D10*
%TO.C,J8*%
X96000000Y-88120000D03*
D11*
X96000000Y-85580000D03*
X96000000Y-83040000D03*
X96000000Y-80500000D03*
X96000000Y-77960000D03*
X96000000Y-75420000D03*
X96000000Y-72880000D03*
X96000000Y-70340000D03*
X96000000Y-67800000D03*
X96000000Y-65260000D03*
X96000000Y-62720000D03*
X96000000Y-60180000D03*
X96000000Y-57640000D03*
X96000000Y-55100000D03*
X96000000Y-52560000D03*
X96000000Y-50020000D03*
%TD*%
D10*
%TO.C,J6*%
X131500000Y-50420000D03*
D11*
X131500000Y-52960000D03*
X131500000Y-55500000D03*
X131500000Y-58040000D03*
X131500000Y-60580000D03*
X131500000Y-63120000D03*
X131500000Y-65660000D03*
X131500000Y-68200000D03*
X131500000Y-70740000D03*
X131500000Y-73280000D03*
X131500000Y-75820000D03*
X131500000Y-78360000D03*
X131500000Y-80900000D03*
X131500000Y-83440000D03*
X131500000Y-85980000D03*
X131500000Y-88520000D03*
%TD*%
D12*
%TO.C,J3*%
X110700000Y-93975000D03*
X111550000Y-93975000D03*
X112400000Y-93975000D03*
X113250000Y-93975000D03*
X114100000Y-93975000D03*
X114950000Y-93975000D03*
X115800000Y-93975000D03*
X116650000Y-93975000D03*
X116650000Y-95325000D03*
X115800000Y-95325000D03*
X114950000Y-95325000D03*
X114100000Y-95325000D03*
X113250000Y-95325000D03*
X112400000Y-95325000D03*
X111550000Y-95325000D03*
X110700000Y-95325000D03*
D13*
X109350000Y-94955000D03*
D14*
X109350000Y-98335000D03*
D13*
X118000000Y-94955000D03*
D14*
X118000000Y-98335000D03*
%TD*%
D10*
%TO.C,J1*%
X101490000Y-78660000D03*
D11*
X101490000Y-76120000D03*
X101490000Y-73580000D03*
X101490000Y-71040000D03*
X101490000Y-68500000D03*
%TD*%
M02*
