M48
; DRILL file {KiCad 9.0.3} date 2025-08-20T09:06:51-0400
; FORMAT={-:-/ absolute / metric / decimal}
; #@! TF.CreationDate,2025-08-20T09:06:51-04:00
; #@! TF.GenerationSoftware,Kicad,Pcbnew,9.0.3
; #@! TF.FileFunction,Plated,1,2,PTH
FMAT,2
METRIC
; #@! TA.AperFunction,Plated,PTH,ViaDrill
T1C0.150
; #@! TA.AperFunction,Plated,PTH,ComponentDrill
T2C0.200
; #@! TA.AperFunction,Plated,PTH,ComponentDrill
T3C0.400
; #@! TA.AperFunction,Plated,PTH,ComponentDrill
T4C0.600
; #@! TA.AperFunction,Plated,PTH,ComponentDrill
T5C1.000
%
G90
G05
T1
X96.0Y-45.175
X102.5Y-73.0
X103.0Y-54.75
X103.0Y-57.25
X103.0Y-76.75
X103.5Y-47.25
X104.0Y-69.5
X106.0Y-51.25
X106.5Y-51.5
X106.685Y-73.75
X106.685Y-74.25
X106.685Y-75.25
X107.0Y-66.0
X107.185Y-73.75
X107.185Y-75.25
X107.685Y-73.75
X107.685Y-75.25
X107.685Y-75.75
X107.685Y-76.75
X110.5Y-55.5
X110.5Y-66.5
X110.75Y-58.9
X111.5Y-55.5
X112.0Y-72.5
X112.5Y-55.5
X112.5Y-70.0
X113.5Y-55.5
X114.5Y-55.5
X115.0Y-67.5
X117.5Y-86.25
X123.5Y-76.5
X125.0Y-56.25
T2
X110.775Y-42.76
X110.775Y-44.16
X111.475Y-42.06
X111.475Y-43.46
X111.475Y-44.86
X112.175Y-42.76
X112.175Y-44.16
X112.875Y-42.06
X112.875Y-43.46
X112.875Y-44.86
X113.575Y-42.76
X113.575Y-44.16
T3
X110.7Y-93.975
X110.7Y-95.325
X111.55Y-93.975
X111.55Y-95.325
X112.4Y-93.975
X112.4Y-95.325
X113.25Y-93.975
X113.25Y-95.325
X114.1Y-93.975
X114.1Y-95.325
X114.95Y-93.975
X114.95Y-95.325
X115.8Y-93.975
X115.8Y-95.325
X116.65Y-93.975
X116.65Y-95.325
T5
X96.0Y-50.02
X96.0Y-52.56
X96.0Y-55.1
X96.0Y-57.64
X96.0Y-60.18
X96.0Y-62.72
X96.0Y-65.26
X96.0Y-67.8
X96.0Y-70.34
X96.0Y-72.88
X96.0Y-75.42
X96.0Y-77.96
X96.0Y-80.5
X96.0Y-83.04
X96.0Y-85.58
X96.0Y-88.12
X121.528Y-62.948
X121.528Y-65.488
X121.528Y-68.028
X121.528Y-70.568
X121.528Y-73.108
X131.5Y-50.42
X131.5Y-52.96
X131.5Y-55.5
X131.5Y-58.04
X131.5Y-60.58
X131.5Y-63.12
X131.5Y-65.66
X131.5Y-68.2
X131.5Y-70.74
X131.5Y-73.28
X131.5Y-75.82
X131.5Y-78.36
X131.5Y-80.9
X131.5Y-83.44
X131.5Y-85.98
X131.5Y-88.52
T4
X109.35Y-94.205G85X109.35Y-95.705
G05
X109.35Y-97.935G85X109.35Y-98.735
G05
X118.0Y-94.205G85X118.0Y-95.705
G05
X118.0Y-97.935G85X118.0Y-98.735
G05
M30
